<svg xmlns="http://www.w3.org/2000/svg" xmlns:xlink="http://www.w3.org/1999/xlink" width="799.91" height="400" viewBox="0 0 799.91 400">
  <defs>
    <clipPath id="clip-path">
      <rect width="799.91" height="400" style="fill: none"/>
    </clipPath>
    <linearGradient id="Áåçûìÿííûé_ãðàäèåíò_175" data-name="Áåçûìÿííûé ãðàäèåíò 175" x1="400" y1="229.26" x2="400" gradientUnits="userSpaceOnUse">
      <stop offset="0" stop-color="#edff63"/>
      <stop offset="0.29" stop-color="#ed92a6"/>
      <stop offset="0.43" stop-color="#c975aa"/>
      <stop offset="0.64" stop-color="#974eb0"/>
      <stop offset="0.8" stop-color="#7935b4"/>
      <stop offset="0.89" stop-color="#6d2cb5"/>
    </linearGradient>
    <linearGradient id="Áåçûìÿííûé_ãðàäèåíò_279" data-name="Áåçûìÿííûé ãðàäèåíò 279" x1="398.52" y1="253.64" x2="396.78" y2="198.7" gradientUnits="userSpaceOnUse">
      <stop offset="0.21" stop-color="#be9f10"/>
      <stop offset="0.68" stop-color="#d7b524"/>
      <stop offset="1" stop-color="#eac734"/>
    </linearGradient>
    <linearGradient id="Áåçûìÿííûé_ãðàäèåíò_276" data-name="Áåçûìÿííûé ãðàäèåíò 276" x1="374.38" y1="-85.8" x2="836.02" y2="375.84" gradientUnits="userSpaceOnUse">
      <stop offset="0" stop-color="#fff"/>
      <stop offset="1" stop-color="#837700"/>
    </linearGradient>
    <linearGradient id="Áåçûìÿííûé_ãðàäèåíò_276-2" x1="519.28" y1="-34.43" x2="793.48" y2="239.77" xlink:href="#Áåçûìÿííûé_ãðàäèåíò_276"/>
    <linearGradient id="Áåçûìÿííûé_ãðàäèåíò_276-3" x1="384.01" y1="135.13" x2="604.53" y2="355.64" xlink:href="#Áåçûìÿííûé_ãðàäèåíò_276"/>
    <linearGradient id="Áåçûìÿííûé_ãðàäèåíò_276-4" x1="434.59" y1="17.25" x2="817.78" y2="400.44" xlink:href="#Áåçûìÿííûé_ãðàäèåíò_276"/>
    <linearGradient id="Áåçûìÿííûé_ãðàäèåíò_219" data-name="Áåçûìÿííûé ãðàäèåíò 219" x1="496.15" y1="250.55" x2="494.41" y2="195.6" gradientUnits="userSpaceOnUse">
      <stop offset="0" stop-color="#be9f10"/>
      <stop offset="0.59" stop-color="#d7b524"/>
      <stop offset="1" stop-color="#eac734"/>
    </linearGradient>
    <linearGradient id="Áåçûìÿííûé_ãðàäèåíò_219-2" x1="402.37" y1="253.52" x2="410" y2="199.08" xlink:href="#Áåçûìÿííûé_ãðàäèåíò_219"/>
    <linearGradient id="Áåçûìÿííûé_ãðàäèåíò_335" data-name="Áåçûìÿííûé ãðàäèåíò 335" x1="193.81" y1="240.4" x2="193.81" y2="137.49" gradientUnits="userSpaceOnUse">
      <stop offset="0" stop-color="#837700"/>
      <stop offset="1" stop-color="#fff"/>
    </linearGradient>
    <linearGradient id="Áåçûìÿííûé_ãðàäèåíò_335-2" x1="350.39" y1="278.06" x2="350.39" y2="181.12" xlink:href="#Áåçûìÿííûé_ãðàäèåíò_335"/>
    <linearGradient id="Áåçûìÿííûé_ãðàäèåíò_335-3" x1="245.11" y1="261.01" x2="245.11" y2="144.78" xlink:href="#Áåçûìÿííûé_ãðàäèåíò_335"/>
    <linearGradient id="Áåçûìÿííûé_ãðàäèåíò_325" data-name="Áåçûìÿííûé ãðàäèåíò 325" x1="224.81" y1="247.03" x2="224.81" y2="178.73" gradientUnits="userSpaceOnUse">
      <stop offset="0" stop-color="#99573a"/>
      <stop offset="0.25" stop-color="#945338"/>
      <stop offset="0.56" stop-color="#854733"/>
      <stop offset="0.89" stop-color="#6c332a"/>
      <stop offset="1" stop-color="#632c27"/>
    </linearGradient>
    <linearGradient id="Áåçûìÿííûé_ãðàäèåíò_325-2" x1="1672.35" y1="238.31" x2="1672.35" y2="169.07" gradientTransform="matrix(-1, 0, 0, 1, 2472.26, 0)" xlink:href="#Áåçûìÿííûé_ãðàäèåíò_325"/>
    <linearGradient id="Áåçûìÿííûé_ãðàäèåíò_313" data-name="Áåçûìÿííûé ãðàäèåíò 313" x1="307.47" y1="248.02" x2="931.48" y2="248.02" gradientUnits="userSpaceOnUse">
      <stop offset="0.59" stop-color="#d8743d"/>
      <stop offset="1" stop-color="#ab3d23"/>
    </linearGradient>
    <linearGradient id="Áåçûìÿííûé_ãðàäèåíò_325-3" x1="25.59" y1="228.44" x2="25.59" y2="166.87" xlink:href="#Áåçûìÿííûé_ãðàäèåíò_325"/>
    <linearGradient id="Áåçûìÿííûé_ãðàäèåíò_278" data-name="Áåçûìÿííûé ãðàäèåíò 278" x1="862.79" y1="154.78" x2="665.91" y2="154.78" gradientUnits="userSpaceOnUse">
      <stop offset="0" stop-color="#6b5e01"/>
      <stop offset="1" stop-color="#be9f10"/>
    </linearGradient>
    <linearGradient id="Áåçûìÿííûé_ãðàäèåíò_258" data-name="Áåçûìÿííûé ãðàäèåíò 258" x1="-486.2" y1="465.18" x2="536.79" y2="351.04" gradientUnits="userSpaceOnUse">
      <stop offset="0.34" stop-color="#442127"/>
      <stop offset="1" stop-color="#ba4122"/>
    </linearGradient>
    <linearGradient id="Áåçûìÿííûé_ãðàäèåíò_278-2" x1="367.05" y1="384.35" x2="425.52" y2="158.97" xlink:href="#Áåçûìÿííûé_ãðàäèåíò_278"/>
    <linearGradient id="Áåçûìÿííûé_ãðàäèåíò_286" data-name="Áåçûìÿííûé ãðàäèåíò 286" x1="265.56" y1="245.06" x2="778.55" y2="245.06" gradientUnits="userSpaceOnUse">
      <stop offset="0" stop-color="#e4c30f"/>
      <stop offset="1"/>
    </linearGradient>
    <linearGradient id="Áåçûìÿííûé_ãðàäèåíò_303" data-name="Áåçûìÿííûé ãðàäèåíò 303" x1="739.57" y1="249.7" x2="712.85" y2="125.39" gradientUnits="userSpaceOnUse">
      <stop offset="0" stop-color="#632c27"/>
      <stop offset="0.22" stop-color="#5e2a25"/>
      <stop offset="0.49" stop-color="#4f2321"/>
      <stop offset="0.78" stop-color="#36191a"/>
      <stop offset="1" stop-color="#1e0f13"/>
    </linearGradient>
    <linearGradient id="Áåçûìÿííûé_ãðàäèåíò_298" data-name="Áåçûìÿííûé ãðàäèåíò 298" x1="635.23" y1="49.18" x2="799.77" y2="49.18" gradientUnits="userSpaceOnUse">
      <stop offset="0" stop-color="#6b5e01"/>
      <stop offset="1" stop-color="#5b4e02"/>
    </linearGradient>
    <linearGradient id="Áåçûìÿííûé_ãðàäèåíò_276-5" x1="-30.86" y1="262.16" x2="513.72" y2="262.16" xlink:href="#Áåçûìÿííûé_ãðàäèåíò_276"/>
    <linearGradient id="Áåçûìÿííûé_ãðàäèåíò_305" data-name="Áåçûìÿííûé ãðàäèåíò 305" x1="219.89" y1="333.24" x2="843.9" y2="333.24" gradientUnits="userSpaceOnUse">
      <stop offset="0.35" stop-color="#837700"/>
      <stop offset="1" stop-color="#fff"/>
    </linearGradient>
    <linearGradient id="Áåçûìÿííûé_ãðàäèåíò_302" data-name="Áåçûìÿííûé ãðàäèåíò 302" x1="146.33" y1="409.18" x2="214.59" y2="94.2" gradientUnits="userSpaceOnUse">
      <stop offset="0" stop-color="#632c27"/>
      <stop offset="0.4" stop-color="#612b26"/>
      <stop offset="0.6" stop-color="#592824"/>
      <stop offset="0.75" stop-color="#4c2220"/>
      <stop offset="0.87" stop-color="#3a1b1b"/>
      <stop offset="0.98" stop-color="#221114"/>
      <stop offset="1" stop-color="#1e0f13"/>
    </linearGradient>
    <linearGradient id="Áåçûìÿííûé_ãðàäèåíò_174" data-name="Áåçûìÿííûé ãðàäèåíò 174" x1="105.41" y1="421.07" x2="257.78" y2="137.06" gradientUnits="userSpaceOnUse">
      <stop offset="0" stop-color="#442127"/>
      <stop offset="1" stop-color="#632c27"/>
    </linearGradient>
    <linearGradient id="Áåçûìÿííûé_ãðàäèåíò_295" data-name="Áåçûìÿííûé ãðàäèåíò 295" x1="-39.82" y1="35.02" x2="437.1" y2="35.02" gradientUnits="userSpaceOnUse">
      <stop offset="0" stop-color="#413701"/>
      <stop offset="1" stop-color="#5b4e02"/>
    </linearGradient>
    <linearGradient id="Áåçûìÿííûé_ãðàäèåíò_132" data-name="Áåçûìÿííûé ãðàäèåíò 132" x1="158.62" y1="401.85" x2="158.62" y2="351.81" gradientUnits="userSpaceOnUse">
      <stop offset="0" stop-color="#6d5731"/>
      <stop offset="1" stop-color="#b08d4e"/>
    </linearGradient>
    <linearGradient id="Áåçûìÿííûé_ãðàäèåíò_174-2" x1="725.74" y1="252.68" x2="699.01" y2="128.37" xlink:href="#Áåçûìÿííûé_ãðàäèåíò_174"/>
    <linearGradient id="Áåçûìÿííûé_ãðàäèåíò_174-3" x1="770.93" y1="242.96" x2="744.2" y2="118.65" xlink:href="#Áåçûìÿííûé_ãðàäèåíò_174"/>
    <linearGradient id="Áåçûìÿííûé_ãðàäèåíò_174-4" x1="754.35" y1="246.53" x2="727.62" y2="122.21" xlink:href="#Áåçûìÿííûé_ãðàäèåíò_174"/>
    <linearGradient id="Áåçûìÿííûé_ãðàäèåíò_174-5" x1="705.48" y1="257.03" x2="678.75" y2="132.72" xlink:href="#Áåçûìÿííûé_ãðàäèåíò_174"/>
    <linearGradient id="Áåçûìÿííûé_ãðàäèåíò_174-6" x1="724.39" y1="252.97" x2="697.66" y2="128.66" xlink:href="#Áåçûìÿííûé_ãðàäèåíò_174"/>
    <linearGradient id="Áåçûìÿííûé_ãðàäèåíò_174-7" x1="723.78" y1="253.1" x2="697.05" y2="128.79" xlink:href="#Áåçûìÿííûé_ãðàäèåíò_174"/>
    <linearGradient id="Áåçûìÿííûé_ãðàäèåíò_174-8" x1="765.09" y1="244.22" x2="738.37" y2="119.9" xlink:href="#Áåçûìÿííûé_ãðàäèåíò_174"/>
    <linearGradient id="Áåçûìÿííûé_ãðàäèåíò_132-2" x1="259.89" y1="379.72" x2="259.89" y2="279.98" xlink:href="#Áåçûìÿííûé_ãðàäèåíò_132"/>
    <radialGradient id="Áåçûìÿííûé_ãðàäèåíò_128" data-name="Áåçûìÿííûé ãðàäèåíò 128" cx="561.52" cy="193.26" fx="554.3084131995605" fy="169.63914767785855" r="105.02" gradientUnits="userSpaceOnUse">
      <stop offset="0" stop-color="#edff81"/>
      <stop offset="0.02" stop-color="#e0f17a"/>
      <stop offset="0.09" stop-color="#b1bf60"/>
      <stop offset="0.17" stop-color="#87914a"/>
      <stop offset="0.25" stop-color="#636a36"/>
      <stop offset="0.34" stop-color="#444925"/>
      <stop offset="0.43" stop-color="#2b2e17"/>
      <stop offset="0.53" stop-color="#181a0d"/>
      <stop offset="0.65" stop-color="#0a0b06"/>
      <stop offset="0.78" stop-color="#020301"/>
      <stop offset="1"/>
    </radialGradient>
    <linearGradient id="Áåçûìÿííûé_ãðàäèåíò_132-3" x1="560.83" y1="316.52" x2="560.83" y2="274.48" xlink:href="#Áåçûìÿííûé_ãðàäèåíò_132"/>
    <linearGradient id="Áåçûìÿííûé_ãðàäèåíò_132-4" x1="701.77" y1="315.3" x2="701.77" y2="255.94" xlink:href="#Áåçûìÿííûé_ãðàäèåíò_132"/>
    <radialGradient id="Áåçûìÿííûé_ãðàäèåíò_160" data-name="Áåçûìÿííûé ãðàäèåíò 160" cx="479.4" cy="100.75" r="55.47" gradientTransform="matrix(0.79, 0.61, -0.61, 0.79, 192.53, -210.76)" gradientUnits="userSpaceOnUse">
      <stop offset="0.92"/>
      <stop offset="0.92" stop-color="#020200"/>
      <stop offset="0.93" stop-color="#544300"/>
      <stop offset="0.94" stop-color="#967800"/>
      <stop offset="0.95" stop-color="#c59d00"/>
      <stop offset="0.96" stop-color="#e2b400"/>
      <stop offset="0.96" stop-color="#edbd00"/>
      <stop offset="0.97" stop-color="#eabb00"/>
      <stop offset="0.98" stop-color="#e1b300"/>
      <stop offset="0.98" stop-color="#d1a700"/>
      <stop offset="0.98" stop-color="#bb9500"/>
      <stop offset="0.99" stop-color="#9e7e00"/>
      <stop offset="0.99" stop-color="#7a6200"/>
      <stop offset="0.99" stop-color="#504000"/>
      <stop offset="1" stop-color="#211a00"/>
      <stop offset="1"/>
    </radialGradient>
    <radialGradient id="Áåçûìÿííûé_ãðàäèåíò_166" data-name="Áåçûìÿííûé ãðàäèåíò 166" cx="500.72" cy="110.19" r="55.47" gradientTransform="translate(23.71 124.02) rotate(-7.61)" gradientUnits="userSpaceOnUse">
      <stop offset="0" stop-color="#edbd00"/>
      <stop offset="0.11" stop-color="#c59d00"/>
      <stop offset="0.29" stop-color="#8a6e00"/>
      <stop offset="0.46" stop-color="#594700"/>
      <stop offset="0.62" stop-color="#322800"/>
      <stop offset="0.77" stop-color="#171200"/>
      <stop offset="0.9" stop-color="#060500"/>
      <stop offset="1"/>
    </radialGradient>
    <linearGradient id="Áåçûìÿííûé_ãðàäèåíò_174-9" x1="-17.81" y1="365.41" x2="176.21" y2="3.77" xlink:href="#Áåçûìÿííûé_ãðàäèåíò_174"/>
    <linearGradient id="Áåçûìÿííûé_ãðàäèåíò_174-10" x1="-12.82" y1="373.06" x2="177.46" y2="18.39" xlink:href="#Áåçûìÿííûé_ãðàäèåíò_174"/>
    <linearGradient id="Áåçûìÿííûé_ãðàäèåíò_174-11" x1="12.02" y1="357.38" x2="185.44" y2="34.15" xlink:href="#Áåçûìÿííûé_ãðàäèåíò_174"/>
    <linearGradient id="Áåçûìÿííûé_ãðàäèåíò_174-12" x1="36.52" y1="370.53" x2="209.94" y2="47.3" xlink:href="#Áåçûìÿííûé_ãðàäèåíò_174"/>
    <linearGradient id="Áåçûìÿííûé_ãðàäèåíò_174-13" x1="55.42" y1="380.67" x2="228.84" y2="57.44" xlink:href="#Áåçûìÿííûé_ãðàäèåíò_174"/>
    <linearGradient id="Áåçûìÿííûé_ãðàäèåíò_174-14" x1="45.59" y1="354.9" x2="184.53" y2="95.94" xlink:href="#Áåçûìÿííûé_ãðàäèåíò_174"/>
    <linearGradient id="Áåçûìÿííûé_ãðàäèåíò_174-15" x1="25.63" y1="364.68" x2="174.27" y2="87.63" xlink:href="#Áåçûìÿííûé_ãðàäèåíò_174"/>
    <linearGradient id="Áåçûìÿííûé_ãðàäèåíò_174-16" x1="-2.85" y1="349.4" x2="145.79" y2="72.35" xlink:href="#Áåçûìÿííûé_ãðàäèåíò_174"/>
    <linearGradient id="Áåçûìÿííûé_ãðàäèåíò_189" data-name="Áåçûìÿííûé ãðàäèåíò 189" x1="82.98" y1="170.12" x2="100.12" y2="170.12" gradientUnits="userSpaceOnUse">
      <stop offset="0"/>
      <stop offset="1" stop-color="#f99000"/>
    </linearGradient>
    <linearGradient id="Áåçûìÿííûé_ãðàäèåíò_189-2" x1="51.89" y1="207.81" x2="90.79" y2="207.81" xlink:href="#Áåçûìÿííûé_ãðàäèåíò_189"/>
    <linearGradient id="Áåçûìÿííûé_ãðàäèåíò_189-3" x1="100.46" y1="140.28" x2="123.1" y2="140.28" xlink:href="#Áåçûìÿííûé_ãðàäèåíò_189"/>
    <linearGradient id="Áåçûìÿííûé_ãðàäèåíò_189-4" x1="86.33" y1="230.99" x2="133.85" y2="230.99" xlink:href="#Áåçûìÿííûé_ãðàäèåíò_189"/>
    <linearGradient id="Áåçûìÿííûé_ãðàäèåíò_189-5" x1="91.47" y1="255.39" x2="149.47" y2="255.39" xlink:href="#Áåçûìÿííûé_ãðàäèåíò_189"/>
    <linearGradient id="Áåçûìÿííûé_ãðàäèåíò_189-6" x1="63.91" y1="398.81" x2="216.29" y2="114.8" xlink:href="#Áåçûìÿííûé_ãðàäèåíò_189"/>
    <linearGradient id="Áåçûìÿííûé_ãðàäèåíò_189-7" x1="41.75" y1="386.92" x2="194.12" y2="102.91" xlink:href="#Áåçûìÿííûé_ãðàäèåíò_189"/>
    <linearGradient id="Áåçûìÿííûé_ãðàäèåíò_306" data-name="Áåçûìÿííûé ãðàäèåíò 306" x1="591.64" y1="400.7" x2="679.64" y2="400.7" gradientUnits="userSpaceOnUse">
      <stop offset="0" stop-color="#fff"/>
      <stop offset="0.65" stop-color="#837700"/>
    </linearGradient>
    <linearGradient id="Áåçûìÿííûé_ãðàäèåíò_305-2" x1="663.96" y1="361.58" x2="819.04" y2="361.58" xlink:href="#Áåçûìÿííûé_ãðàäèåíò_305"/>
    <linearGradient id="Áåçûìÿííûé_ãðàäèåíò_305-3" x1="677.71" y1="369.24" x2="830.96" y2="369.24" xlink:href="#Áåçûìÿííûé_ãðàäèåíò_305"/>
    <linearGradient id="Áåçûìÿííûé_ãðàäèåíò_331" data-name="Áåçûìÿííûé ãðàäèåíò 331" x1="96.75" y1="150.38" x2="-12.39" y2="150.38" gradientUnits="userSpaceOnUse">
      <stop offset="0" stop-color="#be9f10"/>
      <stop offset="1" stop-color="#6b5e01"/>
    </linearGradient>
    <linearGradient id="Áåçûìÿííûé_ãðàäèåíò_392" data-name="Áåçûìÿííûé ãðàäèåíò 392" x1="746.81" y1="226.65" x2="710.11" y2="226.65" gradientUnits="userSpaceOnUse">
      <stop offset="0.56"/>
      <stop offset="1" stop-color="#f99000"/>
    </linearGradient>
    <linearGradient id="Áåçûìÿííûé_ãðàäèåíò_395" data-name="Áåçûìÿííûé ãðàäèåíò 395" x1="801.41" y1="165.77" x2="747.59" y2="165.77" gradientUnits="userSpaceOnUse">
      <stop offset="0.81"/>
      <stop offset="1" stop-color="#f99000"/>
    </linearGradient>
    <linearGradient id="Áåçûìÿííûé_ãðàäèåíò_393" data-name="Áåçûìÿííûé ãðàäèåíò 393" x1="731.92" y1="243.21" x2="712.2" y2="243.21" gradientUnits="userSpaceOnUse">
      <stop offset="0.06"/>
      <stop offset="1" stop-color="#f99000"/>
    </linearGradient>
    <linearGradient id="Áåçûìÿííûé_ãðàäèåíò_391" data-name="Áåçûìÿííûé ãðàäèåíò 391" x1="738.62" y1="206.68" x2="709.15" y2="206.68" gradientUnits="userSpaceOnUse">
      <stop offset="0.56"/>
      <stop offset="1" stop-color="#f99000"/>
    </linearGradient>
    <linearGradient id="linear-gradient" x1="453.89" y1="1048.02" x2="453.89" y2="0.43" gradientUnits="userSpaceOnUse">
      <stop offset="0" stop-color="#40002f"/>
      <stop offset="0.1" stop-color="#470833"/>
      <stop offset="0.26" stop-color="#5c1f3e"/>
      <stop offset="0.45" stop-color="#7c4350"/>
      <stop offset="0.67" stop-color="#aa7668"/>
      <stop offset="0.92" stop-color="#e4b688"/>
      <stop offset="1" stop-color="#f9cd93"/>
    </linearGradient>
  </defs>
  <g style="isolation: isolate">
    <g id="Ñëîé_1" data-name="Ñëîé 1">
      <g style="clip-path: url(#clip-path)">
        <rect width="800" height="229.26" style="fill: url(#Áåçûìÿííûé_ãðàäèåíò_175)"/>
        <g style="opacity: 0.53">
          <path d="M512.52,141.63C299.69,129.92,200.12,45.77,111.29-33.91l-15,9.53S267.68,151.41,533.05,143.55,862,21.21,862,21.21l-2.86-4.16C828.07,46.21,701.67,152,512.52,141.63Z" style="fill: #edbd00;opacity: 0.21;mix-blend-mode: screen"/>
          <path d="M512.52,132.64s-200.79.46-356.89-194.75l-14,8.89c23.74,35.43,133.52,178.11,370.88,193C667.74,149.47,778.05,67.23,844-4.9l-2-2.85s-128.53,155.07-329.55,135S204.71-93.32,204.71-93.32L185.94-81.39C212.81-27,301.27,111.66,512.52,132.64Z" style="fill: #edbd00;opacity: 0.21;mix-blend-mode: screen"/>
        </g>
        <path d="M-16.36,151.08c-234-25-275.95-40.25-245.78-49.49-6.95-1.24-13.65-2.44-20.05-3.61-108.09,8.37-135.69,25,236.55,58,561.54,49.73,780.95,22.76,846.3,10C799.77,166.08,541,210.67-16.36,151.08Z" style="fill: #edbd00;opacity: 0.21;mix-blend-mode: screen"/>
        <path d="M-5.92,119.72c641.17,80.16,796.17,45,829.64,31.4V137.64c-47.48,9.55-213.82,36.45-475.15,9,0,0,274.47,25.15,475.15-16.21V119c-197,60.21-509.87,27.07-696.39-1.68,81.82,19.46,141.16,26.27,154.88,27.68l3.05.3s-1.06-.09-3.05-.3C117.64,128.92-1,98.23-31.89,89.69c-19.49.16-100,1-175.57,4.09-2.63.21-5.22.44-7.75.67C-163.68,100.32-95.12,108.57-5.92,119.72Z" style="fill: #edbd00;opacity: 0.21;mix-blend-mode: screen"/>
        <circle cx="555.4" cy="173.76" r="27.11" style="fill: #edffd3"/>
        <path d="M413.08,186.8s-95.8-11.37-181.52-7.67c0,0,41.46-2.75,74.05-2.64,0,0-7.43-8.17,16.71-6.13s30.26,6.47,30.26,6.47,15-3.7,22.47,4.55Z" style="fill: #d86f9b"/>
        <path d="M347.09,162.68c100.58,1.94,133.28,5.38,149.11,4.8s3.57-1.2,27.57-2.33c0,0-9.19-2.28-50-1.7s-83.24-2.8-83.24-2.8,61,3,77.47,2,24.67-3.45,55.81-2.88c0,0,15.32-4.41,49-1.15s70,4,99.06,2.11,33.19,2.88,33.19,2.88,25-1.53,31.15,1.73c0,0,41.36.77,65.62.58s5.36,5,5.36,5-41.2-1.39-76.43-3.88-54.81,0-95.15,3.11-118.46,2.22-138.89,1.88-119.49-7.64-154.21-8-49.53.9-49.53.9,38.29-.14,47,1-56.68,1.72-92.42,1.53-71.49,2.88-99.58-.77S103,164,103,164s24.68-1.08,59.41.89c0,0,30.46-2.81-43.58-4.35s-115.92-1.73-97.53,1.34l-33.71.39-6.12-6.53s43.4-13.25,110.81-4.22c0,0,2.89-6.66,47.66.89s102-1.08,97.87,6.21c0,0,39.83,0,45.95,3.07S307.26,161.91,347.09,162.68Z" style="fill: #d86f9b"/>
        <path d="M504.25,156.84s61.78-4.2,98.55-1.14,58.8,2.91,110.38,1.83,142.92,3.3,154.5,6.32,8.31-3.42,8.31-3.42-43.4-3.41-110.29-3.77c0,0,11.23-5.57-55.66-5.3s-93.88-18.34-108.6,0c0,0-66.55-1.18-59.4,2.24C542,153.6,508.33,155.76,504.25,156.84Z" style="fill: #d86f9b"/>
        <path d="M-10.4,174.11s105.7,1.53,131,6.89,61.54,6.89,125.62,0c21.81-2.35,70.21,16.85,98.3,12.26s22.47-6.46,41.11.65c14.17,5.4,45.19-3.18,58.21,0s61.45.46,95-8.48c26.29-7,37.53,7.06,57.44,3.23s44.43-10.24,68.94-7.66C685,183.09,800,174.11,800,174.11l3.81,52.08L-10.4,217Z" style="fill: #e18283"/>
        <path d="M187.57,190.49s-6.88-3.22,7.28-5.4c0,0-8-3.73,6-6.67s12.76,3.4,4.6,3.86c0,0,12.82-2.43,20.93-.51,0,0,4.41-6.3,20.26-4.13s4.42,5.58,4.42,5.58,22.77-3.14,12.41,1.28c0,0,15.85-1.88,1.38-7s-56-9.36-60.77-8.34-18,7.43-20.25,9.25-7.09,4.8-6.86,6.37S180.26,190.71,187.57,190.49Z" style="fill: #605202"/>
        <path d="M-4.79,185.34s430,15.32,488.17,19.4,317.07-24.47,317.07-24.47L800,400H0Z" style="fill: #ffdb95"/>
        <path d="M-9.38,164.23s-4.57-3.15,14.64-3.82,24.17-.6,11.91,3c0,0,11.06.17,18,2.73,0,0-4-2.08,7.32-3S55,163,49.94,165.68c0,0,22.45-5.08,13.06-1.45l5.2.68,3.2.7,1.37-2.87-5.17-6.38s-45.32-3.25-47.37-3.09-22.23-.71-24.65-.39-21.81,6.58-21.81,6.58l-5.62,8.14Z" style="fill: #605202"/>
        <path d="M772.15,167.78c2.71-.13-2.5-3,10.88-3.13s9.25,1.86,4.44,3.58l14.12-.45,10.64-.57s3.41-8,2.73-8.9-36.37-.15-38.05-.2S761.5,163,761.5,163l.93,3.18S768.32,168,772.15,167.78Z" style="fill: #605202"/>
        <path d="M-5.92,188.29s430,15.32,488.17,19.4,318.42-24.47,318.42-24.47L798.87,403h-800Z" style="fill: url(#Áåçûìÿííûé_ãðàäèåíò_279)"/>
        <path d="M562.4,205.21c-11.12.74-21.68,1.37-31.41,1.85,55.39,3.07,198.61,10.27,269.42,7l.09-10C755.94,205.14,620.31,208,562.4,205.21Z" style="opacity: 0.14;mix-blend-mode: multiply;fill: url(#Áåçûìÿííûé_ãðàäèåíò_276)"/>
        <path d="M800.53,200.16l0-3.46c-20.71-.86-55-2.5-82.78-4.91-6.59.66-13.42,1.32-20.43,2C730.1,196.24,771.93,199.13,800.53,200.16Z" style="opacity: 0.14;mix-blend-mode: multiply;fill: url(#Áåçûìÿííûé_ãðàäèåíò_276-2)"/>
        <path d="M543.51,233.45c85.92,14.19,24.2,0,24.2,0l-155-18.86q-25,1.42-47.47,2.54C395.05,218.25,475.13,222.16,543.51,233.45Z" style="opacity: 0.14;mix-blend-mode: multiply;fill: url(#Áåçûìÿííûé_ãðàäèåíò_276-3)"/>
        <g style="opacity: 0.33;mix-blend-mode: multiply">
          <polygon points="355.76 239.09 814.96 212.28 814.19 229 359.81 244.61 355.76 239.09" style="fill: #837700"/>
        </g>
        <path d="M493.09,209.5q-14.65,1-28.64,1.92c78.31,4.89,269.65,16.11,335.88,13.4l0-6.09C751.23,219.52,552.88,221.89,493.09,209.5Z" style="opacity: 0.14;mix-blend-mode: multiply;fill: url(#Áåçûìÿííûé_ãðàäèåíò_276-4)"/>
        <path d="M521.56,207.49c-176.13,12.77-286.33,14.85-332.94,15l31.27,20.52,60.43-9.6s6-3.68,94.81-12.36c75.21-7.35,344.55-22.2,425.44-26.59l.1-11.28S614.07,203.7,521.56,207.49Z" style="opacity: 0.21;mix-blend-mode: screen;fill: url(#Áåçûìÿííûé_ãðàäèåíò_219)"/>
        <path d="M177,244.17l-14.08-21.75S280.48,225,521.56,207.49c-16.73.69-30.39.83-39.31.2C424,203.61-5.92,188.29-5.92,188.29L-1.13,403h800l1-126.89Z" style="opacity: 0.5;mix-blend-mode: screen;fill: url(#Áåçûìÿííûé_ãðàäèåíò_219-2)"/>
        <path d="M256.43,221.39l-94.53-27-30.7-1.14C159.59,199.23,202.78,209,247,221.63Z" style="opacity: 0.14;mix-blend-mode: multiply;fill: url(#Áåçûìÿííûé_ãðàäèåíò_335)"/>
        <path d="M388.07,216q8.55-.45,17.42-1c-14.07-4.36-31-8.9-50.84-13.15-18.86-.76-38.85-1.55-59.36-2.35C327,203.76,360.6,209.29,388.07,216Z" style="opacity: 0.14;mix-blend-mode: multiply;fill: url(#Áåçûìÿííûé_ãðàäèåíò_335-2)"/>
        <path d="M180.51,195.11c34.24,6.47,81.82,15.78,122,24.77l7.24-.28c-31.17-8.27-64.71-17-88.76-23Z" style="opacity: 0.14;mix-blend-mode: multiply;fill: url(#Áåçûìÿííûé_ãðàäèåíò_335-3)"/>
        <path d="M190.83,170.72c4.4,19.77,18.2,21.41,18.91,28.74s7.6,34.63,2.84,47l46.2.57s-12.26-13.38-17.26-28.58-6-24-6.26-28.21,19.38-4.92,22.38-25.78-1.11-2-1.11-2-2.11,19.62-21.27,23.77c0,0,13-8.6,9.51-24.94l-2.25-.83s3.25,16.28-9.26,24c0,0-10.8-5.33-9.53-20.94l-1.36-.73a22.6,22.6,0,0,0,1.36,11.87c2.53,6.28,8.33,9.06,8.43,19.3S239,241,239,241s-16.83,0-17.05-9.89-6.92-30.94-5.19-39,.15-31.79.15-31.79l-1.53.36s1.6,29.54-1.4,31.43-11.26-30.79-11.26-30.79l-1.64,2.26s8.89,27.68,10.14,30.68-17.26-6.8-19-26Z" style="fill: url(#Áåçûìÿííûé_ãðàäèåíò_325)"/>
        <path d="M833.92,162c-4.4,19.77-18.2,21.4-18.91,28.74s-7.6,34.63-2.84,47l-46.2.58s12.26-13.38,17.26-28.58,6-24,6.26-28.21S770,175.7,767,154.84s1.25-1.09,1.25-1.09,2.11,19.62,21.27,23.76c0,0-13-8.59-9.51-24.93l2.25-.83s-3.25,16.28,9.26,24c0,0,10.8-5.32,9.53-20.93l1.36-.73A22.61,22.61,0,0,1,801,166c-2.53,6.28-8.33,9.06-8.43,19.3s-6.86,47-6.86,47,16.83,0,17-9.89,6.92-30.94,5.19-39,0-35.94,0-35.94l1.53.36s-1.75,33.69,1.25,35.58S822,152.58,822,152.58l1.64,2.26s-8.89,27.68-10.15,30.68,17.27-6.81,19-26Z" style="fill: url(#Áåçûìÿííûé_ãðàäèåíò_325-2)"/>
        <polygon points="307.47 242.78 811.47 216.74 811.47 275.71 307.47 242.78" style="fill: #ed875a"/>
        <polygon points="307.47 244.57 811.47 218.53 811.47 277.51 307.47 244.57" style="fill: url(#Áåçûìÿííûé_ãðàäèåíò_313)"/>
        <path d="M69.94,149.61c-1.75,19.24-20.27,29-19,26S61.07,145,61.07,145l-1.64-2.26S51.17,175.4,48.17,173.5s-1.25-35.58-1.25-35.58l-1.53-.36s-1.1,17.82-.66,29.1c0,0-6.76-3.95-8-6.25s7.55-6,4.32-16.6H39.81s4.08,7.94-4.09,14.61c0,0-7.66-6.78-7.49-10.61L27,149c-.34,5.41,17.53,18.72,17.94,21.64a26.77,26.77,0,0,0,.41,2.91c1.73,8.11-4.68,34-4.9,43.87S-.33,222.44-.33,222.44s6.76-36.78,6.86-47,5.9-13,8.43-19.3a22.6,22.6,0,0,0,1.36-11.87L15,145c1.27,15.61-9.53,20.94-9.53,20.94-12.51-7.75-9.26-24-9.26-24l-2.25.83c-3.5,16.34,9.51,24.94,9.51,24.94-19.16-4.15-21.27-23.77-21.27-23.77s-4.25-19.77-1.25,1.09S3.68,167.4,3.43,171.65s-1.25,13-6.26,28.21-17.26,28.58-17.26,28.58l69.68-.57c-4.77-12.37,2.12-39.67,2.83-47s14.51-9,18.92-28.74Z" style="fill: url(#Áåçûìÿííûé_ãðàäèåíò_325-3)"/>
        <path d="M772.15,167.78l-5.69-1.55a1.07,1.07,0,0,1,.15-2.1c8.82-1,26.41-2.83,36.26-1.71,13.53,1.53,6.53,3.7-1.28,5.36,0,0,11.83.51,18,2.72,0,0-6.47-3-5.28-4.22s18.38-1.65,20.68-1-1.45,1-1.45,1,10.13.48,12.18,1.07c0,0-4.52-1.26-1.79-2.54s17.46,5.35,8.64,4.5c0,0,4,.57,5.66,1.73,0,0,.25-.37-.69-1,0,0,5,0,.72-3.83,0,0,13.75-13.91-6.93-23.38s-25.44-1-23.4,1.81c0,0-9.28-1.75-13.11.46s.6,4.43.6,4.43-9.88,2.29-7.66,4.68l-4-.35s6.2-5.77-3-8.12-13.62-1.66-13.62-1.66,3.92-3.57-4.85-2.3-23.7,2.54-19.91,7.15C762.45,149,737.26,169.11,772.15,167.78Z" style="fill: url(#Áåçûìÿííûé_ãðàäèåíò_278)"/>
        <g style="opacity: 0.22;mix-blend-mode: multiply">
          <path d="M726.83,237.52c-.21-2.28,39.32-3.91,47.23-1.17S727.08,240.29,726.83,237.52Z" style="fill: #ba4122"/>
        </g>
        <g style="opacity: 0.22;mix-blend-mode: multiply">
          <path d="M777.12,235.47c-2.81-2,23.49-1.8,29.37,0S779.42,237.1,777.12,235.47Z" style="fill: #ba4122"/>
        </g>
        <g style="opacity: 0.22;mix-blend-mode: multiply">
          <path d="M777.49,237.77c-1.86-.68,12.25-.25,13,0S779.79,238.6,777.49,237.77Z" style="fill: #ba4122"/>
        </g>
        <g style="opacity: 0.22;mix-blend-mode: multiply">
          <path d="M628.06,233.31c2-.41,52.68-1.06,57.54.27S620.06,235,628.06,233.31Z" style="fill: #ba4122"/>
        </g>
        <path d="M766.61,164.13c8.82-1,26.41-2.83,36.26-1.71l.36,0L802,153.21C810.53,142,782.58,146,782.58,146s8.38-3.91-5.26-1.53a29,29,0,0,0-19.55,12.94c-3.24,10.89,14.38,10.35,14.38,10.35l-5.69-1.55A1.07,1.07,0,0,1,766.61,164.13Z" style="fill: #be9f10;opacity: 0.39;mix-blend-mode: multiply"/>
        <path d="M765.9,161.34s20.81-7.29,40-1.79c0,0-10.08-3.91-7.79-5.59,0,0-2.77,1.4-.36,3.11,0,0-14.26-7-27.21-2.86,0,0,12.61-2.57,21.56,2A57.28,57.28,0,0,0,765.9,161.34Z" style="fill: #be9f10;opacity: 0.39;mix-blend-mode: multiply"/>
        <g style="opacity: 0.22;mix-blend-mode: multiply">
          <path d="M683.3,230.74c-1.77-.32,24.71-2.46,28.53-1.48S691.47,232.22,683.3,230.74Z" style="fill: #ba4122"/>
        </g>
        <polygon points="-4.79 374.79 214.02 363.3 256.92 332.66 380.23 330.22 605.42 307.38 542.62 400 0 400 -4.79 374.79" style="fill: url(#Áåçûìÿííûé_ãðàäèåíò_258)"/>
        <g style="opacity: 0.44;mix-blend-mode: multiply">
          <polygon points="449.68 347.04 112.15 411.55 372.57 395.72 449.68 347.04" style="fill: #ba4122"/>
        </g>
        <g style="opacity: 0.44;mix-blend-mode: multiply">
          <polygon points="811.47 242.53 409.93 240.09 409.93 248.02 803.81 248.02 811.47 242.53" style="fill: #ba4122"/>
        </g>
        <g style="opacity: 0.6000000000000001;mix-blend-mode: multiply">
          <polygon points="264.15 362.53 280.83 362.53 330.53 337.51 250.12 337.51 214.02 363.3 -4.79 374.79 0 400 205.96 400 234.51 387.39 264.15 362.53" style="fill: #ba4122"/>
        </g>
        <path d="M322.32,334.11s125-9.74,153.91,17.7c31.86,30.21,18.4-44.43,18.4-44.43l-181.8,20Z" style="fill: #d8743d"/>
        <polygon points="0 382.45 88.92 377.54 93.77 374.06 214.02 363.3 256.92 332.66 799.88 321.93 800 245.6 293.68 238.45 271.14 223.71 149.68 212.4 134.36 200 0 193.25 0 382.45" style="fill: url(#Áåçûìÿííûé_ãðàäèåíò_278-2)"/>
        <g style="opacity: 0.97;mix-blend-mode: multiply">
          <path d="M112.15,370s-9.87-78.14-23.24-83.92-31.72-4.19-31.72-4.19l11-4.41s-22.24-12-48.14-10.89-32.34,23.52-32.34,23.52L-2.15,259.3l59-3.91L95.2,273.25l17,39.46Z" style="fill: #837700"/>
        </g>
        <g style="opacity: 0.33;mix-blend-mode: multiply">
          <polygon points="159.38 249.17 118.79 260.6 172.93 271.27 155.5 277.51 113.73 269.92 120.47 371.67 113.73 372.27 93.77 374.06 57.19 307.38 37.85 306.53 26.53 287.85 0 284.11 0 260.6 81.36 230.99 159.38 249.17" style="fill: #837700"/>
        </g>
        <path d="M293.68,238.45l-6.67,4.6s172.05,0,229.56,1C587.3,245.24,800,251.67,800,251.67V245.6Z" style="opacity: 0.53;mix-blend-mode: color-dodge;fill: url(#Áåçûìÿííûé_ãðàäèåíò_286)"/>
        <path d="M671.81,96.17s73.53-16.08,100.34-15.06-10,7.5-10,7.5H800l-.53-41.46L641.94,67.83l-3.83,11.49L621,101Z" style="fill: #28230c"/>
        <path d="M622.15,149.57s-13.92-2.34,19.79-11.27c0,0-21.61-1.28-11.32-6.39s51.47-8.22,22.29,2.05c0,0,18.13-5.16,34-6.8,0,0-14.55-.1,1.53-5.71s31.32-10,22.05-2.81c0,0,27.32-4.66,7.32-16.2S608,119.94,608,119.94l-10.73,19.12,16.09,12.26Z" style="fill: #28230c"/>
        <path d="M603.89,130.14s23.32,18.77,32.51,20.48,36-9.63,44.73-4-2.17-4.21-2.17-4.21-.09-4.76-29.49,4.08-21.41-49.7-21.41-49.7l-2,6.47s-3.57,38.12,12.09,45.1c0,0-15.15-1.7-20.43-27.32h-1.19s2.08,16.18,7.85,19.45l-1,.86s-11.07-3.88-18.22-13.41S603.89,130.14,603.89,130.14Z" style="fill: #1e0f13"/>
        <path d="M628.06,116.87s-.07,10,13.07,12,20,3.36,27.78,7.44,31.73,30.6,35.77,36.36,5.82,53.17,5.82,53.17l.63,1.7s1.36,16.28,0,22.81-50,12.64-50,12.64,47.59-4.36,52.68-4,0,5.08,0,5.08,11.91-.87,8.85-7.14c0,0,9.19-.39,12.94,6,0,0,3.74,5.88,7.49,0l7.49-9.63s0,8,3.06,9.63,17,1,17,1-12.6-1.08-14.65-6.53.34-14.64.34-16.34,7.17-3.15,5.79-26.19-4.84-35.65-3.74-43.94,9.87-32.34,19.74-48,0-80.27,0-80.27l-5.79,1.64s5.79,46.31,3.07,60.26-17.36,34-19.41,46.63c0,0-9.53-36.09-10.55-44.94s20.08-28,11.57-63.59h-3.74s12.26,29.08-9.53,55.7L735,55.32l-7.49-.68S734.2,88.26,739.68,113s9.23,56,9.23,56h-3.06s5.79,24.53,4.43,43.45-10.6,36-10.6,36a53.73,53.73,0,0,1-14.59-19.2c-5.45-12.23-9.41-50-10.56-58.87s-6.81-25.19-6.13-33,7.83-22.47,8.86-30.64,2.72-48,2.72-48l-2-1.36s-1,34.25-2.05,41.13-10.57,28-10.57,28l-3.55-62.63h-1.88s1.37,56,1.88,65.79,0,27.44,0,27.44S677.43,137.7,674,131.91,669.26,103,669.26,103l-2.72-.52s.33,21.84,3.06,27.19c0,0-18.05-1.65-22.47-4.11,0,0,4.42-8.58,3.06-17.78l-1.53-.17s1.7,11.22-4.26,18A15.45,15.45,0,0,1,632.66,113c-1.87-10.68-2.72,0-2.72,0s-1.2,9,9.7,12.54c0,0-10,2-10.73-10.46Z" style="fill: url(#Áåçûìÿííûé_ãðàäèåíò_303)"/>
        <path d="M629.08,92.43c-13.61,0,4.77-12.6,4.77-12.6s-49.7,20.08-53.79,12.6,18.39-23.15,23.49-24.86c0,0-11.23-8.17,14-16S644.4,41.7,644.4,41.7s-27.91-1-11.23-10.21c4.59-2.53,12.37-5.38,21.24-8.17A357.1,357.1,0,0,1,746.46,7.24l68.5-3-.68,63.65-42.22,6.81s38.13-13.27,7.15-13.27-90.89,8.17-127,18.38S629.08,92.43,629.08,92.43Z" style="fill: url(#Áåçûìÿííûé_ãðàäèåíò_298)"/>
        <path d="M629.08,92.43S616.15,90,652.23,79.83s96-18.38,127-18.38-7.15,13.27-7.15,13.27l42.22-6.81.57-53.2c-.94-.56-1.92-1.11-3-1.62C775.13-5.3,685.4,23.69,678.79,26.36,657.34,35,659.28,39.3,659.28,39.3c-22.57,8.51-5.68,11.91-5.68,11.91-44.26,12.26-20.77,13.62-20.77,13.62s-27.23,7.83-30,15.27,21.44,3.39,21.44,3.39c5.67-2.1,9.54-3.66,9.54-3.66S615.47,92.43,629.08,92.43Z" style="fill: #be9f10;opacity: 0.6000000000000001;mix-blend-mode: multiply"/>
        <path d="M644.74,63.81s-31.31.08,30.3-14.09c0,0-19.86,2-20.08-3.3s16-6.78,16-6.78-28-4.31,61.56-27.52C705.31,17.4,682,25.05,678.79,26.36,657.34,35,659.28,39.3,659.28,39.3c-22.57,8.51-5.68,11.91-5.68,11.91-44.26,12.26-20.77,13.62-20.77,13.62s-27.23,7.83-30,15.27c-1,2.63,1.43,3.82,4.91,4.26C607.78,84.36,590.62,79.81,644.74,63.81Z" style="fill: #be9f10;opacity: 0.6000000000000001;mix-blend-mode: multiply"/>
        <path d="M699.89,49.18s69.79-17.52,105.54-.94S802,42.79,802,42.79s-14-20.85-57.87-16.77c0,0,32.34-1.74,47.32,13.94C791.47,40,755.38,31.14,699.89,49.18Z" style="fill: #be9f10;opacity: 0.6000000000000001;mix-blend-mode: multiply"/>
        <g style="opacity: 0.24;mix-blend-mode: color-dodge">
          <path d="M609.34,65.85s-16.68-6.47,40.51-24.51c0,0-35.78-12,55.45-30a350.41,350.41,0,0,0-50.89,12c-8.87,2.79-16.65,5.64-21.24,8.17C616.49,40.68,644.4,41.7,644.4,41.7s-1.7,2-26.89,9.87-14,16-14,16c-5.1,1.71-27.57,17.37-23.49,24.86,2.21,4,17.66.06,31.44-4.47C611.51,88,563.72,100.23,609.34,65.85Z" style="fill: #99810a"/>
        </g>
        <path d="M592.66,104.69c-9.19-3.07,42.89-23.84,96-27.24s29.28,5.44,29.28,5.44,22.12-.09,21.44,7.79-8.51,7.53-8.51,7.53,14.3,3.08,6.47,6.48-12.94,2.71-12.94,2.71,13.28,8.86-13.95,11.24c0,0,35.25-11.24-13.19-11.58S592.66,130.55,611,131.91c0,0-10.21,1.37-.34,4.43s21.79,2,21.79,2-24.42,8.07-10.34,11.19c0,0-8.48,11.2-21.88,5.79,0,0-22.25,7.87-12-10.17,0,0-24.25-5.11,7.83-15.56,0,0-30.63-5-11.23-12.76,0,0-6.47-5.39.68-8.78Z" style="fill: #6b5e01"/>
        <path d="M622.15,149.57c-14.08-3.12,10.34-11.19,10.34-11.19s-11.92,1-21.79-2,.34-4.43.34-4.43c-18.38-1.36,37.79-25.19,86.22-24.85s13.19,11.58,13.19,11.58c27.23-2.38,13.95-11.24,13.95-11.24s5.11.69,12.94-2.71-6.47-6.48-6.47-6.48,7.83.34,8.51-7.53-21.44-7.79-21.44-7.79,23.83-8.85-29.28-5.44q-7.36.47-14.65,1.36c-60.24,9.43-66,20.77-55.1,19.17,0,0-23,9.74-16.25,16.65,0,0-22.68,10.28,0,14.79,0,0-17.15,9.2-7.62,12,0,0-5.79,13.42,15.66,11.66a53.24,53.24,0,0,0,9.82-1.72A17.91,17.91,0,0,0,622.15,149.57Z" style="fill: #be9f10;opacity: 0.6000000000000001;mix-blend-mode: multiply"/>
        <g style="opacity: 0.24;mix-blend-mode: color-dodge">
          <path d="M590.09,143.81s-19.39-3.75,7.16-14.47c0,0-24.51-3.15-7.82-12.47,0,0-7.5-6.42,7.82-14.08,0,0-10.8-2,41.91-17.7-31,7.42-52.7,17.53-46.5,19.6l-7.15,3.4c-7.15,3.39-.68,8.78-.68,8.78-19.4,7.76,11.23,12.76,11.23,12.76-32.08,10.45-7.83,15.56-7.83,15.56-10.21,18,12,10.17,12,10.17S583.1,158.11,590.09,143.81Z" style="fill: #99810a"/>
        </g>
        <path d="M649.47,94.1s31.33-4.33,51.15-1.67c0,0-17.86-1.05-34.7,7.89,0,0,29.09-10.54,59.17-2.34A97,97,0,0,0,704.36,93s1.92-7,12.26-9.57c0,0-10.09-.26-14.17,6.38C702.45,89.85,685.6,86.86,649.47,94.1Z" style="fill: #be9f10;opacity: 0.6000000000000001;mix-blend-mode: multiply"/>
        <path d="M618.91,98s-23,9.74-16.25,16.65c0,0-8.24-10.16,39.78-20.53,0,0-22.83,4.2-22.33,1.11.36-2.26,14.09-7.86,27.15-11.37C612.26,91.8,609.87,99.3,618.91,98Z" style="fill: #be9f10;opacity: 0.6000000000000001;mix-blend-mode: multiply"/>
        <path d="M595,141.39s-5.7,13.22,15.22,11.69c-3,.16-20.26.5-9.43-13.57,0,0-13.19.51,1.83-10.09C602.66,129.42,585.51,138.62,595,141.39Z" style="fill: #be9f10;opacity: 0.6000000000000001;mix-blend-mode: multiply"/>
        <g>
          <g style="opacity: 0.33;mix-blend-mode: multiply">
            <polygon points="210.97 295.54 293.68 238.45 271.14 223.71 178.02 274.7 169.09 279.98 -6.83 248.02 0 382.45 88.92 377.54 93.77 374.06 214.02 363.3 256.92 332.66 469.96 328.45 210.97 295.54" style="fill: #837700"/>
          </g>
          <g style="opacity: 0.33;mix-blend-mode: multiply">
            <polygon points="149.68 212.4 134.36 200 37.85 221.14 53.17 242.28 149.68 212.4" style="fill: #837700"/>
          </g>
        </g>
        <path d="M803.81,260.91s-293,7.41-524-12.89l-28.66-13.37s-78.39,1.23-122.57-15.71l-28.12-11.13S50.08,210.06-4.42,200s-7.86,12.4-7.86,12.4,36.6-5.49,86.64,1.85l44.94,8.38s83.08,13.21,112.26,22.43l30,15.54s464.86,8.16,567,27.21L259.89,269.14,863.3,300.06l-5.11,15.17s-375.39,4.58-616.79-40.7l-31-16.17L90.79,231l-27.37-9.85L-10.4,217l6,5.42,54.36,3.77-6.22,3.07-50.55-3.07v3.07l66.38,4.19H86.33l36.78,10.6s49.8,8.65,76.87,18.63L233.51,280s352.77,59.84,609.36,44.39S803.81,260.91,803.81,260.91Z" style="opacity: 0.14;mix-blend-mode: multiply;fill: url(#Áåçûìÿííûé_ãðàäèåíò_276-5)"/>
        <path d="M247.56,123.49c-13.88.23-12.09-5.82,10.89-7s17.61,3.72,5.48,4.48c0,0,26.94-.78,47.37-4.48S327.13,99,327.13,99L293.17,88,254.36,92.7l-40.08,21.93-15.58,11,22.47,3.25Z" style="fill: #28230c"/>
        <path d="M189.26,400s112.68-17.55,260.42-53c0,0,32-28.59,42.21-40.51,0,0-3.4-1-17.36,1.7,0,0,10.9-5.1,20.43-4.76,0,0-5.11-3.41-14.64-4.09,0,0,12.94-1.7,19.4,2.73,0,0,1-6.81,5.79-10.56,0,0-1.7,4.77-1.7,7.83L800,254.79V400Z" style="fill: #5e5102"/>
        <path d="M219.89,400S348.6,391.83,466,353.69l43-39s227.59-36.4,302.4-54.52-3.25,5.5-3.25,5.5-234.45,44.11-284.5,55.95L479.14,359S349.6,389.24,300.32,403L327.57,400s93.7-25.14,165.27-35.41l36.76-40.22,241.27-47.8L536,327.39l-38.54,39.07s-99.34,14.45-159.09,37.43S219.89,400,219.89,400Z" style="opacity: 0.14;mix-blend-mode: multiply;fill: url(#Áåçûìÿííûé_ãðàäèåíò_305)"/>
        <g style="opacity: 0.65;mix-blend-mode: multiply">
          <polygon points="-6.83 248.02 169.09 279.98 247.47 318.62 469.96 328.45 256.92 332.66 214.02 363.3 93.77 374.06 88.92 377.54 0 382.45 -6.83 248.02" style="fill: #837700"/>
        </g>
        <path d="M159.92,131.23s39.55-2.18,51.8-2.38,40.27,9.41,60.48,7.67S322.32,101,322.32,101L320,99.72s-26.13,28.34-45.49,30.43S287,94.1,287,94.1h-3.8s-20.42,26.81-19.4,36.05c0,0-23,.59-29.11-25.21h-3.14s1.2,23.54,22.55,27.29c0,0-17,1.34-32.17-15.36S159.92,131.23,159.92,131.23Z" style="fill: #1e0f13"/>
        <path d="M70.24,72.9c-21.41-.41,26.59-7.2,26.59-7.2S45.18,62.28,70.24,53.6s107.32-3.33,63.59,4.1c0,0,91.15-4.35,90.15,8s-47,13.4-47,13.4,55.13,4.51,95.2-5.59c0,0-35.4-6.31-5-11.06S356.89,81.27,287,71c0,0,44.25,14.3,70.81,5.61S442,54.62,386.87,40.32L331.72,26,196.4,13.77l-68.93-1L37.09,28.57,7,42.87l8.68,26.56,32.17,6.63Z" style="fill: #28230c"/>
        <path d="M0,277.51l4.4-5.7s14.3-18.47,71.83,2.85l-2.72,2.85s23.83-.94,26.89,19.15c2.21,14.47,7.87,51,10.86,70.29a12.5,12.5,0,0,0,14.27,10.44l96.41-14.86s-75.83,3.32-88.09-2.81-12.76-53.36-17.11-73l2.05-4.08S117.7,272.15,111,267.3l62,4-10.23-6.89-9.7-1.17-3.32-4.31s-48-2.07-61.28-17.64l71,7.91-7.15-5.36-11.74-2.55-6.64-4.09s-18.13-2.3-32.42-9.19-24.26-13.07-13.54-28,27.58-34.32,27.58-34.32h3.83s-.26-11.49,15.32-17.87S180.4,126.45,202.87,104s14-5.45,41.53-24.51,81.37-16.34,108.26-16,71.15-22.81,71.15-22.81-52.09,24-71.15,20S387,17.51,387,17.51s-35.42,24.3-38.81,35.06-28.59,0-69.1,7.49c0,0,21.78-18.72,37.78-29.95S331.55-4.28,331.55-4.28L327.47-.87s6.47,20.08-12.94,28.25S301.6-1.89,301.6-1.89s-9.59,24.78-.69,31-33.7,33.36-33.7,33.36S253.6,64.15,239.3,74.7c0,0,10.55-9.53,16.34-48.68l-2.3-2.3S252.06,60.23,235.21,75l-9.7,4.34S244.66,56.66,249,22.45l-3.83-5.62s1.53,47.23-27.83,65.36S205.19,84,211.9,73.26A42.71,42.71,0,0,0,218.11,51l2.55-3.57s4.08-18.9,15.83-30.64-8.17-13-8.17-13-11.49,16.85-18.38,43.4-21.71,34-20.94,42.9-53.36,36.51-67.91,41.61S122.36,93.43,127,87.3s22.72-23.75,41.87-33.45S197.17,5.09,197.17,5.09l-4.08-.52s-11.75,34-24,40.34c0,0,4.59-10.21,3.57-27.57L167.3,12s8.93,22.89-2.56,35.15S140,59,127.72,73.77L150.45,14l-5.11-3.83S126.7,59,121.34,73.26s-7.66,23.23-7.66,23.23S109.6,87.3,93.77,79.38,76.4,38.28,77.68,12.23l-3.83-1.78s-5.11,31.91,3.58,53.36c0,0-13.15,1.41-20.55-8s-3.45-33.59-3.45-33.59l-2,.51s-3.32,23.24,2.56,31.66c0,0-18.39-1-19.66-14.81L28.91,39s-1.78,11.75,12.52,16.6S63.13,70.9,73.34,69.17s5.87,11,18.64,17.11,17.62,13.78,15.57,23-10.21,23.23-9.19,31.91c0,0-4.85-.26-7.91,9.7s-38.3,49.28-38.3,49.28l.25,2.55s-18.63,14.81-25.27,28.85S3.38,245.34-2.74,253.26,0,277.51,0,277.51Z" style="fill: url(#Áåçûìÿííûé_ãðàäèåíò_302)"/>
        <path d="M106.19,319.81c-4.76-34-12.42-35.7-12.42-35.7a20.19,20.19,0,0,1,6.63,12.55c2.21,14.47,7.87,51,10.86,70.29a12.5,12.5,0,0,0,14.27,10.44l96.41-14.86s-75.83,3.32-88.09-2.81c-4.82-2.41-7.82-11.18-10-22.14C127.23,361,111,353.82,106.19,319.81Z" style="opacity: 0.36;mix-blend-mode: multiply;fill: url(#Áåçûìÿííûé_ãðàäèåíò_174)"/>
        <path d="M26.36,45.43s118-40.34,264-9.71a81.75,81.75,0,0,0-21.19-8.42s29.87-.51,46.72,9.19l-15.83,2s44.85,2.31,58.26,21.8S287,71,287,71s40.51,18.38,79,18.72,19.74-11.23,19.74-11.23S408.49,90,435.89,87.64s28.77-15,17.19-19.75c0,0,32,2.73,17.71-2.38,0,0,44.25-1,31-16.68,0,0,38.8-32.61,10.55-54.95S36.4-23.68-2.74,12.06-55.51,84.57-16.53,87.3s95.6-11.24,95.6-11.24S26.53,71.3,62.62,64.83c0,0-66-9.53-28.94-14.3Z" style="fill: url(#Áåçûìÿííûé_ãðàäèåíò_295)"/>
        <polygon points="120.83 377.34 142.28 401.85 172.57 401.85 196.4 387.55 191.98 371.55 147.38 351.81 123.55 369.85 120.83 377.34" style="fill: url(#Áåçûìÿííûé_ãðàäèåíò_132)"/>
        <g style="opacity: 0.76">
          <path d="M502.15,297l1,3.87,20.59-2.86,98.81-11.6,32.82-9.88L503.81,299.38c0-3.06,1.7-7.83,1.7-7.83-4.77,3.75-5.79,10.56-5.79,10.56-6.46-4.43-19.4-2.73-19.4-2.73,9.53.68,14.64,4.09,14.64,4.09-9.53-.34-20.43,4.76-20.43,4.76,14-2.72,17.36-1.7,17.36-1.7l7.15,3.38-7.74-5.46,8.34.12Z" style="fill: #e4c30f"/>
        </g>
        <g style="opacity: 0.76">
          <path d="M192.66,399.46l-.85.54,264.7-50.18L449.68,347C316.9,378.86,212.45,396.26,192.66,399.46Z" style="fill: #e4c30f"/>
        </g>
        <polygon points="123.55 369.85 146.7 362.75 170.87 379.04 172.57 401.85 142.28 401.85 120.83 377.34 123.55 369.85" style="fill: #856b3b;opacity: 0.36;mix-blend-mode: multiply"/>
        <path d="M700.87,167.93c1.75,2.08,3.1,3.75,3.81,4.77a14.82,14.82,0,0,1,1.59,4.77c6.39,9.2,8.16,2,8.6-4.39-.13-1.06-.25-2-.34-2.7a101,101,0,0,0-2.06-10C714.51,178.81,706.55,173.63,700.87,167.93Z" style="opacity: 0.36;mix-blend-mode: multiply;fill: url(#Áåçûìÿííûé_ãðàäèåíò_174-2)"/>
        <path d="M758.24,174.11a26.41,26.41,0,0,1,.21-3.05,76.65,76.65,0,0,1,3.44-12.75,19.3,19.3,0,0,0-1.71,4.05c-6.85,22.21-11.27,6.6-11.27,6.6h-3.06C751.67,187.87,758.24,174.11,758.24,174.11Z" style="opacity: 0.36;mix-blend-mode: multiply;fill: url(#Áåçûìÿííûé_ãðàäèåíò_174-3)"/>
        <path d="M747.47,228.21c-6,24.49,8.93,13,8.93,13,0-.73,1.33-1.42,2.73-3.8C749.89,247.82,747.47,228.21,747.47,228.21Z" style="opacity: 0.36;mix-blend-mode: multiply;fill: url(#Áåçûìÿííûé_ãðàäèåíò_174-4)"/>
        <path d="M711.73,241.93a46.51,46.51,0,0,1-.6,8.45c-1.37,6.53-50,12.64-50,12.64s47.59-4.36,52.68-4,0,5.08,0,5.08,11.91-.87,8.85-7.14c0,0,9.19-.39,12.94,6,0,0,3.74,5.88,7.49,0l7.23-9.29a13.63,13.63,0,0,1-6.06-1c-4.33-2.07-1.13-11.7-.22-14.18a95.42,95.42,0,0,1-4.4,9.9,50.49,50.49,0,0,1-8-8.36C743.4,259.06,711.35,249.06,711.73,241.93Z" style="opacity: 0.36;mix-blend-mode: multiply;fill: url(#Áåçûìÿííûé_ãðàäèåíò_174-5)"/>
        <path d="M709.25,203.48c.06.8.12,1.6.17,2.39,8,21.63,11.07,16,12.16,11.52-.23-1-.45-2.06-.67-3.14C717.7,224.82,712.18,211.86,709.25,203.48Z" style="opacity: 0.36;mix-blend-mode: multiply;fill: url(#Áåçûìÿííûé_ãðàäèåíò_174-6)"/>
        <path d="M710.5,225.87l.63,1.7c13.3,14.38,15.66,10,15.7,5.17-.61-1.12-1.2-2.27-1.74-3.49a42,42,0,0,1-1.81-5.13C723.64,240.12,710.5,225.87,710.5,225.87Z" style="opacity: 0.36;mix-blend-mode: multiply;fill: url(#Áåçûìÿííûé_ãðàäèåíò_174-7)"/>
        <path d="M761.5,205.83c-.35-3.9-.75-7.45-1.14-10.69.52,20.34-6,11.65-10.08,4.35.07,1.2.12,2.39.15,3.59C756.46,218.27,760,211.28,761.5,205.83Z" style="opacity: 0.36;mix-blend-mode: multiply;fill: url(#Áåçûìÿííûé_ãðàäèåíò_174-8)"/>
        <polygon points="189.25 366.11 243.38 379.72 264.15 368.15 264.15 357.94 259.38 354.19 273.68 343.3 312.83 346.02 330.53 337.51 313.51 304.83 291.04 298.31 281.17 304.83 266.53 304.83 242.36 279.98 226.36 279.98 195.38 311.3 189.25 366.11" style="fill: url(#Áåçûìÿííûé_ãðàäèåíò_132-2)"/>
        <polygon points="195.38 311.3 223.98 306.87 236.91 323.4 243.38 379.72 189.25 366.11 195.38 311.3" style="fill: #856b3b;opacity: 0.36;mix-blend-mode: multiply"/>
        <polygon points="538.02 382.96 548.75 333.43 799.81 279.98 800 400 344.49 400 538.02 382.96" style="fill: #be9f10;opacity: 0.31;mix-blend-mode: multiply"/>
        <polygon points="538.02 382.96 344.49 400 800 400 799.81 279.98 609.34 300.06 597.94 293.91 548.23 293.91 523.72 298.05 558.18 331.42 548.75 333.43 538.02 382.96" style="fill: #be9f10;opacity: 0.63;mix-blend-mode: multiply"/>
        <polygon points="259.38 354.19 254.96 326.62 231.56 298.31 258.02 323.4 265.17 315.55 265.17 308.57 282.19 308.57 282.19 315.55 305.34 320.83 312.83 346.02 273.68 343.3 259.38 354.19" style="fill: #856b3b;opacity: 0.36;mix-blend-mode: multiply"/>
        <circle cx="561.52" cy="193.26" r="105.02" style="mix-blend-mode: color-dodge;fill: url(#Áåçûìÿííûé_ãðàäèåíò_128)"/>
        <polygon points="523.72 298.05 543.13 311.16 562.53 304.61 562.53 298.05 597.94 293.91 588.75 281.29 587.04 269.12 553 269.12 529.85 279.67 523.72 298.05" style="fill: url(#Áåçûìÿííûé_ãðàäèåíò_132-3)"/>
        <polygon points="609.34 300.06 631.81 307.38 688.32 300.06 705.34 305.51 756.67 289.16 768.32 290.14 794.19 284.06 787.26 256.7 781.94 254.2 778.19 248.02 742.77 252.94 738.7 259.21 724.07 252.34 673.34 258.19 650.53 253.43 630.79 274.53 626.02 274.19 609.34 300.06" style="fill: url(#Áåçûìÿííûé_ãðàäèåíò_132-4)"/>
        <polygon points="543.13 311.16 548.23 293.91 534.62 281.48 549.94 290.14 556.06 279.67 567.98 279.67 565.94 287.5 582.62 281.48 587.04 269.12 588.75 281.29 597.94 293.91 562.53 298.05 562.53 304.61 543.13 311.16" style="fill: #856b3b;opacity: 0.36;mix-blend-mode: multiply"/>
        <polygon points="631.81 307.38 649.51 279.98 628.06 277.51 651.55 277.25 663.81 261.25 677.42 261.25 685.25 279.98 700.23 281.68 709.42 265.34 740.75 261.25 765.94 271.47 743.13 257.17 770.02 261.25 778.19 248.02 781.94 254.2 787.26 256.7 794.19 284.06 768.32 290.14 756.67 289.16 705.34 305.51 688.32 300.06 631.81 307.38" style="fill: #856b3b;opacity: 0.36;mix-blend-mode: multiply"/>
        <circle cx="512.23" cy="160.41" r="55.47" transform="translate(36.6 409.19) rotate(-45)" style="opacity: 0.21;mix-blend-mode: screen;fill: url(#Áåçûìÿííûé_ãðàäèåíò_160)"/>
        <circle cx="534.62" cy="166.94" r="55.47" style="opacity: 0.8200000000000001;mix-blend-mode: screen;fill: url(#Áåçûìÿííûé_ãðàäèåíò_166)"/>
        <path d="M374.62,71.47s102.48,10.21,61.45-14.3c0,0,94.43,12.72,54.78-10.75,0,0,35.9-41.88-114.19-53.08S47.81-24-6.83,24.49s11,62.28,61.65,56.41c18.79-3.38,24.25-4.84,24.25-4.84S26.53,71.3,62.62,64.83c0,0-66-9.53-28.94-14.3l-7.32-5.1s118-40.34,264-9.71a81.75,81.75,0,0,0-21.19-8.42s29.87-.51,46.72,9.19l-15.83,2s44.85,2.31,58.26,21.8S287,71,287,71a251.08,251.08,0,0,0,53.37,16.2C381.42,88.87,390.92,82.61,374.62,71.47Z" style="fill: #be9f10;opacity: 0.6000000000000001;mix-blend-mode: multiply"/>
        <path d="M80,20.4s97-12.25,173.36,3.32c0,0-10.64-5.19-33.11-11,0,0,60.1-12.9,99.75,18.73,0,0-30.3-36.87-115.41-21.33C204.57,10.14,147.72,6.62,80,20.4Z" style="fill: #be9f10;opacity: 0.6000000000000001;mix-blend-mode: multiply"/>
        <path d="M490.85,46.42S523.71,8.08,395.08-5C500,11.64,479.14,46.42,479.14,46.42c48.1,15.3-43.07,10.75-43.07,10.75S530.5,69.89,490.85,46.42Z" style="fill: #be9f10;opacity: 0.6000000000000001;mix-blend-mode: multiply"/>
        <g style="mix-blend-mode: color-dodge">
          <path d="M387.74,80c-1.39-.64-2.76-1.32-4.1-2.06,0,0,14.84,9.63-13.08,11.72C395.06,89.2,391.08,83,387.74,80Z" style="fill: #99810a"/>
        </g>
        <g style="mix-blend-mode: color-dodge">
          <path d="M501.77,48.83s35.48-29.83,13.87-52C507.75-1.58,500.57,0,500.57,0S539,10.36,501.77,48.83Z" style="fill: #99810a"/>
        </g>
        <g style="mix-blend-mode: color-dodge">
          <path d="M467.55,64.83s11.75,4.43-17,2.21c0,0,7.87,3.58,6,10.9-1.32,5.1-21.64,11.1-44,8.69a93.68,93.68,0,0,0,23.35,1c27.41-2.38,28.77-15,17.19-19.75,0,0,32,2.73,17.71-2.38,0,0,44.22-1,31-16.67C502.18,49.35,513,63.49,467.55,64.83Z" style="fill: #99810a"/>
        </g>
        <path d="M58.87,219.38c-9.71-1.71-6.47-16.68-6.47-16.68s-14.46,19.35,1.2,19.92,30.12-14.26,30.12-14.26A24.27,24.27,0,0,1,87.89,200l2.19-3C82.85,204.76,70.15,221.37,58.87,219.38Z" style="opacity: 0.36;mix-blend-mode: multiply;fill: url(#Áåçûìÿííûé_ãðàäèåíò_174-9)"/>
        <path d="M107.3,110.3c-2.15,8.23-8.39,19.77-9,28.11a16.85,16.85,0,0,1,0,2.76c-3.06,32.94,17.11,24.51,17.11,24.51h3.83C90.08,158.11,102.28,128.15,107.3,110.3Z" style="opacity: 0.36;mix-blend-mode: multiply;fill: url(#Áåçûìÿííûé_ãðàäèåíò_174-10)"/>
        <path d="M102.7,277.51c-5.61-7.66-24.25-4.34-24.25-4.34s5.36-11.74-20.17-12.26S22.57,238,31,225a46.45,46.45,0,0,0-3.88,6.59,21.62,21.62,0,0,1-3,4.69c-1.83,8-.68,13-15.4,15.48C.66,253.07-2.93,259-4.42,265.25A48.88,48.88,0,0,0,0,277.51l4.4-5.7s14.3-18.47,71.83,2.85l-2.72,2.85s24.81-3.27,30.3,3.49c8.57,10.55,12.93,5.7,12.93,5.7l2.05-4.08C113.68,285.94,108.32,285.17,102.7,277.51Z" style="opacity: 0.36;mix-blend-mode: multiply;fill: url(#Áåçûìÿííûé_ãðàäèåíò_174-11)"/>
        <path d="M118.79,243c-15.66-.25-36.77-21.9-36.77-21.9s-1.36,12.2,6.38,20.12l37.52,4.18c12.9,1.44,14.57-4.18,14.57-4.18l-6.64-4.09S134.45,243.3,118.79,243Z" style="opacity: 0.36;mix-blend-mode: multiply;fill: url(#Áåçûìÿííûé_ãðàäèåíò_174-12)"/>
        <path d="M114.7,264.32c-14.81-7.49-24.85-12.26-24.85-12.26s12.62,7.32,21.12,15.24l28.64,1.84c6-1.52,11.08-3.72,13.39-5.93l-3.06-4-.47-.25C147.19,260,128.7,271.4,114.7,264.32Z" style="opacity: 0.36;mix-blend-mode: multiply;fill: url(#Áåçûìÿííûé_ãðàäèåíò_174-13)"/>
        <path d="M172.85,105.11l-.9.58c15.8-3.37,6.84,12.4-.79,23.16q2.31-1.45,4.63-3C187.81,104.57,182.52,102.43,172.85,105.11Z" style="opacity: 0.36;mix-blend-mode: multiply;fill: url(#Áåçûìÿííûé_ãðàäèåíò_174-14)"/>
        <path d="M134.62,147.81c4.92-2,11.32-4.9,18.46-8.61,22.16-24.43,16.36-28.22,6.69-26.27-4.45,2.5-9,4.95-13.46,7.22C171.52,111.9,145.57,142.94,134.62,147.81Z" style="opacity: 0.36;mix-blend-mode: multiply;fill: url(#Áåçûìÿííûé_ãðàäèåíò_174-15)"/>
        <path d="M89.45,153.19a64.33,64.33,0,0,1-4.24,6.74c-5.5,14.94-7,37.67,8.56,32l.17,0c1.35-1.75,2.73-3.51,4.1-5.24C72.3,190.87,86.76,158.77,89.45,153.19Z" style="opacity: 0.36;mix-blend-mode: multiply;fill: url(#Áåçûìÿííûé_ãðàäèåíò_174-16)"/>
        <g style="opacity: 0.25;mix-blend-mode: screen">
          <path d="M89.45,153.19c-2.69,5.58-17.15,37.68,8.59,33.49l2.08-2.59C72.43,189.31,89.44,153.19,89.45,153.19Z" style="fill: url(#Áåçûìÿííûé_ãðàäèåíò_189)"/>
        </g>
        <g style="opacity: 0.25;mix-blend-mode: screen">
          <path d="M58.87,219.38c11.28,2,24-14.62,31.21-22.38l.71-.94s-20.34,20.6-30.22,18.73c-4.79-.91-7.09-6.7-8.2-12.41l0,.32S49.16,217.67,58.87,219.38Z" style="fill: url(#Áåçûìÿííûé_ãðàäèåíò_189-2)"/>
        </g>
        <g style="opacity: 0.25;mix-blend-mode: screen">
          <path d="M106,114.89c-5.39,18-13.49,43.83,13.35,50.79a16.59,16.59,0,0,1,3.8-9.64C118.34,159.63,96.49,151.89,106,114.89Z" style="fill: url(#Áåçûìÿííûé_ãðàäèåíò_189-3)"/>
        </g>
        <g style="opacity: 0.25;mix-blend-mode: screen">
          <path d="M133.85,237.17s-18.13-2.3-32.42-9.19c-6-2.91-11.28-5.69-14.54-9,13.48,14.74,41,18.87,41,18.87-18.59,7-38.9-10.26-41.52-12.59,7,6.28,21.14,17.64,32.46,17.82C134.45,243.3,133.85,237.17,133.85,237.17Z" style="fill: url(#Áåçûìÿííûé_ãðàäèåíò_189-4)"/>
        </g>
        <g style="opacity: 0.25;mix-blend-mode: screen">
          <path d="M137.43,260.6c-10.48,4.09-21.27,2.7-28.91.61l6.18,3.11c14,7.08,32.49-4.35,34.77-5.33l-.17-.11c-4.2-.22-42.39-2.51-57.83-14.71C107.21,257.15,137.43,260.6,137.43,260.6Z" style="fill: url(#Áåçûìÿííûé_ãðàäèåíò_189-5)"/>
        </g>
        <path d="M548.74,333.43l-56.85-26.9s-13.56,14-18.14,18.34c-6,5.73-24.07,22.17-24.07,22.17L538,383Z" style="fill: #be9f10;opacity: 0.29;mix-blend-mode: multiply"/>
        <polygon points="523.72 298.05 531.72 282.7 548.23 293.91 534.62 281.48 552.15 272.32 555.55 277.7 568.49 276.57 566.28 270.79 582.62 281.48 587.04 269.12 553 269.12 529.85 279.67 523.72 298.05" style="fill: #b08d4e;opacity: 0.39;mix-blend-mode: color-dodge"/>
        <polygon points="609.34 300.06 624.66 280.83 649.51 279.98 628.06 277.51 631.47 275.55 660.75 259.72 675.72 259.72 677.42 261.25 700.23 281.68 709.42 265.34 688.66 259.72 722.02 254.79 740.75 261.25 756.37 265.47 743.13 257.17 745 254.79 772.73 256.86 778.19 248.02 742.77 252.94 738.7 259.21 724.07 252.34 673.34 258.19 650.53 253.43 630.79 274.53 626.02 274.19 609.34 300.06" style="fill: #b08d4e;opacity: 0.39;mix-blend-mode: color-dodge"/>
        <path d="M523.72,403l104.34-34.88-66.54-14.38L632,364.06l-59.55-14.29L635,361.51l11.75-24,157-39.24,4.41,1.79s-130.79,29.79-145.6,37.45,145.6-16.34,145.6-16.34L828.06,340l-238,68.5Z" style="fill: #be9f10;opacity: 0.63;mix-blend-mode: multiply"/>
        <polygon points="330.53 337.51 312.83 316.06 306.36 319.3 312.83 306.53 296.83 303.08 283.21 308.57 280.92 306.53 265.17 306.87 234.02 297.51 237.77 286.62 223.3 287.85 210.53 299.72 225.68 305.34 254.96 326.62 244.91 368.75 238.62 323.38 223.98 306.87 206.73 299.83 226.36 279.98 242.36 279.98 266.53 304.83 281.17 304.83 291.04 298.31 313.51 304.83 330.53 337.51" style="fill: #b08d4e;opacity: 0.39;mix-blend-mode: color-dodge"/>
        <polygon points="196.4 387.55 186.19 377.68 172.57 379.3 188.23 372.23 159.98 361.68 147.89 361.68 147.38 351.81 191.98 371.55 196.4 387.55" style="fill: #b08d4e;opacity: 0.39;mix-blend-mode: color-dodge"/>
        <g style="opacity: 0.33;mix-blend-mode: multiply">
          <polygon points="67.18 307.38 44.23 305.17 35.38 287.85 0 281.92 0 284.11 26.53 287.85 37.85 306.53 57.19 307.38 93.77 374.06 113.73 372.27 93.77 366.79 67.18 307.38" style="fill: #837700"/>
        </g>
        <g style="opacity: 0.33;mix-blend-mode: multiply">
          <polygon points="88.92 377.54 43.98 337.51 13.09 340.38 35.55 310.7 12.83 334.7 0 298.31 0 382.45 88.92 377.54" style="fill: #837700"/>
        </g>
        <polygon points="570.39 402.95 635.04 368.75 647.3 349.77 808.22 333.2 803.81 402.95 570.39 402.95" style="fill: #574801"/>
        <polygon points="647.3 349.77 778.19 376.83 814.96 368.75 814.19 411.55 570.39 402.95 635.04 368.75 647.3 349.77" style="fill: #be9f10;opacity: 0.29;mix-blend-mode: multiply"/>
        <polygon points="814.96 368.75 778.19 376.83 697.26 387.55 642.44 376.83 692.67 392.4 649.07 405.73 820.48 418.45 814.96 368.75" style="fill: #be9f10;opacity: 0.29;mix-blend-mode: multiply"/>
        <g style="opacity: 0.25;mix-blend-mode: screen">
          <path d="M110.09,286.73c5.43,3.37,9,19.83,10.93,31.65-1.46-12-2.57-24-4.28-31.68C116.74,286.7,114.51,289.18,110.09,286.73Z" style="fill: url(#Áåçûìÿííûé_ãðàäèåíò_189-6)"/>
        </g>
        <g style="opacity: 0.25;mix-blend-mode: screen">
          <path d="M102.7,277.51c5.62,7.66,11,8.43,16.09,5.11,0,0-1.09-10.47-7.82-15.32a109.55,109.55,0,0,0-12.51-9.75c14.45,10.09,17,22.43,17,22.43s-5.62,3.4-13.15-4.26-20.39-3-20.39-3C87.6,272.18,98.61,271.93,102.7,277.51Z" style="fill: url(#Áåçûìÿííûé_ãðàäèåíò_189-7)"/>
        </g>
        <path d="M223.52,100.58c8.58-.8-7.22-13.38,25.31-17.28,0,0-20.1-13.79,9.31-20.95,0,0-6.36-8,20.71-7.23s44.61-10.84,41.35,2.81c0,0,18.14,3.29,9,14.35,0,0,28.51,8.14,13,23.26,0,0,31.34-5.34,27.51,13.54S263.93,121,263.93,121s30.57-3.68,45.37-12-47.08-11.26-66.63-3.54S260,112.59,260,112.59s-38.32,2.2-37.64,8,27.87,1.62,27.87,1.62-37.93,18.94-61.91,9S178.26,104.77,223.52,100.58Z" style="fill: #5b4e02"/>
        <path d="M347.21,108.41c9-7-24.89-9.54-24.89-9.54s27.45-18.55-3.53-23.15c0,0,17.87-14.81-1.7-15.83s-26-4-42.15-4.82c-22.5.06-16.8,7.28-16.8,7.28-29.41,7.16-9.31,20.95-9.31,20.95-32.53,3.9-16.73,16.48-25.31,17.28-3.27.3-6.36.68-9.31,1.1a7.16,7.16,0,0,1-1.1.17q-3.5.53-6.68,1.16c-15.64,1.19-38.48,13.28-26.79,23,15,12.45,32.15,6.85,39.27,6.66a135.54,135.54,0,0,0,31.31-10.43s-27.18,4.22-27.87-1.62,37.64-8,37.64-8-36.86.58-17.32-7.15,81.44-4.81,66.63,3.54-45.37,12-45.37,12,2,.14,5.36.32C310.28,123.55,338.19,115.39,347.21,108.41Z" style="fill: #be9f10;opacity: 0.6000000000000001;mix-blend-mode: multiply"/>
        <g style="mix-blend-mode: color-dodge">
          <path d="M369.65,109.08c3.83-18.88-27.51-13.54-27.51-13.54,15.54-15.12-13-23.26-13-23.26,9.17-11.06-9-14.35-9-14.35,19.28,5.52,6.08,14.56,6.08,14.56C360.66,83.38,337.85,98,337.85,98c35.06-.55,34.55,18.93,1,22.76C355.34,119,368.33,115.59,369.65,109.08Z" style="fill: #99810a"/>
        </g>
        <path d="M322.32,98.87s27.45-18.55-3.53-23.15c0,0,15.85-13.14,1.31-15.51,8.06,2.76,5.87,8.1-.29,11.94-9,5.62-23.83,5.79-23.83,5.79,66.21,4.39,18,23.66,18,23.66s38.65,4.81,28.2,9.83a30.4,30.4,0,0,0,5-3C356.23,101.43,322.32,98.87,322.32,98.87Z" style="fill: #be9f10;opacity: 0.6000000000000001;mix-blend-mode: multiply"/>
        <path d="M307,99.38S293.47,83.2,253.6,83.8c0,0,10.21-17.1,36.93-8.59,0,0-16.66-4.93-27.39,5.79C263.14,81,291.45,81,307,99.38Z" style="fill: #be9f10;opacity: 0.6000000000000001;mix-blend-mode: multiply"/>
        <path d="M428.23,52.73s8.85-30.34-96.68-40.61C331.55,12.12,447.64,14.08,428.23,52.73Z" style="fill: #be9f10;opacity: 0.6000000000000001;mix-blend-mode: multiply"/>
        <g style="opacity: 0.22;mix-blend-mode: multiply">
          <path d="M370,343.3c-.21-6.44,39.32-11,47.24-3.31S370.28,351.13,370,343.3Z" style="fill: #ba4122"/>
        </g>
        <g style="opacity: 0.22;mix-blend-mode: multiply">
          <path d="M420.32,337.51c-2.82-5.63,23.49-5.11,29.36,0S422.62,342.11,420.32,337.51Z" style="fill: #ba4122"/>
        </g>
        <g style="opacity: 0.22;mix-blend-mode: multiply">
          <path d="M318.19,359c1.29-5.19,26-3.78,30.38,0S316.66,365.19,318.19,359Z" style="fill: #ba4122"/>
        </g>
        <g style="opacity: 0.22;mix-blend-mode: multiply">
          <path d="M342.7,341.15c-1.86-1.91,12.26-.7,13,0S345,343.52,342.7,341.15Z" style="fill: #ba4122"/>
        </g>
        <g style="opacity: 0.22;mix-blend-mode: multiply">
          <path d="M346.75,355.53c-1.86-1.91,12.26-.7,13,0S349.05,357.89,346.75,355.53Z" style="fill: #ba4122"/>
        </g>
        <g style="opacity: 0.22;mix-blend-mode: multiply">
          <path d="M420.68,344c-1.86-1.91,12.26-.7,13,0S423,346.36,420.68,344Z" style="fill: #ba4122"/>
        </g>
        <g style="opacity: 0.22;mix-blend-mode: multiply">
          <path d="M46.15,390.24c-.21-6.44,39.32-11,47.23-3.31S46.41,398.07,46.15,390.24Z" style="fill: #ba4122"/>
        </g>
        <g style="opacity: 0.22;mix-blend-mode: multiply">
          <path d="M96.45,384.45c-2.82-5.63,23.49-5.1,29.36,0S98.75,389.05,96.45,384.45Z" style="fill: #ba4122"/>
        </g>
        <g style="opacity: 0.22;mix-blend-mode: multiply">
          <path d="M96.81,390.94c-1.86-1.91,12.26-.7,13,0S99.11,393.3,96.81,390.94Z" style="fill: #ba4122"/>
        </g>
        <polygon points="219.89 311.16 201 330.83 227.55 373.52 209.45 337.51 231.56 326.25 206.73 330.83 219.89 311.16" style="fill: #856b3b;opacity: 0.15;mix-blend-mode: multiply"/>
        <polygon points="268.63 319.55 273.68 343.3 259.38 354.19 254.96 326.62 268.63 319.55" style="fill: #856b3b;opacity: 0.15;mix-blend-mode: multiply"/>
        <polygon points="142.28 401.85 155.04 387.55 168.37 380.42 155.32 382.96 146.7 368.07 147.38 384.96 142.28 401.85" style="fill: #856b3b;opacity: 0.15;mix-blend-mode: multiply"/>
        <polygon points="655.35 301.57 672.11 274.04 672.11 287.26 685.25 279.98 700.23 281.68 705.76 301.57 745.85 269.12 755.04 278.79 765.94 271.47 768.32 290.14 756.67 289.16 744.64 274.04 705.34 305.51 688.32 300.06 671.59 298.05 655.35 301.57" style="fill: #856b3b;opacity: 0.15;mix-blend-mode: multiply"/>
        <polygon points="562.53 298.05 565.94 287.5 595.14 292.77 562.53 298.05" style="fill: #856b3b;opacity: 0.15;mix-blend-mode: multiply"/>
        <polygon points="679.64 388.36 673.78 386.55 632.49 403.21 613.42 406.62 666.54 384.3 662.2 382.96 591.64 403.21 593.34 418.45 649.07 405.73 679.64 388.36 679.64 388.36" style="opacity: 0.14;mix-blend-mode: multiply;fill: url(#Áåçûìÿííûé_ãðàäèåíò_306)"/>
        <polygon points="692.67 359.15 819.04 347.04 814.96 341.15 685.38 357.64 663.96 381.04 668.92 382.01 692.67 359.15" style="opacity: 0.14;mix-blend-mode: multiply;fill: url(#Áåçûìÿííûé_ãðàäèåíò_305-2)"/>
        <polygon points="830.96 356.23 830.96 353.69 700.87 360.84 678.79 382.96 677.71 383.73 683.16 384.79 705.76 361.86 830.96 356.23" style="opacity: 0.14;mix-blend-mode: multiply;fill: url(#Áåçûìÿííûé_ãðàäèåíò_305-3)"/>
        <path d="M-12.28,163.38l-10.89-3S4.92,156.49,18.45,158s6.52,3.71-1.28,5.36c0,0,11.83.51,18,2.73,0,0-6.47-3-5.27-4.22s18.38-1.66,20.68-1-1.45,1-1.45,1,10.13.47,12.17,1.07c0,0-4.51-1.27-1.79-2.55s17.46,5.36,8.65,4.5c0,0,4,.57,5.65,1.74,0,0,.26-.37-.68-1,0,0,5,0,.71-3.83,0,0,13.76-13.91-6.92-23.38s-25.45-.95-23.41,1.81c0,0-9.27-1.75-13.1.46s.59,4.43.59,4.43-9.87,2.3-7.66,4.68l-4-.35s6.2-5.77-3-8.11-13.61-1.67-13.61-1.67,3.91-3.57-4.85-2.29S-25.76,140-22,144.57C-22,144.57-47.16,164.72-12.28,163.38Z" style="fill: url(#Áåçûìÿííûé_ãðàäèåíò_331)"/>
        <path d="M187.57,190.49c-10.28-2.09-4.09-4.78,4.08-6,0,0-10.66-1.33-4.79-4.44s39.51-7.49,33.56-3.07l4.26.85s-3.41-1.88,4.76-2.73,39.77.78,23.83,3.42c0,0,27.68,2.75,10.18,6,0,0,18.59-2,.55-7.85,0,0,14.22-6.29-.55-12.59,0,0,9.73-12.51-20.57-10.59s-19.57,7-19.57,7-36.87-5.1-32.48,4.77c0,0-23,3.4-11.09,13.45,0,0-6.92.58-7.72,6S187.57,190.49,187.57,190.49Z" style="fill: #957f09"/>
        <path d="M191.65,184.5s-10.66-1.33-4.79-4.44,39.51-7.49,33.56-3.07l4.26.85s-3.41-1.88,4.76-2.73,39.77.78,23.83,3.42c0,0,14.83,1.47,15.91,3.53-.29-2-2.53-4.23-9.71-5.78,0,0,16.71-9.11-2.94-13.81,0,0,.64-7.89-18.13-7.83s-17.1,5.93-11.61,7c0,0-37.23-6.26-33,4.21,0,0-24.85,2.3-12.6,13.28,0,0-13.81,5.29-6.27,9.2.28.12.57.24.87.35a50.93,50.93,0,0,0,7.44,1.54c2.44.27,4.32.31,4.32.31C177.29,188.4,183.48,185.71,191.65,184.5Z" style="fill: #be9f10;opacity: 0.39;mix-blend-mode: multiply"/>
        <path d="M193.81,173.11s24-6.1,30,0c0,0,3.93-7.85,33.87,1,0,0-21.5-8.91-32.88-3.52,0,0,1.89-4.48,13.81-4.48,0,0-14-1.35-16.13,4C222.49,170.11,212.82,165.79,193.81,173.11Z" style="fill: #be9f10;opacity: 0.39;mix-blend-mode: multiply"/>
        <path d="M66.7,159.13s16.68-10.29.68-18.6-25.85-5.65-22.2.86c0,0-10-3.09-15.58,0-2.17,2,1.44,3.8,1.44,3.8s-9.87,2.3-7.66,4.68l-4-.35.37-.39c1.33-1.56,4.6-7.32-18.77-7.72,0,0,3.91-3.29-4.91-3.71-8.85,1.21-21.6,2.6-18.07,6.89,0,0-25.18,20.15,9.7,18.81l-10.89-3S4.92,156.49,18.45,158s6.52,3.71-1.28,5.36c0,0,11.83.51,18,2.73,0,0-6.47-3-5.27-4.22s18.38-1.66,20.68-1-1.45,1-1.45,1,10.13.47,12.17,1.07c0,0-4.51-1.27-1.79-2.55,2.32-1.09,13.31,3.54,11.14,4.43C73.51,164.57,72.15,161.68,66.7,159.13Z" style="fill: #be9f10;opacity: 0.39;mix-blend-mode: multiply"/>
        <path d="M63,157.51s-19.4-5.11-34.34,0c0,0,5.22-3.67-15.2-1.13,0,0,2.31-6.36-20.29-3.19,0,0,22.34-6.25,21.32,1.72,0,0,17.23-1.48,15.7.56,0,0,9.58-5-3.7-4.75,0,0,14-2.44,7.28,3.39,0,0,9.71-8.49,26.93-3.9,0,0-13.4-3.17-25.4,4.49C35.3,154.7,49.6,151.51,63,157.51Z" style="fill: #be9f10;opacity: 0.39;mix-blend-mode: multiply"/>
        <path d="M710.31,221.57c.13,2.68.19,4.3.19,4.3s13.14,14.25,12.78-1.73l-.29-1S724.65,238.05,710.31,221.57Z" style="opacity: 0.25;mix-blend-mode: screen;fill: url(#Áåçûìÿííûé_ãðàäèåíò_392)"/>
        <path d="M758.26,167.79c-7.45,12.1-10.6-8.49-10.89-10.54,1,7.08,1.54,11.71,1.54,11.71S752.51,181.69,758.26,167.79Z" style="opacity: 0.25;mix-blend-mode: screen;fill: url(#Áåçûìÿííûé_ãðàäèåíò_395)"/>
        <path d="M711.6,235.41c.08,2.06.14,4.32.13,6.52-.24,4.63,13.19,10.47,19.41,8.8C718.14,251.78,711.61,235.44,711.6,235.41Z" style="opacity: 0.25;mix-blend-mode: screen;fill: url(#Áåçûìÿííûé_ãðàäèåíò_393)"/>
        <path d="M709.25,203.48c2.93,8.38,8.45,21.34,11.66,10.77-5.87,13.58-12.32-19.06-12.33-19.11.25,2.77.47,5.59.67,8.34Z" style="opacity: 0.25;mix-blend-mode: screen;fill: url(#Áåçûìÿííûé_ãðàäèåíò_391)"/>
        <path d="M816.49,263.09c17.88-5.57,54-17.24-5-2.95l-5.08,1.2-2.58-.43L800,261v-6.21h0v-3.12h0V245.6h0L755.86,245c.28-1.81.54-3.21.54-3.78h0a.76.76,0,0,1,.06-.25v0a1.65,1.65,0,0,1,.15-.25l0-.07.21-.26a17,17,0,0,0,2.25-2.93h0c1.86-3.14,3.85-9.26,3.06-22.39-1.22-20.4-4.07-32.63-4-40.91,0-.53,0-1,.06-1.54v0c0-.5.07-1,.14-1.46,0-.31.09-.65.16-1,0-.1,0-.2,0-.31.06-.28.12-.58.18-.89,0-.1,0-.2.07-.3.18-.85.41-1.78.68-2.78a2.17,2.17,0,0,1,.07-.24c.12-.47.26-.95.4-1.45a.65.65,0,0,0,0-.13c.33-1.14.71-2.35,1.12-3.61l0-.09c.2-.63.42-1.28.64-1.94h0c3.66-10.73,9.74-24.84,16.3-35.25,3.9-6.18,4.72-20,4.28-34.45H800l-.24-18.35,14.52-2.35.16-15.61c9.87,4.24,6,1.41,0-2.23L815,4.26l-68.5,3a363.34,363.34,0,0,0-41.16,4.13h0c-2,.32-4.07.67-6.11,1l-1.4.26c-1.58.28-3.15.57-4.72.88l-1.89.38c-1.41.28-2.82.56-4.22.86l-2.13.46-4,.89-2.24.53c-1.29.3-2.57.62-3.85.94l-2.28.57c-1.29.33-2.58.68-3.87,1l-2.19.6c-1.38.38-2.76.77-4.13,1.17l-1.89.55q-3,.87-6,1.82l-1,.33c-1.12.36-2.22.71-3.29,1.07l-1.05.35c-2.8.94-5.43,1.88-7.8,2.81l-.74.29a65.87,65.87,0,0,0-7.31,3.32c-4.36,2.4-5.67,4.24-5.23,5.66l.06.18a1.74,1.74,0,0,0,.1.19c.65,1.16,2.51,2,4.77,2.62l.29.07c1.17.3,2.42.55,3.66.74l.7.11,1.28.17.23,0,.77.09h.11l.74.07,1.34.12.6.05c1.11.08,1.81.1,1.81.1s-.6.72-6.36,2.95l-.95.36-2.18.81c-3.16,1.14-7.36,2.57-12.95,4.35-1.39.45-2.88.92-4.45,1.4-1,.31-1.91.62-2.8.93-6.11,2.14-9.67,4.29-11.6,6.25l-.06.07a8.49,8.49,0,0,0-.9,1.09,4.89,4.89,0,0,0-.64,5.11,7.11,7.11,0,0,0,2,2.55c-5.1,1.71-27.57,17.37-23.49,24.86a2.62,2.62,0,0,0,.24.34l.1.1a2,2,0,0,0,.21.2.71.71,0,0,0,.14.1l.23.16.18.09.26.13.21.08.29.1.24.07.32.07.27,0,.36.06.29,0,.38,0,.31,0,.43,0h1.12l.54,0h.3l.67,0,.22,0c.61-.06,1.25-.13,1.92-.23l.25,0,.76-.11.33-.06.72-.12.36-.07.72-.13.39-.08.72-.15.4-.08.75-.16.4-.09.78-.18.38-.09.84-.21.35-.08.9-.23.3-.08,1.05-.27.16,0c2.95-.79,6-1.7,9-2.66h0l1.27-.41h0c5.55-1.79,10.91-3.71,15.12-5.27l0,0,.92-.35.1,0,.84-.31.09,0,.8-.3.09,0,.76-.29.06,0,3.25-1.25.1,0,.34-.14.1,0,.27-.11.09,0,.21-.08.07,0,.18-.07h0l.17-.07s-8,5.47-9.53,9.2c-1.33.39-2.64.78-3.91,1.18l-.23.07-2.08.66-.28.09c-1.5.48-3,1-4.34,1.44l-.28.09-1.81.64-.26.09c-1.32.47-2.59.94-3.8,1.41l-.29.11-1.52.6-.24.09c-1.13.45-2.19.9-3.19,1.33l-.31.14-1.22.54-.22.1-1.34.63-.12.06-1.08.53-.28.15-.91.48-.19.1-1,.55-.16.1-.71.43-.22.15c-.22.14-.43.28-.62.42a.5.5,0,0,0-.12.08c-.23.16-.43.32-.62.47l-.13.11a4.38,4.38,0,0,0-.38.35l-.13.12c-.12.12-.22.24-.32.36l0,.06a3.36,3.36,0,0,0-.24.38l0,.09a1.43,1.43,0,0,0-.09.27s0,.06,0,.09a.93.93,0,0,0,0,.29,0,0,0,0,1,0,0,1,1,0,0,0,.16.27l.08.07a2.13,2.13,0,0,0,.22.18l.11.06a2.74,2.74,0,0,0,.45.2h0l-7.15,3.4c-7.15,3.39-.68,8.78-.68,8.78a16.38,16.38,0,0,0-5.44,3.11,3.83,3.83,0,0,0-.54.64,2.19,2.19,0,0,0-.4,1.81,4,4,0,0,0,1.74,2.14,12,12,0,0,0,1.15.71c5,2.77,14.72,4.35,14.72,4.35-8.52,2.77-13.07,5.17-15.15,7.2h0a6.44,6.44,0,0,0-.87,1,3.78,3.78,0,0,0-.35.65,2.08,2.08,0,0,0-.12.32c0,.11-.06.23-.08.34-.28,1.7,1.24,3,3.1,4l.33.17a25.64,25.64,0,0,0,5.32,1.82c-1.91,3.38-2.68,5.86-2.68,7.64a5.49,5.49,0,0,0,.07.84c.43,2.6,2.86,3.39,5.62,3.4a31.91,31.91,0,0,0,9-1.71c13.4,5.41,21.88-5.79,21.88-5.79-.36-.08-.68-.17-1-.26-1.63-.52-4.1-2,2.37-5,4.94,3.14,9.73,5.72,12.87,6.3,9.2,1.7,36-9.63,44.73-4,7,6.92,15,15.61,19.74,21.27l1.69,2,.22.27q.19.22.36.45c.18.22.35.43.5.63l.17.22.35.45.13.18c.14.19.28.37.39.53s.13.21.2.33l.06.12.14.28.07.16c0,.1.09.2.13.31l.06.18c0,.12.09.24.14.37a1.21,1.21,0,0,0,0,.18q.08.21.15.45a.83.83,0,0,0,0,.15c.06.2.11.41.17.62v0c.13.49.25,1,.37,1.58h0a163.09,163.09,0,0,1,2.31,17.67h0c.25,2.76.47,5.58.67,8.33h0c.06.8.12,1.6.17,2.39h0c.42,6.26.72,12,.89,15.7h0c0,.33,0,.63.05.93v0c0,.59,0,1.11.07,1.56v0c0,.42,0,.77,0,1v.43c0,.18,0,.28,0,.28l.63,1.7s.29,3.47.47,7.84c0,.51,0,1,0,1.54V237c.06,1.6.09,3.27.08,4.91,0,.8,0,1.59,0,2.36v.06l-411-5.8-7.05-.1-22.54-14.74L149.68,212.4h0L134.36,200l-44.82-2.25.54-.75h0c1.24-1.67,2.54-3.37,3.86-5.08h0c1.35-1.75,2.73-3.51,4.1-5.23l0,0,2-2.5c8.07-10,15.4-18.47,15.4-18.47h3.83v-.22a17.12,17.12,0,0,1,3.8-9.42,27.24,27.24,0,0,1,11.52-8.23l1.74-.73.53-.22,1.37-.59.59-.26,1.59-.7.4-.18q2.11-.94,4.41-2l.4-.19,2-1,.42-.21,2.37-1.17,0,0c5.46-2.74,11.43-6,17.59-9.75,4.7-.25,10.94-.58,17.35-.89.24.13.48.24.71.37l.09,0a36.65,36.65,0,0,0,16.23,3.77,77.9,77.9,0,0,0,19.37-2l.65-.14,2.31-.55.43-.11,1.37-.35.11,0,.23-.06c13.64,2.65,31.34,6.87,45.32,5.67,8.49-.73,18.7-7.12,27.68-14.28a364.21,364.21,0,0,0,39.77-1.59l1.15-.12.85-.1,1.3-.16,1-.13,1.27-.17.76-.11,1.2-.18.58-.1c.54-.08,1.07-.17,1.6-.27l.65-.11,1.14-.22.56-.11,1.52-.32.53-.11,1.1-.26.51-.12,1.42-.37.39-.11,1.07-.31.45-.14c.44-.14.88-.28,1.3-.43l.22-.08c.36-.12.71-.25,1.06-.39l.38-.15c.35-.14.7-.28,1-.43l.15-.06,1.07-.51.3-.16.82-.45.2-.11c.31-.19.6-.38.88-.57l.22-.16.64-.49.18-.14c.24-.21.47-.42.68-.64a.86.86,0,0,0,.13-.14c.17-.18.33-.36.48-.55s.09-.12.14-.17c.17-.23.32-.47.46-.7l.05-.11a4.12,4.12,0,0,0,.3-.64,1.67,1.67,0,0,0,.08-.2,5.2,5.2,0,0,0,.22-.77,15.59,15.59,0,0,0,.33-3.26,9.2,9.2,0,0,0-5-8.24c-.37-.21-.75-.4-1.14-.58a19.06,19.06,0,0,0-2.47-.92c-.86-.25-1.75-.46-2.66-.63s-1.83-.29-2.75-.38-1.85-.15-2.75-.19-1.8,0-2.65,0a60.31,60.31,0,0,0-8.41.69c2.75-2.68,4.12-5.14,4.51-7.38a148,148,0,0,0,19.29,1.52c3.38,0,6.32,0,8.87-.17h0c1.31-.08,2.51-.17,3.61-.28h0c1.11-.11,2.12-.23,3-.38h0a19.24,19.24,0,0,0,6.72-2h0a6,6,0,0,0,1-.7v0a3.29,3.29,0,0,0,.61-.72v0a2.48,2.48,0,0,0,.31-.74v0a2.44,2.44,0,0,0,.06-.76v0c0-.12,0-.24-.05-.36v0a2.66,2.66,0,0,0-.1-.38h0c0-.12-.09-.24-.14-.36l0,0a6.24,6.24,0,0,0-.4-.7l0,0a7.63,7.63,0,0,0-.49-.67l0,0a8.37,8.37,0,0,0-.57-.62l0,0a3.83,3.83,0,0,0-.29-.28h0a16.7,16.7,0,0,0-2.37-1.84A103.06,103.06,0,0,0,415,87l.38,0c.75.1,1.5.2,2.27.28l.44,0c.84.1,1.69.18,2.55.25h.14c.94.08,1.88.14,2.83.19h.26c.81,0,1.63.07,2.46.08l.82,0h2.93l2-.07.88,0c.95-.06,1.92-.12,2.88-.2,1.72-.15,3.33-.34,4.84-.56s2.93-.49,4.24-.78,2.55-.61,3.68-1c9.9-3,12.73-8.15,10.66-12.33a7.16,7.16,0,0,0-.46-.8,9.29,9.29,0,0,0-1.34-1.58,12.52,12.52,0,0,0-2.07-1.54,13.53,13.53,0,0,0-1.31-.73c-.33-.16-.68-.32-1.05-.47,0,0,32,2.73,17.71-2.38h.69l1.16,0h0c8.29-.41,40.72-2.91,29.11-16.61l.6-.53h0l.23-.21,0,0,.26-.24,0,0,.28-.26.06,0,.29-.28.08-.07.33-.31.07-.07.36-.35.07-.07.39-.37.08-.08.41-.4.08-.08.43-.44.07-.07.48-.49,0,0,.52-.54,0,0,.55-.59h0a70.36,70.36,0,0,0,10.92-15h0c3.3-6.34,5.26-13.5,3.49-20.51V7.64c-.09-.34-.19-.69-.3-1l0-.08c-.1-.33-.22-.67-.34-1l0-.1c-.13-.33-.26-.66-.4-1l-.06-.12c-.14-.33-.29-.65-.45-1a.54.54,0,0,1-.07-.13c-.16-.32-.34-.64-.52-1l-.08-.13c-.18-.32-.37-.64-.58-1L519,1q-.32-.48-.66-1a.76.76,0,0,0-.08-.11c-.23-.32-.48-.64-.73-1l-.08-.1c-.26-.32-.53-.65-.82-1l0-.06c-.3-.33-.61-.67-.93-1h0a36.33,36.33,0,0,0-3.32-3C484.06-28.45,36.4-23.68-2.74,12.06S-55.51,84.57-16.53,87.3c34.17,2.39,81.89-8,93.15-10.66,1.75-.39,2.45-.58,2.45-.58S70.6,75.29,62.79,74l7.45-1c-10.88-.21-3.84-2.06,5.72-3.84,6.9.82,4.51,11.69,16,17.22,12.76,6.12,17.62,13.78,15.57,23-.1.45-.22.92-.35,1.39s-.21.74-.32,1.11l-.18.58c-.1.33-.21.67-.32,1l-.24.68c-.13.39-.26.78-.41,1.18,0,.09-.06.18-.1.27-.51,1.42-1.08,2.88-1.66,4.36-2.93,7.49-6.28,15.58-5.61,21.33,0,0-4.85-.26-7.91,9.7a14.84,14.84,0,0,1-1,2.32h0c-.24.46-.51.94-.8,1.45l0,.05c-.29.49-.6,1-.94,1.55l-.06.09c-.34.53-.7,1.09-1.08,1.66l-.06.09c-.4.6-.83,1.22-1.27,1.85-8,11.41-22.65,28.4-29.44,36.12L0,193.26v7.53L-4.42,200c-54.49-10.06-7.86,12.4-7.86,12.4s4.42-.66,12.28-1.22v6.4L-10.4,217l6,5.42,4.42.3v3.89l-6.83-.42v3.07l6.83.43v19.57L-6.83,248h0l1.12,22.11-6.36,19.39A35.58,35.58,0,0,1-5.3,278.19l4.9,96.37-4.39.23L0,400H140.66l1.62,1.85h20.63l-50.76,9.7,119.26-7.25c20,6.51,63.2,16.42,107-.41,3.45-1.32,7-2.62,10.73-3.89H532.54L523.72,403l66.37,5.54,2.07-.6,1.18,10.56,55.73-12.72h0l171.39,12.72L815,368.76l-9.11,2,.85-13.44L831,356.23v-2.54L806.84,355l.44-6.85L819,347l-2.57-3.71L828.06,340l-14.94-14.18q15.06-.57,29.75-1.44C1066.74,310.89,870.26,272.63,816.49,263.09ZM674,131.91a13.48,13.48,0,0,1-1.09-2.63c4.5-.86,9.32-1.64,13.94-2.12,0,0-14.55-.1,1.53-5.71,4.56-1.59,9-3.08,12.92-4.23.17,5.69.33,10.21.45,12.41.51,9.77,0,27.44,0,27.44S677.43,137.7,674,131.91ZM632.17,86.85l-.92.24,1.16-.55ZM710.23,115c-2.52,6.14-4.91,11.43-4.91,11.43l-.58-10.22A47.94,47.94,0,0,1,710.23,115Zm23.16-17.13a10,10,0,0,0,1.48-.51,7.82,7.82,0,0,0,1.28-.72c.24,1.14.49,2.29.73,3.43l-.33-.15-1-.41a40.55,40.55,0,0,0-4.64-1.34A9.8,9.8,0,0,0,733.39,97.91Zm.3-12.9-.79-.25.71-.11C733.64,84.77,733.66,84.89,733.69,85Zm19.61-2.93a57.67,57.67,0,0,1-9.49,16.41l-3-14.87C745.1,83,749.32,82.49,753.3,82.08ZM628.07,133.79c.17.61.35,1.21.54,1.81C627.89,135.09,627.63,134.49,628.07,133.79Zm35-4.88c-3.1-.4-6.8-.93-10-1.58C659.27,126.9,663.92,127.28,663.08,128.91Zm51.75,43.9c0-.23-.05-.46-.08-.68s-.06-.46-.08-.67l0-.28c0-.29-.07-.56-.1-.8-.06-.49-.15-1-.24-1.56l-.06-.34q-.13-.79-.3-1.65c0-.1,0-.2-.07-.3-.1-.53-.22-1.07-.34-1.62l-.06-.29c-.14-.6-.28-1.22-.43-1.85,0-.16-.07-.31-.11-.46-.14-.63-.29-1.26-.45-1.9h0c-2-8.23-4.53-17.66-4.07-23,.42-4.82,3.29-12.22,5.68-19.11,1.81-.23,3.4-.49,4.79-.78,12.29-2.57,8.73-7.29,6.6-9.21a10.73,10.73,0,0,0-1.07-.86s3.74.49,9.72-1.48c1-.34,2.08-.74,3.22-1.23l.48-.23c.63,2.91,1.25,5.77,1.86,8.52,3.38,15.23,6.1,32.92,7.69,44.27h0c.56,4,1,7.18,1.23,9.22v0c.14,1.09.23,1.84.27,2.21l0,.15V169h-3.06a202.78,202.78,0,0,1,4.43,30.53h0c.07,1.19.12,2.39.15,3.58a93.11,93.11,0,0,1-.15,9.34,94.17,94.17,0,0,1-6.2,26.15h0l-.43,1.1h0c-.13.35-.27.69-.4,1l0,0q-.19.48-.39.93l0,.08-.37.87,0,.07-.35.81,0,.07-.33.75,0,.07-.18.39-5.85-.08a55.35,55.35,0,0,1-4-4.6h0a54.88,54.88,0,0,1-4.81-7.36c-.28-.53-.57-1.07-.84-1.62s-.61-1.22-.89-1.86c-.16-.36-.32-.74-.48-1.15s-.22-.58-.33-.88l-.12-.35c-.14-.4-.28-.82-.42-1.25l0-.07c-.15-.46-.29-.93-.44-1.42,0-.08,0-.16-.07-.25-.07-.26-.15-.51-.22-.77-.49-1.75-1-3.67-1.41-5.72h0c-.23-1-.45-2.06-.67-3.14h0c-2.89-14.25-5-32.73-6-41.16h0A2.51,2.51,0,0,0,714.83,172.81ZM800,283.73c11.31,1.3,21,2.66,28.57,4.08L800,286.88Zm-24.53-179c-2.73,14-17.36,34-19.41,46.63,0,0-9.53-36.09-10.55-44.94-.55-4.8,5.4-12.64,9.61-24.48a131.29,131.29,0,0,1,17-.79c1.38,0,2.59.12,3.65.2.08,1.44.15,2.88.21,4.28-5.82,1.61-13.82,3-13.82,3h13.93C776.31,95.24,776.18,101.06,775.47,104.69Zm-175.2,50.67Zm27.63-12.81c1-.35,2-.71,3.18-1.09a15.46,15.46,0,0,0,7,6.94S633.14,147.83,627.9,142.55Zm21.57,4c-8.19,2.47-13.48-.3-16.84-5.57,2.6-.81,5.67-1.7,9.31-2.66,0,0-7.48-.45-11.54-1.85a36.8,36.8,0,0,1-1.2-3.72,13.92,13.92,0,0,1,1.42-.82,45.15,45.15,0,0,1,10.51-3h0a156.6,156.6,0,0,1,16.74,3.16c-1.36.58-3,1.21-5,1.9,0,0,2.34-.67,6.06-1.59a51.16,51.16,0,0,1,9.94,4,37.79,37.79,0,0,1,6.38,4.83C671.61,141.08,664.24,142.09,649.47,146.53Zm62.26,95.4ZM121.08,131.72c-14.55,5.11,1.28-38.29,5.88-44.42C131.09,81.78,146.2,67,163.15,57c14.15-.09,30.67.22,42.92,1.69a91.6,91.6,0,0,1-11.27,19.1C185.23,78.91,177,79.1,177,79.1s6.33.52,16.26.81c-2.73,3.86-4.54,6.93-4.26,10.2s-6.58,8.86-16.15,15h0l-.84.54c-3.78,2.39-7.95,4.86-12.25,7.28-2.2,1.24-4.44,2.47-6.68,3.67l-.12.06c-1.06.57-2.13,1.14-3.19,1.69l-.21.11-3.23,1.68C135.79,125.55,126.09,130,121.08,131.72ZM217,60.64c4.48,1.26,7.13,2.9,7,5.06-.34,4.21-5.9,7.1-13.08,9.09.36-.52.69-1,1-1.53A40.81,40.81,0,0,0,217,60.64ZM207,80.1c4.31,0,8.91-.07,13.7-.24-1.08.82-2.21,1.6-3.39,2.33C193.9,96.66,200.14,89.17,207,80.1Zm37.37-.63.21-.14a22.42,22.42,0,0,0,4.22,4q-1.53.18-2.91.39c-1.39.2-2.67.43-3.86.67-.4.08-.79.16-1.16.25-.76.16-1.47.34-2.15.52s-1.31.36-1.91.55c-8.7,2.78-9.81,6.67-10.09,9.79l0,.32c0,.53-.06,1-.1,1.5-.16,1.78-.55,3-3.1,3.29l-3.43.35-1.25.14-2.45.31-2.17.3h0a6,6,0,0,1-1,.15c-1.19.18-2.36.37-3.49.57h0c-1.11.19-2.19.39-3.25.6h0c-1,.08-1.93.19-2.92.34C225.18,81.84,217.09,98.35,244.4,79.47ZM270.68,120l-.95.15c.46-1.1,1-2.26,1.62-3.44C276,117.43,274.83,119,270.68,120ZM70.24,53.6c1.19-.42,2.5-.79,3.92-1.14a63.35,63.35,0,0,0,3.14,11C66,61.58,56.4,58.39,70.24,53.6Zm63.59,4.1,2.77-7.28C148.48,51.94,151.81,54.65,133.83,57.7Zm0,0s7-.34,17.18-.56c-7.71,4.12-15.69,7.45-23.29,16.63Zm102.5,70.24c1.18-.42,2.31-.83,3.38-1.23l.1,0,1.47-.56a25.14,25.14,0,0,0,12.83,6.12S246.18,132.85,236.33,127.94Zm10-3.91.65-.28.17-.08.4-.18h0l.59-.26.17-.08.44-.2.15-.07.58-.27.15-.08.39-.18,0,0,.16-.08h0s-2.15.33-5.24.68a28.62,28.62,0,0,1-3.57-3.7c3-1.2,8.57-2.29,17-2.71a98.42,98.42,0,0,1,10.07-.07c-.78,1.44-1.5,2.86-2.14,4.22-1.54.22-2.45.33-2.45.33h0l1.41.09h0l.84,0c-1.63,3.6-2.62,6.81-2.37,9A30.32,30.32,0,0,1,246.33,124Zm28.16,6.12c-6.62.71-7.25-3.28-5.21-8.83,5.3.28,14.1.67,24.34.85C287.25,126.28,280.54,129.5,274.49,130.15ZM93.77,79.38c-4.38-2.18-7.65-6.3-10.08-11.66,6.94-1.14,13.14-2,13.14-2s-7-.46-14.55-1.48a72.72,72.72,0,0,1-3.16-12.79c14.65-2.56,36.35-2.8,51.12-1.65-3.67,9.64-7.06,18.58-8.9,23.48-5.36,14.29-7.66,23.23-7.66,23.23S109.6,87.3,93.77,79.38Zm13.42,31.29c-.07.28-.15.57-.24.86C107,111.24,107.12,111,107.19,110.67ZM300.32,403c3.28-.92,6.93-1.9,10.86-2.95h16.39Zm313.11,3.67,4.72-2,5.33.19Zm244.76-91.39s-21.77.27-58.19,0V302l8.22-1.89-4.41-1.79-3.81,1v-2.4l63.3,3.24Z" style="mix-blend-mode: multiply;fill: url(#linear-gradient)"/>
        <path d="M353.94,141.68s4.46-1.68,6.53-1.6,8.58,3.48,8.58,3.48a41.56,41.56,0,0,1-1.5-4.37c-.22-1.15,5.5-4.12,11.82-3.68l-5-.7s-8.9.94-9.37,4.77c0,0-2.4-.77-3.45-1.06S357.1,139.19,353.94,141.68Z" style="fill: #632c27"/>
        <path d="M383.88,145.38c2.58-.26,8.11,4,8.11,4s-.88-4.87-.62-6.41,3.8-2.84,3.8-2.84-4.31.62-5.23,1.22-.42,4.59-.42,4.59a21.19,21.19,0,0,0-3.09-.92A3.26,3.26,0,0,0,383.88,145.38Z" style="fill: #632c27"/>
        <path d="M540.9,83.83s1.56-.73,6.56.83c0,0,1.73-3.32,2.79-3.88s5.17-.33,5.17-.33a34.21,34.21,0,0,0-5.62-.31c-2,.19-3.28,3-3.28,3S542.54,82.6,540.9,83.83Z" style="fill: #632c27"/>
      </g>
    </g>
  </g>
</svg>
