<svg xmlns="http://www.w3.org/2000/svg" xmlns:xlink="http://www.w3.org/1999/xlink" width="799.91" height="400" viewBox="0 0 799.91 400">
  <defs>
    <clipPath id="clip-path">
      <rect width="799.91" height="400" style="fill: none"/>
    </clipPath>
    <linearGradient id="Áåçûìÿííûé_ãðàäèåíò_14" data-name="Áåçûìÿííûé ãðàäèåíò 14" x1="400" y1="229.26" x2="400" gradientUnits="userSpaceOnUse">
      <stop offset="0" stop-color="#2f95c9"/>
      <stop offset="0.23" stop-color="#267eb7"/>
      <stop offset="0.7" stop-color="#104388"/>
      <stop offset="1" stop-color="#001a68"/>
    </linearGradient>
    <radialGradient id="Áåçûìÿííûé_ãðàäèåíò_550" data-name="Áåçûìÿííûé ãðàäèåíò 550" cx="-1838.51" cy="-45.1" r="19.45" gradientTransform="matrix(0, -2.39, -2.37, 0, 406.16, -4274.42)" gradientUnits="userSpaceOnUse">
      <stop offset="0" stop-color="#6a229d"/>
      <stop offset="0.16" stop-color="#672199"/>
      <stop offset="0.32" stop-color="#5f1e8c"/>
      <stop offset="0.48" stop-color="#511a78"/>
      <stop offset="0.64" stop-color="#3d145b"/>
      <stop offset="0.81" stop-color="#240c36"/>
      <stop offset="0.97" stop-color="#060209"/>
      <stop offset="1"/>
    </radialGradient>
    <radialGradient id="Áåçûìÿííûé_ãðàäèåíò_558" data-name="Áåçûìÿííûé ãðàäèåíò 558" cx="-1838.1" cy="-45.85" r="16.59" gradientTransform="matrix(0, -2.39, -2.37, 0, 404.51, -4275.37)" gradientUnits="userSpaceOnUse">
      <stop offset="0" stop-color="#0037a4"/>
      <stop offset="0.15" stop-color="#0036a0"/>
      <stop offset="0.31" stop-color="#003294"/>
      <stop offset="0.47" stop-color="#002b7f"/>
      <stop offset="0.63" stop-color="#002163"/>
      <stop offset="0.79" stop-color="#00153e"/>
      <stop offset="0.95" stop-color="#000611"/>
      <stop offset="1"/>
    </radialGradient>
    <linearGradient id="linear-gradient" x1="398.52" y1="253.64" x2="396.78" y2="198.7" gradientUnits="userSpaceOnUse">
      <stop offset="0" stop-color="#0a3e82"/>
      <stop offset="0.42" stop-color="#0e4c9b"/>
      <stop offset="1" stop-color="#1463c2"/>
    </linearGradient>
    <linearGradient id="Áåçûìÿííûé_ãðàäèåíò_276" data-name="Áåçûìÿííûé ãðàäèåíò 276" x1="374.38" y1="-85.8" x2="836.02" y2="375.84" gradientUnits="userSpaceOnUse">
      <stop offset="0" stop-color="#fff"/>
      <stop offset="1" stop-color="#837700"/>
    </linearGradient>
    <linearGradient id="Áåçûìÿííûé_ãðàäèåíò_276-2" x1="519.28" y1="-34.43" x2="793.48" y2="239.77" xlink:href="#Áåçûìÿííûé_ãðàäèåíò_276"/>
    <linearGradient id="Áåçûìÿííûé_ãðàäèåíò_276-3" x1="384.01" y1="135.13" x2="604.53" y2="355.64" xlink:href="#Áåçûìÿííûé_ãðàäèåíò_276"/>
    <linearGradient id="Áåçûìÿííûé_ãðàäèåíò_276-4" x1="434.59" y1="17.25" x2="817.78" y2="400.44" xlink:href="#Áåçûìÿííûé_ãðàäèåíò_276"/>
    <linearGradient id="linear-gradient-2" x1="496.15" y1="250.55" x2="494.41" y2="195.6" gradientUnits="userSpaceOnUse">
      <stop offset="0" stop-color="#1610be"/>
      <stop offset="0.32" stop-color="#2f1aca"/>
      <stop offset="1" stop-color="#6e34ea"/>
      <stop offset="1" stop-color="#6e34ea"/>
    </linearGradient>
    <linearGradient id="linear-gradient-3" x1="402.37" y1="253.52" x2="410" y2="199.08" gradientUnits="userSpaceOnUse">
      <stop offset="0" stop-color="#1090be"/>
      <stop offset="0.59" stop-color="#2496d7"/>
      <stop offset="1" stop-color="#349bea"/>
    </linearGradient>
    <linearGradient id="Áåçûìÿííûé_ãðàäèåíò_335" data-name="Áåçûìÿííûé ãðàäèåíò 335" x1="193.81" y1="240.4" x2="193.81" y2="137.49" gradientUnits="userSpaceOnUse">
      <stop offset="0" stop-color="#837700"/>
      <stop offset="1" stop-color="#fff"/>
    </linearGradient>
    <linearGradient id="Áåçûìÿííûé_ãðàäèåíò_335-2" x1="350.39" y1="278.06" x2="350.39" y2="181.12" xlink:href="#Áåçûìÿííûé_ãðàäèåíò_335"/>
    <linearGradient id="Áåçûìÿííûé_ãðàäèåíò_335-3" x1="245.11" y1="261.01" x2="245.11" y2="144.78" xlink:href="#Áåçûìÿííûé_ãðàäèåíò_335"/>
    <linearGradient id="Áåçûìÿííûé_ãðàäèåíò_463" data-name="Áåçûìÿííûé ãðàäèåíò 463" x1="224.81" y1="247.03" x2="224.81" y2="178.73" gradientUnits="userSpaceOnUse">
      <stop offset="0.01" stop-color="#001f54"/>
      <stop offset="0.14" stop-color="#00194d"/>
      <stop offset="0.64" stop-color="#00073b"/>
      <stop offset="0.99" stop-color="#000034"/>
    </linearGradient>
    <linearGradient id="Áåçûìÿííûé_ãðàäèåíò_463-2" x1="22.54" y1="238.31" x2="22.54" y2="169.07" gradientTransform="matrix(-1, 0, 0, 1, 822.45, 0)" xlink:href="#Áåçûìÿííûé_ãðàäèåíò_463"/>
    <linearGradient id="Áåçûìÿííûé_ãðàäèåíò_463-3" x1="25.59" y1="228.44" x2="25.59" y2="166.87" xlink:href="#Áåçûìÿííûé_ãðàäèåíò_463"/>
    <linearGradient id="linear-gradient-4" x1="307.47" y1="248.02" x2="931.48" y2="248.02" gradientUnits="userSpaceOnUse">
      <stop offset="0.59" stop-color="#3d78d8"/>
      <stop offset="1" stop-color="#2337ab"/>
    </linearGradient>
    <linearGradient id="linear-gradient-5" x1="-486.2" y1="465.18" x2="536.79" y2="351.04" gradientUnits="userSpaceOnUse">
      <stop offset="0.34" stop-color="#1d1021"/>
      <stop offset="1" stop-color="#4d46a1"/>
    </linearGradient>
    <linearGradient id="linear-gradient-6" x1="367.05" y1="384.35" x2="425.52" y2="158.97" gradientUnits="userSpaceOnUse">
      <stop offset="0" stop-color="#042b6b"/>
      <stop offset="1" stop-color="#0f4b93"/>
    </linearGradient>
    <linearGradient id="linear-gradient-7" x1="265.56" y1="245.06" x2="778.55" y2="245.06" gradientUnits="userSpaceOnUse">
      <stop offset="0" stop-color="#0f61e4"/>
      <stop offset="1"/>
    </linearGradient>
    <linearGradient id="Áåçûìÿííûé_ãðàäèåíò_276-5" x1="-30.86" y1="262.16" x2="513.72" y2="262.16" xlink:href="#Áåçûìÿííûé_ãðàäèåíò_276"/>
    <linearGradient id="Áåçûìÿííûé_ãðàäèåíò_463-4" x1="146.33" y1="409.18" x2="214.59" y2="94.2" xlink:href="#Áåçûìÿííûé_ãðàäèåíò_463"/>
    <linearGradient id="Áåçûìÿííûé_ãðàäèåíò_174" data-name="Áåçûìÿííûé ãðàäèåíò 174" x1="105.41" y1="421.07" x2="257.78" y2="137.06" gradientUnits="userSpaceOnUse">
      <stop offset="0" stop-color="#442127"/>
      <stop offset="1" stop-color="#632c27"/>
    </linearGradient>
    <linearGradient id="Áåçûìÿííûé_ãðàäèåíò_88" data-name="Áåçûìÿííûé ãðàäèåíò 88" x1="-39.82" y1="35.02" x2="437.11" y2="35.02" gradientUnits="userSpaceOnUse">
      <stop offset="0.01" stop-color="#00104d"/>
      <stop offset="0.56" stop-color="#001748"/>
      <stop offset="0.99" stop-color="#002042"/>
    </linearGradient>
    <linearGradient id="Áåçûìÿííûé_ãðàäèåíò_174-2" x1="-17.81" y1="365.41" x2="176.21" y2="3.77" xlink:href="#Áåçûìÿííûé_ãðàäèåíò_174"/>
    <linearGradient id="Áåçûìÿííûé_ãðàäèåíò_174-3" x1="-12.82" y1="373.06" x2="177.46" y2="18.39" xlink:href="#Áåçûìÿííûé_ãðàäèåíò_174"/>
    <linearGradient id="Áåçûìÿííûé_ãðàäèåíò_174-4" x1="12.02" y1="357.38" x2="185.44" y2="34.15" xlink:href="#Áåçûìÿííûé_ãðàäèåíò_174"/>
    <linearGradient id="Áåçûìÿííûé_ãðàäèåíò_174-5" x1="36.52" y1="370.53" x2="209.94" y2="47.3" xlink:href="#Áåçûìÿííûé_ãðàäèåíò_174"/>
    <linearGradient id="Áåçûìÿííûé_ãðàäèåíò_174-6" x1="55.42" y1="380.67" x2="228.84" y2="57.44" xlink:href="#Áåçûìÿííûé_ãðàäèåíò_174"/>
    <linearGradient id="Áåçûìÿííûé_ãðàäèåíò_174-7" x1="45.59" y1="354.9" x2="184.53" y2="95.94" xlink:href="#Áåçûìÿííûé_ãðàäèåíò_174"/>
    <linearGradient id="Áåçûìÿííûé_ãðàäèåíò_174-8" x1="25.63" y1="364.68" x2="174.27" y2="87.63" xlink:href="#Áåçûìÿííûé_ãðàäèåíò_174"/>
    <linearGradient id="Áåçûìÿííûé_ãðàäèåíò_174-9" x1="-2.85" y1="349.4" x2="145.79" y2="72.35" xlink:href="#Áåçûìÿííûé_ãðàäèåíò_174"/>
    <linearGradient id="linear-gradient-8" x1="82.98" y1="170.12" x2="100.12" y2="170.12" gradientUnits="userSpaceOnUse">
      <stop offset="0"/>
      <stop offset="1" stop-color="#008df9"/>
    </linearGradient>
    <linearGradient id="linear-gradient-9" x1="51.89" y1="207.81" x2="90.79" y2="207.81" xlink:href="#linear-gradient-8"/>
    <linearGradient id="linear-gradient-10" x1="100.46" y1="140.28" x2="123.1" y2="140.28" xlink:href="#linear-gradient-8"/>
    <linearGradient id="linear-gradient-11" x1="86.33" y1="230.99" x2="133.85" y2="230.99" xlink:href="#linear-gradient-8"/>
    <linearGradient id="linear-gradient-12" x1="91.47" y1="255.39" x2="149.47" y2="255.39" xlink:href="#linear-gradient-8"/>
    <linearGradient id="linear-gradient-13" x1="63.91" y1="398.81" x2="216.29" y2="114.8" xlink:href="#linear-gradient-8"/>
    <linearGradient id="linear-gradient-14" x1="41.75" y1="386.92" x2="194.12" y2="102.91" xlink:href="#linear-gradient-8"/>
    <linearGradient id="Áåçûìÿííûé_ãðàäèåíò_88-2" x1="176.72" y1="92.7" x2="369.98" y2="92.7" xlink:href="#Áåçûìÿííûé_ãðàäèåíò_88"/>
    <linearGradient id="linear-gradient-15" x1="259.89" y1="379.72" x2="259.89" y2="279.98" gradientUnits="userSpaceOnUse">
      <stop offset="0" stop-color="#1a315c"/>
      <stop offset="1" stop-color="#274887"/>
    </linearGradient>
    <linearGradient id="linear-gradient-16" x1="158.62" y1="401.85" x2="158.62" y2="351.81" gradientUnits="userSpaceOnUse">
      <stop offset="0" stop-color="#274887"/>
      <stop offset="1" stop-color="#274887"/>
    </linearGradient>
    <linearGradient id="Áåçûìÿííûé_ãðàäèåíò_463-5" x1="739.57" y1="249.7" x2="712.85" y2="125.39" xlink:href="#Áåçûìÿííûé_ãðàäèåíò_463"/>
    <linearGradient id="Áåçûìÿííûé_ãðàäèåíò_88-3" x1="635.23" y1="49.18" x2="799.77" y2="49.18" xlink:href="#Áåçûìÿííûé_ãðàäèåíò_88"/>
    <linearGradient id="Áåçûìÿííûé_ãðàäèåíò_88-4" x1="578.39" y1="116.87" x2="739.68" y2="116.87" xlink:href="#Áåçûìÿííûé_ãðàäèåíò_88"/>
    <linearGradient id="Áåçûìÿííûé_ãðàäèåíò_174-10" x1="725.74" y1="252.68" x2="699.01" y2="128.37" xlink:href="#Áåçûìÿííûé_ãðàäèåíò_174"/>
    <linearGradient id="Áåçûìÿííûé_ãðàäèåíò_174-11" x1="770.93" y1="242.96" x2="744.2" y2="118.65" xlink:href="#Áåçûìÿííûé_ãðàäèåíò_174"/>
    <linearGradient id="Áåçûìÿííûé_ãðàäèåíò_174-12" x1="754.35" y1="246.53" x2="727.62" y2="122.21" xlink:href="#Áåçûìÿííûé_ãðàäèåíò_174"/>
    <linearGradient id="Áåçûìÿííûé_ãðàäèåíò_174-13" x1="705.48" y1="257.03" x2="678.75" y2="132.72" xlink:href="#Áåçûìÿííûé_ãðàäèåíò_174"/>
    <linearGradient id="Áåçûìÿííûé_ãðàäèåíò_174-14" x1="724.39" y1="252.97" x2="697.66" y2="128.66" xlink:href="#Áåçûìÿííûé_ãðàäèåíò_174"/>
    <linearGradient id="Áåçûìÿííûé_ãðàäèåíò_174-15" x1="723.78" y1="253.1" x2="697.05" y2="128.79" xlink:href="#Áåçûìÿííûé_ãðàäèåíò_174"/>
    <linearGradient id="Áåçûìÿííûé_ãðàäèåíò_174-16" x1="765.09" y1="244.22" x2="738.37" y2="119.9" xlink:href="#Áåçûìÿííûé_ãðàäèåíò_174"/>
    <linearGradient id="Áåçûìÿííûé_ãðàäèåíò_392" data-name="Áåçûìÿííûé ãðàäèåíò 392" x1="746.81" y1="226.65" x2="710.11" y2="226.65" gradientUnits="userSpaceOnUse">
      <stop offset="0.56"/>
      <stop offset="1" stop-color="#f99000"/>
    </linearGradient>
    <linearGradient id="Áåçûìÿííûé_ãðàäèåíò_395" data-name="Áåçûìÿííûé ãðàäèåíò 395" x1="801.41" y1="165.77" x2="747.59" y2="165.77" gradientUnits="userSpaceOnUse">
      <stop offset="0.81"/>
      <stop offset="1" stop-color="#f99000"/>
    </linearGradient>
    <linearGradient id="Áåçûìÿííûé_ãðàäèåíò_393" data-name="Áåçûìÿííûé ãðàäèåíò 393" x1="731.92" y1="243.21" x2="712.2" y2="243.21" gradientUnits="userSpaceOnUse">
      <stop offset="0.06"/>
      <stop offset="1" stop-color="#f99000"/>
    </linearGradient>
    <linearGradient id="Áåçûìÿííûé_ãðàäèåíò_391" data-name="Áåçûìÿííûé ãðàäèåíò 391" x1="738.62" y1="206.68" x2="709.15" y2="206.68" gradientUnits="userSpaceOnUse">
      <stop offset="0.56"/>
      <stop offset="1" stop-color="#f99000"/>
    </linearGradient>
    <linearGradient id="Áåçûìÿííûé_ãðàäèåíò_305" data-name="Áåçûìÿííûé ãðàäèåíò 305" x1="219.89" y1="333.24" x2="843.9" y2="333.24" gradientUnits="userSpaceOnUse">
      <stop offset="0.35" stop-color="#837700"/>
      <stop offset="1" stop-color="#fff"/>
    </linearGradient>
    <linearGradient id="Áåçûìÿííûé_ãðàäèåíò_306" data-name="Áåçûìÿííûé ãðàäèåíò 306" x1="591.64" y1="400.7" x2="679.64" y2="400.7" gradientUnits="userSpaceOnUse">
      <stop offset="0" stop-color="#fff"/>
      <stop offset="0.65" stop-color="#837700"/>
    </linearGradient>
    <linearGradient id="Áåçûìÿííûé_ãðàäèåíò_305-2" x1="663.96" y1="361.58" x2="819.04" y2="361.58" xlink:href="#Áåçûìÿííûé_ãðàäèåíò_305"/>
    <linearGradient id="Áåçûìÿííûé_ãðàäèåíò_305-3" x1="677.71" y1="369.24" x2="830.96" y2="369.24" xlink:href="#Áåçûìÿííûé_ãðàäèåíò_305"/>
    <linearGradient id="linear-gradient-17" x1="701.77" y1="315.3" x2="701.77" y2="255.94" xlink:href="#linear-gradient-16"/>
    <linearGradient id="linear-gradient-18" x1="560.83" y1="316.52" x2="560.83" y2="274.48" xlink:href="#linear-gradient-16"/>
    <radialGradient id="radial-gradient" cx="2262.22" cy="2066.13" r="6.79" gradientTransform="translate(1357.91 -2934.62) rotate(60.29)" gradientUnits="userSpaceOnUse">
      <stop offset="0.02" stop-color="#24ff8e"/>
      <stop offset="0.33" stop-color="#24fd8d"/>
      <stop offset="0.46" stop-color="#23f689"/>
      <stop offset="0.56" stop-color="#21e982"/>
      <stop offset="0.65" stop-color="#1ed778"/>
      <stop offset="0.72" stop-color="#1bc06b"/>
      <stop offset="0.79" stop-color="#17a35b"/>
      <stop offset="0.85" stop-color="#128148"/>
      <stop offset="0.9" stop-color="#0d5932"/>
      <stop offset="0.95" stop-color="#062e19"/>
      <stop offset="1"/>
    </radialGradient>
    <radialGradient id="radial-gradient-2" cx="2382.25" cy="2112.13" r="6.79" xlink:href="#radial-gradient"/>
    <radialGradient id="radial-gradient-3" cx="2133.27" cy="2748.38" r="6.79" xlink:href="#radial-gradient"/>
    <radialGradient id="radial-gradient-4" cx="2366.98" cy="2196.87" r="2.45" xlink:href="#radial-gradient"/>
    <radialGradient id="radial-gradient-5" cx="2246.78" cy="2748.37" r="2.45" xlink:href="#radial-gradient"/>
    <radialGradient id="radial-gradient-6" cx="2370.11" cy="2024.5" r="3.13" gradientTransform="translate(1357.91 -2934.62) rotate(60.29)" gradientUnits="userSpaceOnUse">
      <stop offset="0.02" stop-color="#7cffc2"/>
      <stop offset="0.33" stop-color="#7bfdc0"/>
      <stop offset="0.46" stop-color="#77f6bb"/>
      <stop offset="0.56" stop-color="#71e9b1"/>
      <stop offset="0.65" stop-color="#69d7a4"/>
      <stop offset="0.72" stop-color="#5dc092"/>
      <stop offset="0.79" stop-color="#4fa37c"/>
      <stop offset="0.85" stop-color="#3f8162"/>
      <stop offset="0.9" stop-color="#2b5944"/>
      <stop offset="0.95" stop-color="#162e23"/>
      <stop offset="1"/>
    </radialGradient>
    <radialGradient id="radial-gradient-7" cx="2366.98" cy="2122.32" r="3.13" xlink:href="#radial-gradient-6"/>
    <radialGradient id="radial-gradient-8" cx="2542.53" cy="2222.16" r="3.13" xlink:href="#radial-gradient-6"/>
    <radialGradient id="radial-gradient-9" cx="2176.91" cy="2462.62" r="61.74" gradientTransform="translate(1357.91 -2934.62) rotate(60.29)" gradientUnits="userSpaceOnUse">
      <stop offset="0.46" stop-color="#349565"/>
      <stop offset="0.69" stop-color="#339364"/>
      <stop offset="0.77" stop-color="#318c5f"/>
      <stop offset="0.82" stop-color="#2d8157"/>
      <stop offset="0.87" stop-color="#27704c"/>
      <stop offset="0.91" stop-color="#1f5a3d"/>
      <stop offset="0.94" stop-color="#163e2a"/>
      <stop offset="0.98" stop-color="#0b1f15"/>
      <stop offset="1"/>
    </radialGradient>
    <radialGradient id="radial-gradient-10" cx="2601.41" cy="2230.42" r="47.35" gradientTransform="translate(1365.53 -2931.69) rotate(60.29)" gradientUnits="userSpaceOnUse">
      <stop offset="0.02" stop-color="#34ff9a"/>
      <stop offset="0.33" stop-color="#24b26c"/>
      <stop offset="1"/>
    </radialGradient>
    <radialGradient id="radial-gradient-11" cx="2359.85" cy="2002.11" r="22.39" gradientTransform="translate(1357.91 -2934.62) rotate(60.29)" xlink:href="#radial-gradient-10"/>
    <radialGradient id="radial-gradient-12" cx="2242.12" cy="2387.06" r="30.87" gradientTransform="translate(2596.49 -2225.29) rotate(85.77)" gradientUnits="userSpaceOnUse">
      <stop offset="0.46" stop-color="#34ff9a"/>
      <stop offset="0.66" stop-color="#34fd99"/>
      <stop offset="0.74" stop-color="#32f695"/>
      <stop offset="0.79" stop-color="#30eb8e"/>
      <stop offset="0.83" stop-color="#2cda83"/>
      <stop offset="0.86" stop-color="#28c476"/>
      <stop offset="0.9" stop-color="#22a866"/>
      <stop offset="0.92" stop-color="#1c8852"/>
      <stop offset="0.95" stop-color="#14623b"/>
      <stop offset="0.97" stop-color="#0b3721"/>
      <stop offset="1" stop-color="#020906"/>
      <stop offset="1"/>
    </radialGradient>
    <radialGradient id="radial-gradient-13" cx="2313.14" cy="2211.26" r="14.39" gradientTransform="matrix(0.39, 0.92, -0.92, 0.39, 1725.76, -2818.95)" xlink:href="#radial-gradient-10"/>
    <radialGradient id="radial-gradient-14" cx="2330.79" cy="2149.57" r="7.56" gradientTransform="translate(1357.91 -2934.62) rotate(60.29)" xlink:href="#radial-gradient-10"/>
    <radialGradient id="radial-gradient-15" cx="2159.6" cy="2708.27" r="20.32" gradientTransform="translate(1357.91 -2934.62) rotate(60.29)" xlink:href="#radial-gradient-10"/>
    <radialGradient id="radial-gradient-16" cx="2498.97" cy="2067.66" r="7.56" gradientTransform="translate(2605.35 -2434.32) rotate(84.21)" xlink:href="#radial-gradient-10"/>
    <radialGradient id="radial-gradient-17" cx="2215.12" cy="2264.49" r="7.56" gradientTransform="translate(1357.91 -2934.62) rotate(60.29)" xlink:href="#radial-gradient-10"/>
    <radialGradient id="radial-gradient-18" cx="-1793.45" cy="131.5" r="106.69" gradientTransform="matrix(-2.98, 0, 0, 2.37, -4814.16, -190.57)" gradientUnits="userSpaceOnUse">
      <stop offset="0" stop-color="#0037a4"/>
      <stop offset="0.29" stop-color="#00256d"/>
      <stop offset="0.62" stop-color="#001132"/>
      <stop offset="0.87" stop-color="#00050e"/>
      <stop offset="1"/>
    </radialGradient>
  </defs>
  <g style="isolation: isolate">
    <g id="Ñëîé_1" data-name="Ñëîé 1">
      <g style="clip-path: url(#clip-path)">
        <rect width="800" height="229.26" style="fill: url(#Áåçûìÿííûé_ãðàäèåíò_14)"/>
        <g>
          <path d="M541.29,60.77a.52.52,0,0,1-.53.52.52.52,0,0,1-.52-.52.52.52,0,0,1,.52-.53A.53.53,0,0,1,541.29,60.77Z" style="fill: #09b9ea;fill-rule: evenodd"/>
          <path d="M531.1,117.24a.52.52,0,0,1-.53.52.52.52,0,0,1-.52-.52.52.52,0,0,1,.52-.53A.53.53,0,0,1,531.1,117.24Z" style="fill: #09b9ea;fill-rule: evenodd"/>
          <path d="M487.62,144.78a.52.52,0,0,1-.53.52.52.52,0,0,1-.52-.52.52.52,0,0,1,.52-.53A.53.53,0,0,1,487.62,144.78Z" style="fill: #09b9ea;fill-rule: evenodd"/>
          <path d="M502.47,209.12a.53.53,0,0,1-1.05,0,.53.53,0,1,1,1.05,0Z" style="fill: #09b9ea;fill-rule: evenodd"/>
          <path d="M325.58,239.78a.52.52,0,0,1-.52.52.52.52,0,0,1-.53-.52.53.53,0,0,1,.53-.53A.52.52,0,0,1,325.58,239.78Z" style="fill: #0998e3;fill-rule: evenodd"/>
          <path d="M454.57,123.28a.53.53,0,0,1-.53.53.52.52,0,0,1-.52-.53.52.52,0,0,1,.52-.52A.52.52,0,0,1,454.57,123.28Z" style="fill: #0998e3;fill-rule: evenodd"/>
          <path d="M429.75,111.32a.52.52,0,0,1-.53.52.52.52,0,0,1-.52-.52.52.52,0,0,1,.52-.53A.53.53,0,0,1,429.75,111.32Z" style="fill: #0998e3;fill-rule: evenodd"/>
          <circle cx="398.39" cy="87.33" r="0.52" style="fill: #095cc0"/>
          <path d="M367.17,48.07a.52.52,0,0,1-.52.52.52.52,0,0,1-.53-.52.53.53,0,0,1,.53-.53A.52.52,0,0,1,367.17,48.07Z" style="fill: #095cc0;fill-rule: evenodd"/>
          <path d="M429.22,30.12a.52.52,0,0,1-.52.52.52.52,0,0,1-.53-.52.53.53,0,0,1,.53-.53A.52.52,0,0,1,429.22,30.12Z" style="fill: #095cc0;fill-rule: evenodd"/>
          <path d="M376,166.47a.52.52,0,0,1-.52.52.52.52,0,0,1-.53-.52.53.53,0,0,1,.53-.53A.52.52,0,0,1,376,166.47Z" style="fill: #095cc0;fill-rule: evenodd"/>
          <circle cx="462.06" cy="122.76" r="0.53" style="fill: #095cc0"/>
          <path d="M466.93,25.74a.52.52,0,0,1-.52.52.52.52,0,0,1-.53-.52.53.53,0,0,1,.53-.53A.52.52,0,0,1,466.93,25.74Z" style="fill: #095cc0;fill-rule: evenodd"/>
          <path d="M361.27,244.87a.52.52,0,0,1-.52.53.53.53,0,0,1-.53-.53.52.52,0,0,1,.53-.52A.52.52,0,0,1,361.27,244.87Z" style="fill: #09ffff;fill-rule: evenodd"/>
          <path d="M604.46,37.73a.53.53,0,0,1-.53.53.52.52,0,0,1-.52-.53.52.52,0,0,1,.52-.52A.52.52,0,0,1,604.46,37.73Z" style="fill: #0998e3;fill-rule: evenodd"/>
          <path d="M481.21,106.84a.52.52,0,0,1-.52.52.52.52,0,0,1-.53-.52.53.53,0,0,1,.53-.53A.52.52,0,0,1,481.21,106.84Z" style="fill: #0998e3;fill-rule: evenodd"/>
          <path d="M347.15,81.67a.52.52,0,0,1-.52.52.52.52,0,0,1-.53-.52.53.53,0,0,1,.53-.53A.52.52,0,0,1,347.15,81.67Z" style="fill: #0998e3;fill-rule: evenodd"/>
          <path d="M679.38,33a.53.53,0,0,1-.53.53.52.52,0,0,1-.52-.53.52.52,0,0,1,.52-.52A.52.52,0,0,1,679.38,33Z" style="fill: #0998e3;fill-rule: evenodd"/>
          <path d="M374.87,109.13a.52.52,0,0,1-.52.53.53.53,0,0,1-.53-.53.52.52,0,0,1,.53-.52A.52.52,0,0,1,374.87,109.13Z" style="fill: #0998e3;fill-rule: evenodd"/>
          <path d="M423.17,251.38a.53.53,0,0,1-.53.53.52.52,0,0,1-.52-.53.52.52,0,0,1,.52-.52A.52.52,0,0,1,423.17,251.38Z" style="fill: #0998e3;fill-rule: evenodd"/>
          <path d="M715.69,26.26a.53.53,0,0,1-.53.53.52.52,0,0,1-.52-.53.52.52,0,0,1,.52-.52A.52.52,0,0,1,715.69,26.26Z" style="fill: #0998e3;fill-rule: evenodd"/>
          <path d="M381.75,44.38a.52.52,0,0,1-.53.52.52.52,0,0,1-.52-.52.52.52,0,0,1,.52-.53A.53.53,0,0,1,381.75,44.38Z" style="fill: #0998e3;fill-rule: evenodd"/>
          <path d="M378.86,182.62a.53.53,0,0,1-.53.53.52.52,0,0,1-.52-.53.52.52,0,0,1,.52-.52A.52.52,0,0,1,378.86,182.62Z" style="fill: #0998e3;fill-rule: evenodd"/>
          <path d="M602.48,178.71a.53.53,0,0,1-.53.53.52.52,0,0,1-.52-.53.52.52,0,0,1,.52-.52A.52.52,0,0,1,602.48,178.71Z" style="fill: #0998e3;fill-rule: evenodd"/>
          <path d="M316.69,105.82a.52.52,0,0,1-.52.52.52.52,0,0,1-.53-.52.53.53,0,0,1,.53-.53A.52.52,0,0,1,316.69,105.82Z" style="fill: #0998e3;fill-rule: evenodd"/>
          <path d="M328.6,31.17a.52.52,0,0,1-.52.52.52.52,0,0,1-.53-.52.53.53,0,0,1,.53-.53A.52.52,0,0,1,328.6,31.17Z" style="fill: #0998e3;fill-rule: evenodd"/>
          <path d="M559.17,155.53a.53.53,0,0,1-.53.53.52.52,0,0,1-.52-.53.52.52,0,0,1,.52-.52A.52.52,0,0,1,559.17,155.53Z" style="fill: #0998e3;fill-rule: evenodd"/>
          <path d="M399.44,68.19a.52.52,0,0,1-.52.52.52.52,0,0,1-.53-.52.53.53,0,0,1,.53-.53A.52.52,0,0,1,399.44,68.19Z" style="fill: #0998e3;fill-rule: evenodd"/>
          <path d="M522.17,193.41a.53.53,0,0,1-.53.53.52.52,0,0,1-.52-.53.52.52,0,0,1,.52-.52A.52.52,0,0,1,522.17,193.41Z" style="fill: #0998e3;fill-rule: evenodd"/>
          <path d="M610.55,70.8a.52.52,0,0,1-.52.53.53.53,0,0,1-.53-.53.52.52,0,0,1,.53-.52A.52.52,0,0,1,610.55,70.8Z" style="fill: #09b9ea;fill-rule: evenodd"/>
          <path d="M636.29,75.16a.52.52,0,0,1-.52.53.53.53,0,0,1-.53-.53.52.52,0,0,1,.53-.52A.52.52,0,0,1,636.29,75.16Z" style="fill: #0998e3;fill-rule: evenodd"/>
          <path d="M575.86,211.24a.53.53,0,0,1-.53.53.52.52,0,0,1-.52-.53.52.52,0,0,1,.52-.52A.52.52,0,0,1,575.86,211.24Z" style="fill: #0998e3;fill-rule: evenodd"/>
          <path d="M358.81,90.36a.52.52,0,0,1-.52.52.52.52,0,0,1-.53-.52.53.53,0,0,1,.53-.53A.52.52,0,0,1,358.81,90.36Z" style="fill: #09ffff;fill-rule: evenodd"/>
          <path d="M526.55,97.2a.53.53,0,0,1-.53.53.52.52,0,0,1-.52-.53.52.52,0,0,1,.52-.52A.52.52,0,0,1,526.55,97.2Z" style="fill: #09ffff;fill-rule: evenodd"/>
          <path d="M402.56,30.64a.52.52,0,0,1-.52.53.53.53,0,0,1-.53-.53.52.52,0,0,1,.53-.52A.52.52,0,0,1,402.56,30.64Z" style="fill: #09ffff;fill-rule: evenodd"/>
          <path d="M314,70.28a.52.52,0,0,1-.53.52.52.52,0,0,1-.52-.52.52.52,0,0,1,.52-.53A.53.53,0,0,1,314,70.28Z" style="fill: #09ffff;fill-rule: evenodd"/>
          <path d="M439.3,172.93a.52.52,0,0,1-.52.53.53.53,0,0,1-.53-.53.52.52,0,0,1,.53-.52A.52.52,0,0,1,439.3,172.93Z" style="fill: #92ffff;fill-rule: evenodd"/>
          <path d="M536.3,50.22a.53.53,0,0,1-.53.52.53.53,0,0,1,0-1.05A.53.53,0,0,1,536.3,50.22Z" style="fill: #09ffff;fill-rule: evenodd"/>
          <circle cx="635.24" cy="122.02" r="0.52" style="fill: #09ffff"/>
          <path d="M410.51,174.66a.52.52,0,0,1-.53.52.52.52,0,0,1-.52-.52.52.52,0,0,1,.52-.53A.53.53,0,0,1,410.51,174.66Z" style="fill: #09ffff;fill-rule: evenodd"/>
          <path d="M338.05,179.24a.52.52,0,0,1-.52.52.52.52,0,0,1-.53-.52.53.53,0,0,1,.53-.53A.52.52,0,0,1,338.05,179.24Z" style="fill: #09ffff;fill-rule: evenodd"/>
          <path d="M635.24,23.2a.52.52,0,0,1-.52.53.53.53,0,0,1-.53-.53.52.52,0,0,1,.53-.52A.52.52,0,0,1,635.24,23.2Z" style="fill: #09ffff;fill-rule: evenodd"/>
          <path d="M480.92,60.24a.52.52,0,0,1-.52.53.53.53,0,0,1-.53-.53.52.52,0,0,1,.53-.52A.52.52,0,0,1,480.92,60.24Z" style="fill: #09ffff;fill-rule: evenodd"/>
          <path d="M463.11,90.36a.52.52,0,0,1-.52.52.52.52,0,0,1-.53-.52.53.53,0,0,1,.53-.53A.52.52,0,0,1,463.11,90.36Z" style="fill: #09ffff;fill-rule: evenodd"/>
          <circle cx="410.04" cy="94.22" r="0.52" style="fill: #09ffff"/>
          <path d="M425.75,182.1a.52.52,0,0,1-.52.52.52.52,0,0,1-.53-.52.53.53,0,0,1,.53-.53A.52.52,0,0,1,425.75,182.1Z" style="fill: #09ffff;fill-rule: evenodd"/>
          <path d="M223.94,135.73a.53.53,0,0,1-.53.53.52.52,0,0,1-.52-.53.52.52,0,0,1,.52-.52A.52.52,0,0,1,223.94,135.73Z" style="fill: #09b9ea;fill-rule: evenodd"/>
          <path d="M190.89,114.24a.53.53,0,0,1-.53.53.52.52,0,0,1-.52-.53.52.52,0,0,1,.52-.52A.52.52,0,0,1,190.89,114.24Z" style="fill: #0998e3;fill-rule: evenodd"/>
          <circle cx="165.54" cy="102.27" r="0.52" style="fill: #0998e3"/>
          <path d="M135.24,78.29a.52.52,0,0,1-.52.52.52.52,0,0,1-.53-.52.53.53,0,0,1,.53-.53A.52.52,0,0,1,135.24,78.29Z" style="fill: #095cc0;fill-rule: evenodd"/>
          <path d="M103.5,39a.52.52,0,0,1-.53.52.52.52,0,0,1-.52-.52.52.52,0,0,1,.52-.53A.53.53,0,0,1,103.5,39Z" style="fill: #095cc0;fill-rule: evenodd"/>
          <circle cx="165.02" cy="21.07" r="0.52" style="fill: #095cc0"/>
          <path d="M112.33,157.43a.52.52,0,0,1-.52.52.52.52,0,0,1-.53-.52.53.53,0,0,1,.53-.53A.52.52,0,0,1,112.33,157.43Z" style="fill: #095cc0;fill-rule: evenodd"/>
          <path d="M198.91,113.72a.52.52,0,0,1-.53.52.52.52,0,0,1-.52-.52.52.52,0,0,1,.52-.53A.53.53,0,0,1,198.91,113.72Z" style="fill: #095cc0;fill-rule: evenodd"/>
          <path d="M203.25,16.7a.52.52,0,0,1-.52.52.52.52,0,0,1-.53-.52.53.53,0,0,1,.53-.53A.52.52,0,0,1,203.25,16.7Z" style="fill: #095cc0;fill-rule: evenodd"/>
          <circle cx="82.95" cy="72.63" r="0.52" style="fill: #0998e3"/>
          <circle cx="110.67" cy="100.09" r="0.52" style="fill: #0998e3"/>
          <path d="M118.07,35.34a.52.52,0,0,1-.52.52.52.52,0,0,1-.53-.52.53.53,0,0,1,.53-.53A.52.52,0,0,1,118.07,35.34Z" style="fill: #0998e3;fill-rule: evenodd"/>
          <path d="M115.18,173.58a.52.52,0,0,1-.52.52.52.52,0,0,1-.53-.52.53.53,0,0,1,.53-.53A.52.52,0,0,1,115.18,173.58Z" style="fill: #0998e3;fill-rule: evenodd"/>
          <path d="M53,96.77a.53.53,0,0,1-.53.53.53.53,0,0,1,0-1A.53.53,0,0,1,53,96.77Z" style="fill: #0998e3;fill-rule: evenodd"/>
          <path d="M64.92,22.12a.52.52,0,0,1-.52.53.53.53,0,0,1-.53-.53.52.52,0,0,1,.53-.52A.52.52,0,0,1,64.92,22.12Z" style="fill: #0998e3;fill-rule: evenodd"/>
          <path d="M135.77,59.15a.52.52,0,0,1-.53.52.52.52,0,0,1-.52-.52.52.52,0,0,1,.52-.53A.53.53,0,0,1,135.77,59.15Z" style="fill: #0998e3;fill-rule: evenodd"/>
          <path d="M95.14,81.31a.53.53,0,0,1-.53.53.52.52,0,0,1-.52-.53.52.52,0,0,1,.52-.52A.52.52,0,0,1,95.14,81.31Z" style="fill: #09ffff;fill-rule: evenodd"/>
          <path d="M138.89,21.6a.52.52,0,0,1-.53.52.52.52,0,0,1-.52-.52.52.52,0,0,1,.52-.53A.53.53,0,0,1,138.89,21.6Z" style="fill: #09ffff;fill-rule: evenodd"/>
          <path d="M175.62,163.89a.52.52,0,0,1-.52.53.53.53,0,0,1-.53-.53.52.52,0,0,1,.53-.52A.52.52,0,0,1,175.62,163.89Z" style="fill: #92ffff;fill-rule: evenodd"/>
          <path d="M142.86,150.84a.52.52,0,0,1-.52.52.52.52,0,0,1-.53-.52.53.53,0,0,1,.53-.53A.52.52,0,0,1,142.86,150.84Z" style="fill: #09ffff;fill-rule: evenodd"/>
          <path d="M74.37,170.19a.52.52,0,0,1-.52.53.53.53,0,0,1-.53-.53.52.52,0,0,1,.53-.52A.52.52,0,0,1,74.37,170.19Z" style="fill: #09ffff;fill-rule: evenodd"/>
          <circle cx="41.48" cy="24.33" r="0.52" style="fill: #095cc0"/>
          <path d="M50.85,142.73a.52.52,0,0,1-.53.52.52.52,0,0,1-.52-.52.52.52,0,0,1,.52-.53A.53.53,0,0,1,50.85,142.73Z" style="fill: #095cc0;fill-rule: evenodd"/>
          <path d="M22,57.93a.52.52,0,0,1-.53.52.52.52,0,0,1-.52-.52.52.52,0,0,1,.52-.53A.53.53,0,0,1,22,57.93Z" style="fill: #0998e3;fill-rule: evenodd"/>
          <path d="M49.71,85.39a.53.53,0,0,1-.53.53.52.52,0,0,1-.52-.53.52.52,0,0,1,.52-.52A.52.52,0,0,1,49.71,85.39Z" style="fill: #0998e3;fill-rule: evenodd"/>
          <path d="M56.58,20.64a.52.52,0,0,1-.52.52.52.52,0,0,1-.53-.52.53.53,0,0,1,.53-.53A.52.52,0,0,1,56.58,20.64Z" style="fill: #0998e3;fill-rule: evenodd"/>
          <path d="M53.7,158.88a.52.52,0,0,1-.53.52.52.52,0,0,1-.52-.52.52.52,0,0,1,.52-.53A.53.53,0,0,1,53.7,158.88Z" style="fill: #0998e3;fill-rule: evenodd"/>
          <path d="M3.44,7.42A.53.53,0,0,1,2.91,8a.53.53,0,0,1,0-1A.53.53,0,0,1,3.44,7.42Z" style="fill: #0998e3;fill-rule: evenodd"/>
          <path d="M33.65,66.62a.52.52,0,0,1-.53.52.52.52,0,0,1-.52-.52.52.52,0,0,1,.52-.53A.53.53,0,0,1,33.65,66.62Z" style="fill: #09ffff;fill-rule: evenodd"/>
          <path d="M12.89,155.49a.53.53,0,0,1-.53.53.52.52,0,0,1-.52-.53.52.52,0,0,1,.52-.52A.52.52,0,0,1,12.89,155.49Z" style="fill: #09ffff;fill-rule: evenodd"/>
          <path d="M217.25,51.2a.52.52,0,0,1-.53.52.52.52,0,0,1-.52-.52.52.52,0,0,1,.52-.53A.53.53,0,0,1,217.25,51.2Z" style="fill: #09ffff;fill-rule: evenodd"/>
          <path d="M199.43,81.31a.52.52,0,0,1-.52.53.53.53,0,0,1-.53-.53.52.52,0,0,1,.53-.52A.52.52,0,0,1,199.43,81.31Z" style="fill: #09ffff;fill-rule: evenodd"/>
          <path d="M146.89,85.18a.53.53,0,0,1-.53.53.52.52,0,0,1-.52-.53.52.52,0,0,1,.52-.52A.52.52,0,0,1,146.89,85.18Z" style="fill: #09ffff;fill-rule: evenodd"/>
          <path d="M166.59,158a.52.52,0,0,1-.52.53.53.53,0,0,1-.53-.53.52.52,0,0,1,.53-.52A.52.52,0,0,1,166.59,158Z" style="fill: #09ffff;fill-rule: evenodd"/>
          <path d="M599.53,172.08a.52.52,0,0,1-.52.52.52.52,0,0,1-.53-.52.53.53,0,0,1,.53-.53A.52.52,0,0,1,599.53,172.08Z" style="fill: #09ffff;fill-rule: evenodd"/>
          <path d="M672.89,105.8a.52.52,0,0,1-.52.53.53.53,0,0,1-.53-.53.52.52,0,0,1,.53-.52A.52.52,0,0,1,672.89,105.8Z" style="fill: #0998e3;fill-rule: evenodd"/>
          <path d="M629.58,82.63a.52.52,0,0,1-.52.52.52.52,0,0,1-.53-.52.53.53,0,0,1,.53-.53A.52.52,0,0,1,629.58,82.63Z" style="fill: #0998e3;fill-rule: evenodd"/>
          <path d="M281,28.89a.52.52,0,0,1-.52.53.53.53,0,0,1-.53-.53.52.52,0,0,1,.53-.52A.52.52,0,0,1,281,28.89Z" style="fill: #0998e3;fill-rule: evenodd"/>
          <path d="M592.58,120.5a.53.53,0,0,1-.53.53.52.52,0,0,1-.52-.53.52.52,0,0,1,.52-.52A.52.52,0,0,1,592.58,120.5Z" style="fill: #0998e3;fill-rule: evenodd"/>
          <path d="M646.27,138.33a.53.53,0,0,1-.53.53.52.52,0,0,1-.52-.53.52.52,0,0,1,.52-.52A.52.52,0,0,1,646.27,138.33Z" style="fill: #0998e3;fill-rule: evenodd"/>
          <circle cx="669.42" cy="99.17" r="0.52" style="fill: #09ffff"/>
          <circle cx="767.92" cy="7.29" r="0.53" style="fill: #0998e3"/>
          <path d="M699.62,45.06a.53.53,0,0,1-.53.53.52.52,0,0,1-.52-.53.52.52,0,0,1,.52-.52A.52.52,0,0,1,699.62,45.06Z" style="fill: #09b9ea;fill-rule: evenodd"/>
          <circle cx="724.83" cy="49.43" r="0.53" style="fill: #0998e3"/>
          <path d="M724.83,96.28a.52.52,0,0,1-.52.53.53.53,0,0,1-.53-.53.52.52,0,0,1,.53-.52A.52.52,0,0,1,724.83,96.28Z" style="fill: #09ffff;fill-rule: evenodd"/>
          <path d="M762,80.06a.53.53,0,0,1-.53.53.52.52,0,0,1-.52-.53.52.52,0,0,1,.52-.52A.52.52,0,0,1,762,80.06Z" style="fill: #0998e3;fill-rule: evenodd"/>
          <path d="M718.65,56.89a.52.52,0,0,1-.53.52.52.52,0,0,1-.52-.52.52.52,0,0,1,.52-.53A.53.53,0,0,1,718.65,56.89Z" style="fill: #0998e3;fill-rule: evenodd"/>
          <path d="M735.34,112.59a.53.53,0,0,1-.53.53.52.52,0,0,1-.52-.53.52.52,0,0,1,.52-.52A.52.52,0,0,1,735.34,112.59Z" style="fill: #0998e3;fill-rule: evenodd"/>
          <path d="M759,73.43a.52.52,0,0,1-.52.53.53.53,0,0,1-.53-.53.52.52,0,0,1,.53-.52A.52.52,0,0,1,759,73.43Z" style="fill: #09ffff;fill-rule: evenodd"/>
        </g>
        <g>
          <ellipse cx="513.33" cy="127.2" rx="46.16" ry="46.56" transform="translate(60.4 400.22) rotate(-45)" style="mix-blend-mode: screen;fill: url(#Áåçûìÿííûé_ãðàäèåíò_550)"/>
          <ellipse cx="513.88" cy="125.24" rx="39.38" ry="39.72" transform="translate(61.92 399.99) rotate(-44.99)" style="mix-blend-mode: screen;fill: url(#Áåçûìÿííûé_ãðàäèåíò_558)"/>
          <path d="M479.27,125.39a34.37,34.37,0,1,0,68.73,0,35.27,35.27,0,0,0-.2-3.73,34.37,34.37,0,0,0-68.53,3.73Z" style="fill: #fff;fill-rule: evenodd"/>
          <g style="opacity: 0.2">
            <path d="M522.31,148.62a8.21,8.21,0,0,1-1.45,2.49,4.54,4.54,0,0,1-2.46,1.29,3.56,3.56,0,0,1-1.5.38,7.88,7.88,0,0,0-1.68,0c-1.09.25-1.67,1.21-2.9,1.28a7.58,7.58,0,0,1-2.91-.63c-.94-.29-2.05-.7-2.92-1s-1.82-.62-2.81-.94-1.61-1.05-2.95-.68c-.08.5,0,1.28-.57,1.53-.42.17-1.11-.27-1.56-.45-1.17-.44-2.22-.69-3.33-1.15a5.26,5.26,0,0,1-1.47-.62c-.52-.38-1.08-.67-1.62-1-1-.67-2-1.4-3-2.08a15.55,15.55,0,0,1-4.33-5,16,16,0,0,1-1.35-3.24c-.47-1.4-.31-1.8.62-2.95,1.69.71,2.36-.34,1.89-2.14a12.38,12.38,0,0,1-.23-5.32c.06-.29.28-.5.33-.91a8.88,8.88,0,0,1,.08-1.26,7.24,7.24,0,0,0,.33-2.08,9.48,9.48,0,0,1,.09-2.5,4.8,4.8,0,0,0,.33-1.25,6.32,6.32,0,0,1,.09-1.57c.4-1.39,1.67-1.78,2.82-2.17.78-.28,1.17-.54,1.67,0s.4,1.35.41,2.09c0,1.39-.89,2.61-1.67,3.74-.34.5-.95,1-.86,1.68.05.38.52.44.49.82s-.54.6-.78.93c-2,2.59,1.75,4.87,3.54,6.25,1,.78,2.54,1.18,2.93,2.49s-.54,2.55-1.05,3.74-1,3.43-.22,4.6a3.43,3.43,0,0,0,1.47,1,10.14,10.14,0,0,1,1.65,1.26,5.53,5.53,0,0,0,3.66.94,4,4,0,0,0,2.08-.84,7.45,7.45,0,0,1,1.76-1.16,6.4,6.4,0,0,1,1.16-.08c.59-.07.7-.32,1.22-.45.88-.23,1.51.4,2.2.75a2.94,2.94,0,0,0,2,.54c.68-.18,1.48-.62,2.15-.76,1.58-.33,4.16-.44,5.43.64.64.54.86,1.3,1.44,1.88S522.14,147.34,522.31,148.62Z" style="fill: #635eb0;fill-rule: evenodd"/>
            <path d="M490.68,112.4c1.52,0,2.93-1.11,4.17-2a7.68,7.68,0,0,0,2.59-2.91c.15-.33.2-.6.32-.93,0-.08.39-1.07.39-1.1a2.91,2.91,0,0,0-.92-1.71c-1.24-1.28-3.13-.36-4.38.41a21.29,21.29,0,0,0-3.31,2.5,8.07,8.07,0,0,0-1.47,1.45,4.91,4.91,0,0,0-.31,2.61c0,1.4-1.82,3,.41,3.34.88.12,3.56-.62,3.76-1.68Z" style="fill: #635eb0;fill-rule: evenodd"/>
            <path d="M518.15,156.94c.38.42.83.13,1.26,0a3.59,3.59,0,0,1,1.24-.21,10.2,10.2,0,0,0,2.6-.2c.82-.21,1.61-.33,2.39-.53.32-.07.62-.25.93-.32s.42,0,.62,0,.1-.13.17-.15.31,0,.47,0a20.15,20.15,0,0,0,2.23-.58,4,4,0,0,0,1-.3c.31-.2.75-.42,1-.63a29.06,29.06,0,0,0,3.38-2.55c1-1,2-1.86,3-2.76.23-.21.42-.49.67-.68a6.73,6.73,0,0,0,.78-.57,12.47,12.47,0,0,0,1.35-1.72,30.33,30.33,0,0,0,2.53-3.46c.31-.63.59-1.24,1-1.84a9.75,9.75,0,0,0,.63-1.25c.13-.32.38-.69.47-1s.12-.87.25-1.31c.05-.19.17-.32.22-.5s-.07-.51,0-.75.18-.3.23-.5-.07-.51,0-.75.18-.3.23-.5-.09-.59,0-.85.18-.3.22-.51a3,3,0,0,0,0-.73c0-.54.19-.95.22-1.46a6.87,6.87,0,0,0,0-1.57c0-.21-.18-.3-.23-.5s.07-.55,0-.83c-.56-.14-.39,1-.38,1.34,0,.54-.22.83-.21,1.35s-.26.74-.64,1.21a3.77,3.77,0,0,0-.62.86c0,.18,0,.47-.09.64a2,2,0,0,0-.11.62c0,.51,0,.77-.36,1.1a3.23,3.23,0,0,1-1.08.58c-.48.11-.89.1-1.38.19-.21,0-.29.18-.5.23s-.54-.11-.8,0a1.86,1.86,0,0,0-.62.83,1.54,1.54,0,0,0,.16,1.21c.08.13.13.28.21.41s.29.3.38.46c.39.72-.18,1.89-.33,2.5-.06.24-.42,1-.22,1.17s1.37,0,1.6-.1c.13.27-.12.77-.2,1.05a4.75,4.75,0,0,1-.44,1.11,4.66,4.66,0,0,1-1.7,1.54c-.42.22-.68.34-.76-.23,0-.26,0-.4-.09-.64s-.26-.19-.33-.4.07-.51,0-.74-.16-.28-.2-.43c-.11-.49.08-1,0-1.54a2.08,2.08,0,0,0-1.78-1.67,15,15,0,0,1-2.59-.83,4.16,4.16,0,0,0-2.92-.26,12.64,12.64,0,0,0-2.16,1.12,6.93,6.93,0,0,1-1,.38c-.38.15-.78.3-1.16.41a8.41,8.41,0,0,0-2.11.69,6.24,6.24,0,0,0-1.83,1.4,3,3,0,0,0-.5,2.39c.22.52,1,1,1.39,1.42.64.75.47,1.25,0,2a4.4,4.4,0,0,0-.55,1,5.34,5.34,0,0,0,0,1.44,1.79,1.79,0,0,0,.36,1c.2.31.68.51.85.82s0,.42-.11.64c0,.06-.14.08-.17.14s0,.29-.09.43c-.21.48-.62.4-1,.52a2,2,0,0,1-1.25-.1,2.29,2.29,0,0,0-.62-.22c-.3-.05-.45.12-.67.17-.51.1-.81-.25-1.32-.28a1.23,1.23,0,0,0-1,.48,1.63,1.63,0,0,0-.59,1.1C517.35,156.31,517.87,156.57,518.15,156.94Z" style="fill: #635eb0;fill-rule: evenodd"/>
            <path d="M522.11,141.33a3,3,0,0,0-.37-.17,5.14,5.14,0,0,1-1.09,1c-.61.39-.91.14-1-.51-.07-.33.11-.54.17-.78s0-.57.3-.74,1.59-.12,1.41.58Z" style="fill: #635eb0;fill-rule: evenodd"/>
            <path d="M542.09,114.48a.34.34,0,0,0,.38.2,3.9,3.9,0,0,0,0-1.32c0-.2-.17-.29-.2-.54s0-.38,0-.58-.27-.67-.32-.92a3.9,3.9,0,0,0-.27-1c-.14-.34-.23-.78-.38-1.16a5.77,5.77,0,0,0-.49-.92c-.39-.64-.71-1.25-1.1-1.88a12.53,12.53,0,0,0-2.51-3.12c-.36-.3-.76-.52-1.13-.79-.13-.09-.23-.23-.36-.31s-.31-.12-.42-.2c-.33-.24-1.26-1.18-1.69-1,.29.78.8,1.55,1.17,2.31s1.23.83,1.87,1.45c1,1-.67,1.38-1.24,1.76s-.58.91-.58,1.52a4.53,4.53,0,0,1-.21,1.56c-.06.22-.18.5-.22.73l0,.43a.3.3,0,0,1-.18.24,2.24,2.24,0,0,0,.32,1.46,3.33,3.33,0,0,0,.73,1.36c.41.38.86.25,1.41.26a3.21,3.21,0,0,0,.83-.16c.21-.06.51-.18.67-.21s.49,0,.74-.09.27-.21.62-.12.7.5,1.08.59,1.12-.13,1.64,0C542.27,114.16,542.28,114.22,542.09,114.48Z" style="fill: #635eb0;fill-rule: evenodd"/>
            <path d="M503.15,141.06a2.72,2.72,0,0,1,1.75,1.2c.49.71-.42,1.44-.93,1.79a2.7,2.7,0,0,1-.59.35,2.29,2.29,0,0,1-.53.25c-.37,0-.51-.88-.65-1.16-.44-.92.26-1.58.95-2.12Z" style="fill: #635eb0;fill-rule: evenodd"/>
            <path d="M500.2,142.46l.13.1c.2-.44-.12-.92-.15-1.33a1.26,1.26,0,0,0-.92.84c0,.51.75.54,1.1.54Z" style="fill: #635eb0;fill-rule: evenodd"/>
            <path d="M494.76,122.26c.17-.76,1.24.08,1.52.34a1.61,1.61,0,0,1,.65,1.6c0,.38.16.69.16,1.09a3.8,3.8,0,0,1-.15,1.17,3,3,0,0,1-1.25,1.54,9.21,9.21,0,0,1-.93.51c-.41.22-.41.32-.83.1a5.23,5.23,0,0,1-1.38-.88,7.17,7.17,0,0,1-1.21-1.43c-.41-.71,0-1.25.39-1.87a12.43,12.43,0,0,1,1.67-2,3.32,3.32,0,0,1,.61-.63C494.41,121.62,494.84,122,494.76,122.26Z" style="fill: #635eb0;fill-rule: evenodd"/>
            <path d="M494.92,119.46l.12,0c0-.2.45-.85.16-1s-.55.29-.67.44-.4.71-.13,1a.39.39,0,0,0,.67-.35Z" style="fill: #635eb0;fill-rule: evenodd"/>
            <path d="M501.75,153.49a1.53,1.53,0,0,1,1.17-.3c.39.09.7.23,1.09.3a7.45,7.45,0,0,1,2.41.93c1,.6,2.67,2.28,1,3.13a5.18,5.18,0,0,1-2.27.29c-.39,0-.61-.16-1-.15a4.78,4.78,0,0,1-1.16-.24,11.89,11.89,0,0,1-2-.65,5.29,5.29,0,0,1-1.52-1.13,1.27,1.27,0,0,1-.08-1.91c.35-.35.65-.27,1.13-.27Z" style="fill: #635eb0;fill-rule: evenodd"/>
            <path d="M497.56,153.18a.24.24,0,0,0,.29.14c.17-.35-.71-.91-1-1-.42-.21-1.21-.65-1.37,0-.1.44.39,1,.78,1.25a1,1,0,0,0,1.4-.55Z" style="fill: #635eb0;fill-rule: evenodd"/>
            <path d="M484.66,123.81l.13,0a5.34,5.34,0,0,1-.13,1.83c0,.62,0,1.25,0,1.87v1.86a3.74,3.74,0,0,1,0,.75,1.62,1.62,0,0,0-.13.34c0,.2,0,.42,0,.62a4.49,4.49,0,0,1,0,.9s-.11.31-.12.35,0,.19-.11.35a1.06,1.06,0,0,1-1.3.47c-.38-.2-.67-.5-1.07-.67a2,2,0,0,1-1.09-1.09,7.94,7.94,0,0,1-.47-1.4c0-.14-.13-.16-.16-.3s0-.29,0-.44-.11-.19-.13-.34,0-.21,0-.32a.21.21,0,0,0-.13-.18,3.74,3.74,0,0,1,0-.75c0-.33-.14-.59-.16-.93s-.16-.58-.16-.93,0-.62,0-.93c0-.62,0-1.25,0-1.87a3.29,3.29,0,0,1,.16-.77c.06-.31.08-.64.14-1s.24-.45.29-.64a2,2,0,0,1,.31-.75,2.08,2.08,0,0,1,1.08-1,1.76,1.76,0,0,1,1.72.24,1.63,1.63,0,0,1,.51.57c0,.13,0,.31,0,.44a1.41,1.41,0,0,1,.12.5,9.19,9.19,0,0,0,0,2c.06.28.25.62.35.92S484.35,124.34,484.66,123.81Z" style="fill: #635eb0;fill-rule: evenodd"/>
            <path d="M485.44,115.88c.4-.12.62.8.62,1.09s.08.54-.15.71a1.33,1.33,0,0,1-.79.08c-.49-.15-.45-.85-.46-1.25s.37-1,.93-.94Z" style="fill: #635eb0;fill-rule: evenodd"/>
            <path d="M538.74,115.26l0-.12c.16,0,.24-.14.37-.17a1.89,1.89,0,0,1,.53,0,5.3,5.3,0,0,0,.93-.16,5,5,0,0,1,.55,0c.2,0,.28.1.42.13a1.88,1.88,0,0,1,.9.26,4.34,4.34,0,0,1,1.09,1.39,3.94,3.94,0,0,1,.62,2,1.32,1.32,0,0,1-.18.83,3.72,3.72,0,0,0-.41.76,1.15,1.15,0,0,1-1.28.89,3.94,3.94,0,0,1-1.86-.69,7.87,7.87,0,0,1-.72-.53,2.48,2.48,0,0,1-.61-.48,5.5,5.5,0,0,1-.62-1.87,2.78,2.78,0,0,1-.06-1.15c0-.07.09-.08.11-.13s0-.25,0-.36S538.79,115.46,538.74,115.26Z" style="fill: #635eb0;fill-rule: evenodd"/>
            <path d="M537,116.51c.4,0-.14-1.12-.58-1.06s-.72.67-.81,1c-.38,1.39,1.73,1.5,1.7.22Z" style="fill: #635eb0;fill-rule: evenodd"/>
            <path d="M531.9,119c0,.33.36.53.43.81a.9.9,0,0,1-.23.79c-.14.19-.41.49-.67.43s-.41-.4-.61-.56c-.41-.3-1.14-.62-.63-1.24a1.4,1.4,0,0,1,.86-.39,1.18,1.18,0,0,1,1,.32Z" style="fill: #635eb0;fill-rule: evenodd"/>
            <path d="M542.62,132.82c.58.14.53-.74.45-1.06a3.59,3.59,0,0,0-.75-.19,2.32,2.32,0,0,0-.91.36,1.07,1.07,0,0,0-.43,1.36c.17.33.93.83,1.3.59a2,2,0,0,0,.5-1.37Z" style="fill: #635eb0;fill-rule: evenodd"/>
            <path d="M498.8,99.41c.15-.28.25-.4,0-.62a.75.75,0,0,0-.74-.12,2.84,2.84,0,0,0-1,.86,1.74,1.74,0,0,0-.39.7.94.94,0,0,0,.23.62,10.31,10.31,0,0,0,.94.93c.45.46.72.19,1.09-.23s.51-.73.78-1.08a3.34,3.34,0,0,0,.31-.63.89.89,0,0,0-.19-.59,3.08,3.08,0,0,0-1.17-.93Z" style="fill: #635eb0;fill-rule: evenodd"/>
            <path d="M495.07,100.66l.13,0a.53.53,0,0,1-.43.76c-.36.08-.87-.07-.95-.39s.24-.62.47-.79.7-.32.78.24Z" style="fill: #635eb0;fill-rule: evenodd"/>
            <path d="M497.4,140.44a2.31,2.31,0,0,0,.19.74,6.46,6.46,0,0,0,.28.73,3.21,3.21,0,0,1,.23.78c0,.28.19.51.24.77.11.59-.57,1-1.1.87a4,4,0,0,1-1.27-.75c-.26-.18-.32-.15-.47-.46a8,8,0,0,1-.27-.83,2.07,2.07,0,0,1-.16-.77,3.63,3.63,0,0,1,0-.93c.35-1.46,2-.52,2.29.47Z" style="fill: #635eb0;fill-rule: evenodd"/>
            <path d="M492.74,150.54c.15-.55-.88-.93-1.24-.93s-.5,0-.66.42a.82.82,0,0,0,0,.9,1.75,1.75,0,0,0,1.78.53c.65-.26.37-1.12-.22-1.23Z" style="fill: #635eb0;fill-rule: evenodd"/>
            <path d="M499.42,139.35a.84.84,0,0,0,.48-.46c0-.14,0-.29,0-.44a1.51,1.51,0,0,0,.13-.34c0-.15,0-.32,0-.47s.14-.3.17-.47-.07-.63,0-.93.32-.6.13-.9-.49-.22-.75-.19-.49.13-.77.19a3.69,3.69,0,0,0-1,.43,2.14,2.14,0,0,0-1,1.16,4.72,4.72,0,0,0,.08,1.8,1.9,1.9,0,0,0,.69,1.17,2.43,2.43,0,0,0,1.72-.08Z" style="fill: #635eb0;fill-rule: evenodd"/>
            <path d="M495.85,139v-.1c.14.75-.75.66-.94.11s.81-.84.94-.17Z" style="fill: #635eb0;fill-rule: evenodd"/>
          </g>
        </g>
        <g>
          <path d="M-4.79,185.34s430,15.32,488.17,19.4,317.07-24.47,317.07-24.47L800,400H0Z" style="fill: #90ffff"/>
          <path d="M-5.92,188.29s430,15.32,488.17,19.4,318.42-24.47,318.42-24.47L798.87,403h-800Z" style="fill: url(#linear-gradient)"/>
          <path d="M562.4,205.21c-11.12.74-21.68,1.37-31.41,1.85,55.39,3.07,198.61,10.27,269.42,7l.09-10C755.94,205.14,620.31,208,562.4,205.21Z" style="opacity: 0.14;mix-blend-mode: multiply;fill: url(#Áåçûìÿííûé_ãðàäèåíò_276)"/>
          <path d="M800.53,200.16l0-3.46c-20.71-.86-55-2.5-82.78-4.91-6.59.66-13.42,1.32-20.43,2C730.1,196.24,771.93,199.13,800.53,200.16Z" style="opacity: 0.14;mix-blend-mode: multiply;fill: url(#Áåçûìÿííûé_ãðàäèåíò_276-2)"/>
          <path d="M543.51,233.45c85.92,14.19,24.2,0,24.2,0l-155-18.86q-25,1.42-47.47,2.54C395.05,218.25,475.13,222.16,543.51,233.45Z" style="opacity: 0.14;mix-blend-mode: multiply;fill: url(#Áåçûìÿííûé_ãðàäèåíò_276-3)"/>
          <g style="opacity: 0.33;mix-blend-mode: multiply">
            <polygon points="355.76 239.09 814.96 212.28 814.19 229 359.81 244.61 355.76 239.09" style="fill: #837700"/>
          </g>
          <path d="M493.09,209.5q-14.65,1-28.64,1.92c78.31,4.89,269.65,16.11,335.88,13.4l0-6.09C751.23,219.52,552.88,221.89,493.09,209.5Z" style="opacity: 0.14;mix-blend-mode: multiply;fill: url(#Áåçûìÿííûé_ãðàäèåíò_276-4)"/>
          <path d="M521.56,207.49c-176.13,12.77-286.33,14.85-332.94,15l31.27,20.52,60.43-9.6s6-3.68,94.81-12.36c75.21-7.35,344.55-22.2,425.44-26.59l.1-11.28S614.07,203.7,521.56,207.49Z" style="opacity: 0.21;mix-blend-mode: screen;fill: url(#linear-gradient-2)"/>
          <path d="M177,244.17l-14.08-21.75S280.48,225,521.56,207.49c-16.73.69-30.39.83-39.31.2C424,203.61-5.92,188.29-5.92,188.29L-1.13,403h800l1-126.89Z" style="opacity: 0.5;mix-blend-mode: screen;fill: url(#linear-gradient-3)"/>
          <path d="M256.43,221.39l-94.53-27-30.7-1.14C159.59,199.23,202.78,209,247,221.63Z" style="opacity: 0.14;mix-blend-mode: multiply;fill: url(#Áåçûìÿííûé_ãðàäèåíò_335)"/>
          <path d="M388.07,216q8.55-.45,17.42-1c-14.07-4.36-31-8.9-50.84-13.15-18.86-.76-38.85-1.55-59.36-2.35C327,203.76,360.6,209.29,388.07,216Z" style="opacity: 0.14;mix-blend-mode: multiply;fill: url(#Áåçûìÿííûé_ãðàäèåíò_335-2)"/>
          <path d="M180.51,195.11c34.24,6.47,81.82,15.78,122,24.77l7.24-.28c-31.17-8.27-64.71-17-88.76-23Z" style="opacity: 0.14;mix-blend-mode: multiply;fill: url(#Áåçûìÿííûé_ãðàäèåíò_335-3)"/>
        </g>
        <g>
          <path d="M187.57,190.49s-6.88-3.22,7.28-5.4c0,0-8-3.73,6-6.67s12.76,3.4,4.6,3.86c0,0,12.82-2.43,20.93-.51,0,0,4.41-6.3,20.26-4.13s4.42,5.58,4.42,5.58,22.77-3.14,12.41,1.28c0,0,15.85-1.88,1.38-7s-56-9.36-60.77-8.34-18,7.43-20.25,9.25-7.09,4.8-6.86,6.37S180.26,190.71,187.57,190.49Z" style="fill: #00061c"/>
          <path d="M190.83,170.72c4.4,19.77,18.2,21.41,18.91,28.74s7.6,34.63,2.84,47l46.2.57s-12.26-13.38-17.26-28.58-6-24-6.26-28.21,19.38-4.92,22.38-25.78-1.11-2-1.11-2-2.11,19.62-21.27,23.77c0,0,13-8.6,9.51-24.94l-2.25-.83s3.25,16.28-9.26,24c0,0-10.8-5.33-9.53-20.94l-1.36-.73a22.6,22.6,0,0,0,1.36,11.87c2.53,6.28,8.33,9.06,8.43,19.3S239,241,239,241s-16.83,0-17.05-9.89-6.92-30.94-5.19-39,.15-31.79.15-31.79l-1.53.36s1.6,29.54-1.4,31.43-11.26-30.79-11.26-30.79l-1.64,2.26s8.89,27.68,10.14,30.68-17.26-6.8-19-26Z" style="fill: url(#Áåçûìÿííûé_ãðàäèåíò_463)"/>
          <path d="M187.57,190.49c-10.28-2.09-4.09-4.78,4.08-6,0,0-10.66-1.33-4.79-4.44s39.51-7.49,33.56-3.07l4.26.85s-3.41-1.88,4.76-2.73,39.77.78,23.83,3.42c0,0,27.68,2.75,10.18,6,0,0,18.59-2,.55-7.85,0,0,14.22-6.29-.55-12.59,0,0,9.73-12.51-20.57-10.59s-19.57,7-19.57,7-36.87-5.1-32.48,4.77c0,0-23,3.4-11.09,13.45,0,0-6.92.58-7.72,6S187.57,190.49,187.57,190.49Z" style="fill: #54b5ff"/>
          <path d="M191.65,184.5s-10.66-1.33-4.79-4.44,39.51-7.49,33.56-3.07l4.26.85s-3.41-1.88,4.76-2.73,39.77.78,23.83,3.42c0,0,14.83,1.47,15.91,3.53-.29-2-2.53-4.23-9.71-5.78,0,0,16.71-9.11-2.94-13.81,0,0,.64-7.89-18.13-7.83s-17.1,5.93-11.61,7c0,0-37.23-6.26-33,4.21,0,0-24.85,2.3-12.6,13.28,0,0-13.81,5.29-6.27,9.2.28.12.57.24.87.35a50.93,50.93,0,0,0,7.44,1.54c2.44.27,4.32.31,4.32.31C177.29,188.4,183.48,185.71,191.65,184.5Z" style="fill: #2d4085;mix-blend-mode: multiply"/>
          <path d="M193.81,173.11s24-6.1,30,0c0,0,3.93-7.85,33.87,1,0,0-21.5-8.91-32.88-3.52,0,0,1.89-4.48,13.81-4.48,0,0-14-1.35-16.13,4C222.49,170.11,212.82,165.79,193.81,173.11Z" style="fill: #2d4085;opacity: 0.39;mix-blend-mode: multiply"/>
        </g>
        <g>
          <path d="M772.15,167.78c2.71-.13-2.5-3,10.88-3.13s9.25,1.86,4.44,3.58l14.12-.45,10.64-.57s3.41-8,2.73-8.9-36.37-.15-38.05-.2S761.5,163,761.5,163l.93,3.18S768.32,168,772.15,167.78Z" style="fill: #00061c"/>
          <path d="M833.92,162c-4.4,19.77-18.2,21.4-18.91,28.74s-7.6,34.63-2.84,47l-46.2.58s12.26-13.38,17.26-28.58,6-24,6.26-28.21S770,175.7,767,154.84s1.25-1.09,1.25-1.09,2.11,19.62,21.27,23.76c0,0-13-8.59-9.51-24.93l2.25-.83s-3.25,16.28,9.26,24c0,0,10.8-5.32,9.53-20.93l1.36-.73A22.61,22.61,0,0,1,801,166c-2.53,6.28-8.33,9.06-8.43,19.3s-6.86,47-6.86,47,16.83,0,17-9.89,6.92-30.94,5.19-39,0-35.94,0-35.94l1.53.36s-1.75,33.69,1.25,35.58S822,152.58,822,152.58l1.64,2.26s-8.89,27.68-10.15,30.68,17.27-6.81,19-26Z" style="fill: url(#Áåçûìÿííûé_ãðàäèåíò_463-2)"/>
          <path d="M772.15,167.78l-5.69-1.55a1.07,1.07,0,0,1,.15-2.1c8.82-1,26.41-2.83,36.26-1.71,13.53,1.53,6.53,3.7-1.28,5.36,0,0,11.83.51,18,2.72,0,0-6.47-3-5.28-4.22s18.38-1.65,20.68-1-1.45,1-1.45,1,10.13.48,12.18,1.07c0,0-4.52-1.26-1.79-2.54s17.46,5.35,8.64,4.5c0,0,4,.57,5.66,1.73,0,0,.25-.37-.69-1,0,0,5,0,.72-3.83,0,0,13.75-13.91-6.93-23.38s-25.44-1-23.4,1.81c0,0-9.28-1.75-13.11.46s.6,4.43.6,4.43-9.88,2.29-7.66,4.68l-4-.35s6.2-5.77-3-8.12-13.62-1.66-13.62-1.66,3.92-3.57-4.85-2.3-23.7,2.54-19.91,7.15C762.45,149,737.26,169.11,772.15,167.78Z" style="fill: #54b5ff"/>
          <path d="M766.61,164.13c8.82-1,26.41-2.83,36.26-1.71l.36,0L802,153.21C810.53,142,782.58,146,782.58,146s8.38-3.91-5.26-1.53a29,29,0,0,0-19.55,12.94c-3.24,10.89,14.38,10.35,14.38,10.35l-5.69-1.55A1.07,1.07,0,0,1,766.61,164.13Z" style="fill: #2d4085;mix-blend-mode: multiply"/>
          <path d="M765.9,161.34s20.81-7.29,40-1.79c0,0-10.08-3.91-7.79-5.59,0,0-2.77,1.4-.36,3.11,0,0-14.26-7-27.21-2.86,0,0,12.61-2.57,21.56,2A57.28,57.28,0,0,0,765.9,161.34Z" style="fill: #2d4085;opacity: 0.39;mix-blend-mode: multiply"/>
        </g>
        <g>
          <path d="M-9.38,164.23s-4.57-3.15,14.64-3.82,24.17-.6,11.91,3c0,0,11.06.17,18,2.73,0,0-4-2.08,7.32-3S55,163,49.94,165.68c0,0,22.45-5.08,13.06-1.45l5.2.68,3.2.7,1.37-2.87-5.17-6.38s-45.32-3.25-47.37-3.09-22.23-.71-24.65-.39-21.81,6.58-21.81,6.58l-5.62,8.14Z" style="fill: #00061c"/>
          <path d="M69.94,149.61c-1.75,19.24-20.27,29-19,26S61.07,145,61.07,145l-1.64-2.26S51.17,175.4,48.17,173.5s-1.25-35.58-1.25-35.58l-1.53-.36s-1.1,17.82-.66,29.1c0,0-6.76-3.95-8-6.25s7.55-6,4.32-16.6H39.81s4.08,7.94-4.09,14.61c0,0-7.66-6.78-7.49-10.61L27,149c-.34,5.41,17.53,18.72,17.94,21.64a26.77,26.77,0,0,0,.41,2.91c1.73,8.11-4.68,34-4.9,43.87S-.33,222.44-.33,222.44s6.76-36.78,6.86-47,5.9-13,8.43-19.3a22.6,22.6,0,0,0,1.36-11.87L15,145c1.27,15.61-9.53,20.94-9.53,20.94-12.51-7.75-9.26-24-9.26-24l-2.25.83c-3.5,16.34,9.51,24.94,9.51,24.94-19.16-4.15-21.27-23.77-21.27-23.77s-4.25-19.77-1.25,1.09S3.68,167.4,3.43,171.65s-1.25,13-6.26,28.21-17.26,28.58-17.26,28.58l69.68-.57c-4.77-12.37,2.12-39.67,2.83-47s14.51-9,18.92-28.74Z" style="fill: url(#Áåçûìÿííûé_ãðàäèåíò_463-3)"/>
          <path d="M-12.28,163.38l-10.89-3S4.92,156.49,18.45,158s6.52,3.71-1.28,5.36c0,0,11.83.51,18,2.73,0,0-6.47-3-5.27-4.22s18.38-1.66,20.68-1-1.45,1-1.45,1,10.13.47,12.17,1.07c0,0-4.51-1.27-1.79-2.55s17.46,5.36,8.65,4.5c0,0,4,.57,5.65,1.74,0,0,.26-.37-.68-1,0,0,5,0,.71-3.83,0,0,13.76-13.91-6.92-23.38s-25.45-.95-23.41,1.81c0,0-9.27-1.75-13.1.46s.59,4.43.59,4.43-9.87,2.3-7.66,4.68l-4-.35s6.2-5.77-3-8.11-13.61-1.67-13.61-1.67,3.91-3.57-4.85-2.29S-25.76,140-22,144.57C-22,144.57-47.16,164.72-12.28,163.38Z" style="fill: #54b5ff"/>
          <path d="M66.7,159.13s16.68-10.29.68-18.6-25.85-5.65-22.2.86c0,0-10-3.09-15.58,0-2.17,2,1.44,3.8,1.44,3.8s-9.87,2.3-7.66,4.68l-4-.35.37-.39c1.33-1.56,4.6-7.32-18.77-7.72,0,0,3.91-3.29-4.91-3.71-8.85,1.21-21.6,2.6-18.07,6.89,0,0-25.18,20.15,9.7,18.81l-10.89-3S4.92,156.49,18.45,158s6.52,3.71-1.28,5.36c0,0,11.83.51,18,2.73,0,0-6.47-3-5.27-4.22s18.38-1.66,20.68-1-1.45,1-1.45,1,10.13.47,12.17,1.07c0,0-4.51-1.27-1.79-2.55,2.32-1.09,13.31,3.54,11.14,4.43C73.51,164.57,72.15,161.68,66.7,159.13Z" style="fill: #2d4085;mix-blend-mode: multiply"/>
          <path d="M63,157.51s-19.4-5.11-34.34,0c0,0,5.22-3.67-15.2-1.13,0,0,2.31-6.36-20.29-3.19,0,0,22.34-6.25,21.32,1.72,0,0,17.23-1.48,15.7.56,0,0,9.58-5-3.7-4.75,0,0,14-2.44,7.28,3.39,0,0,9.71-8.49,26.93-3.9,0,0-13.4-3.17-25.4,4.49C35.3,154.7,49.6,151.51,63,157.51Z" style="fill: #2d4085;opacity: 0.39;mix-blend-mode: multiply"/>
        </g>
        <g>
          <polygon points="307.47 242.78 811.47 216.74 811.47 275.71 307.47 242.78" style="fill: #1f225e"/>
          <polygon points="307.47 244.57 811.47 218.53 811.47 277.51 307.47 244.57" style="fill: url(#linear-gradient-4)"/>
          <g style="opacity: 0.22;mix-blend-mode: multiply">
            <path d="M726.83,237.52c-.21-2.28,39.32-3.91,47.23-1.17S727.08,240.29,726.83,237.52Z" style="fill: #ba4122"/>
          </g>
          <g style="opacity: 0.22;mix-blend-mode: multiply">
            <path d="M777.12,235.47c-2.81-2,23.49-1.8,29.37,0S779.42,237.1,777.12,235.47Z" style="fill: #ba4122"/>
          </g>
          <g style="opacity: 0.22;mix-blend-mode: multiply">
            <path d="M777.49,237.77c-1.86-.68,12.25-.25,13,0S779.79,238.6,777.49,237.77Z" style="fill: #ba4122"/>
          </g>
          <g style="opacity: 0.22;mix-blend-mode: multiply">
            <path d="M628.06,233.31c2-.41,52.68-1.06,57.54.27S620.06,235,628.06,233.31Z" style="fill: #ba4122"/>
          </g>
          <g style="opacity: 0.22;mix-blend-mode: multiply">
            <path d="M683.3,230.74c-1.77-.32,24.71-2.46,28.53-1.48S691.47,232.22,683.3,230.74Z" style="fill: #ba4122"/>
          </g>
          <g style="opacity: 0.44;mix-blend-mode: multiply">
            <polygon points="811.47 242.53 409.93 240.09 409.93 248.02 803.81 248.02 811.47 242.53" style="fill: #ba4122"/>
          </g>
        </g>
        <g>
          <polygon points="-4.79 374.79 214.02 363.3 256.92 332.66 380.23 330.22 605.42 307.38 542.62 400 0 400 -4.79 374.79" style="fill: url(#linear-gradient-5)"/>
          <g style="opacity: 0.44;mix-blend-mode: multiply">
            <polygon points="449.68 347.04 112.15 411.55 372.57 395.72 449.68 347.04" style="fill: #ba4122"/>
          </g>
          <g style="opacity: 0.6000000000000001;mix-blend-mode: multiply">
            <polygon points="264.15 362.53 280.83 362.53 330.53 337.51 250.12 337.51 214.02 363.3 -4.79 374.79 0 400 205.96 400 234.51 387.39 264.15 362.53" style="fill: #ba4122"/>
          </g>
          <path d="M322.32,334.11s125-9.74,153.91,17.7c31.86,30.21,18.4-44.43,18.4-44.43l-181.8,20Z" style="fill: #3d80d8"/>
          <g style="opacity: 0.22;mix-blend-mode: multiply">
            <path d="M370,343.3c-.21-6.44,39.32-11,47.24-3.31S370.28,351.13,370,343.3Z" style="fill: #ba4122"/>
          </g>
          <g style="opacity: 0.22;mix-blend-mode: multiply">
            <path d="M420.32,337.51c-2.82-5.63,23.49-5.11,29.36,0S422.62,342.11,420.32,337.51Z" style="fill: #ba4122"/>
          </g>
          <g style="opacity: 0.22;mix-blend-mode: multiply">
            <path d="M318.19,359c1.29-5.19,26-3.78,30.38,0S316.66,365.19,318.19,359Z" style="fill: #ba4122"/>
          </g>
          <g style="opacity: 0.22;mix-blend-mode: multiply">
            <path d="M342.7,341.15c-1.86-1.91,12.26-.7,13,0S345,343.52,342.7,341.15Z" style="fill: #ba4122"/>
          </g>
          <g style="opacity: 0.22;mix-blend-mode: multiply">
            <path d="M346.75,355.53c-1.86-1.91,12.26-.7,13,0S349.05,357.89,346.75,355.53Z" style="fill: #ba4122"/>
          </g>
          <g style="opacity: 0.22;mix-blend-mode: multiply">
            <path d="M420.68,344c-1.86-1.91,12.26-.7,13,0S423,346.36,420.68,344Z" style="fill: #ba4122"/>
          </g>
          <g style="opacity: 0.22;mix-blend-mode: multiply">
            <path d="M46.15,390.24c-.21-6.44,39.32-11,47.23-3.31S46.41,398.07,46.15,390.24Z" style="fill: #ba4122"/>
          </g>
          <g style="opacity: 0.22;mix-blend-mode: multiply">
            <path d="M96.45,384.45c-2.82-5.63,23.49-5.1,29.36,0S98.75,389.05,96.45,384.45Z" style="fill: #ba4122"/>
          </g>
          <g style="opacity: 0.22;mix-blend-mode: multiply">
            <path d="M96.81,390.94c-1.86-1.91,12.26-.7,13,0S99.11,393.3,96.81,390.94Z" style="fill: #ba4122"/>
          </g>
        </g>
        <g>
          <polygon points="0 382.45 88.92 377.54 93.77 374.06 214.02 363.3 256.92 332.66 799.88 321.93 800 245.6 293.68 238.45 271.14 223.71 149.68 212.4 134.36 200 0 193.25 0 382.45" style="fill: url(#linear-gradient-6)"/>
          <g style="opacity: 0.97;mix-blend-mode: multiply">
            <path d="M112.15,370s-9.87-78.14-23.24-83.92-31.72-4.19-31.72-4.19l11-4.41s-22.24-12-48.14-10.89-32.34,23.52-32.34,23.52L-2.15,259.3l59-3.91L95.2,273.25l17,39.46Z" style="fill: #837700"/>
          </g>
          <g style="opacity: 0.33;mix-blend-mode: multiply">
            <polygon points="159.38 249.17 118.79 260.6 172.93 271.27 155.5 277.51 113.73 269.92 120.47 371.67 113.73 372.27 93.77 374.06 57.19 307.38 37.85 306.53 26.53 287.85 0 284.11 0 260.6 81.36 230.99 159.38 249.17" style="fill: #837700"/>
          </g>
          <path d="M293.68,238.45l-6.67,4.6s172.05,0,229.56,1C587.3,245.24,800,251.67,800,251.67V245.6Z" style="opacity: 0.53;mix-blend-mode: color-dodge;fill: url(#linear-gradient-7)"/>
          <g>
            <g style="opacity: 0.33;mix-blend-mode: multiply">
              <polygon points="210.97 295.54 293.68 238.45 271.14 223.71 178.02 274.7 169.09 279.98 -6.83 248.02 0 382.45 88.92 377.54 93.77 374.06 214.02 363.3 256.92 332.66 469.96 328.45 210.97 295.54" style="fill: #837700"/>
            </g>
            <g style="opacity: 0.33;mix-blend-mode: multiply">
              <polygon points="149.68 212.4 134.36 200 37.85 221.14 53.17 242.28 149.68 212.4" style="fill: #837700"/>
            </g>
          </g>
          <path d="M803.81,260.91s-293,7.41-524-12.89l-28.66-13.37s-78.39,1.23-122.57-15.71l-28.12-11.13S50.08,210.06-4.42,200s-7.86,12.4-7.86,12.4,36.6-5.49,86.64,1.85l44.94,8.38s83.08,13.21,112.26,22.43l30,15.54s464.86,8.16,567,27.21L259.89,269.14,863.3,300.06l-5.11,15.17s-375.39,4.58-616.79-40.7l-31-16.17L90.79,231l-27.37-9.85L-10.4,217l6,5.42,54.36,3.77-6.22,3.07-50.55-3.07v3.07l66.38,4.19H86.33l36.78,10.6s49.8,8.65,76.87,18.63L233.51,280s352.77,59.84,609.36,44.39S803.81,260.91,803.81,260.91Z" style="opacity: 0.14;mix-blend-mode: multiply;fill: url(#Áåçûìÿííûé_ãðàäèåíò_276-5)"/>
          <g style="opacity: 0.65;mix-blend-mode: multiply">
            <polygon points="-6.83 248.02 169.09 279.98 247.47 318.62 469.96 328.45 256.92 332.66 214.02 363.3 93.77 374.06 88.92 377.54 0 382.45 -6.83 248.02" style="fill: #003983"/>
          </g>
          <g style="opacity: 0.33;mix-blend-mode: multiply">
            <polygon points="67.18 307.38 44.23 305.17 35.38 287.85 0 281.92 0 284.11 26.53 287.85 37.85 306.53 57.19 307.38 93.77 374.06 113.73 372.27 93.77 366.79 67.18 307.38" style="fill: #837700"/>
          </g>
          <g style="opacity: 0.33;mix-blend-mode: multiply">
            <polygon points="88.92 377.54 43.98 337.51 13.09 340.38 35.55 310.7 12.83 334.7 0 298.31 0 382.45 88.92 377.54" style="fill: #837700"/>
          </g>
        </g>
        <g>
          <path d="M247.56,123.49c-13.88.23-12.09-5.82,10.89-7s17.61,3.72,5.48,4.48c0,0,26.94-.78,47.37-4.48S327.13,99,327.13,99L293.17,88,254.36,92.7l-40.08,21.93-15.58,11,22.47,3.25Z" style="fill: #00061c"/>
          <path d="M159.92,131.23s39.55-2.18,51.8-2.38,40.27,9.41,60.48,7.67S322.32,101,322.32,101L320,99.72s-26.13,28.34-45.49,30.43S287,94.1,287,94.1h-3.8s-20.42,26.81-19.4,36.05c0,0-23,.59-29.11-25.21h-3.14s1.2,23.54,22.55,27.29c0,0-17,1.34-32.17-15.36S159.92,131.23,159.92,131.23Z" style="fill: #0f111e"/>
          <path d="M70.24,72.9c-21.41-.41,26.59-7.2,26.59-7.2S45.18,62.28,70.24,53.6s107.32-3.33,63.59,4.1c0,0,91.15-4.35,90.15,8s-47,13.4-47,13.4,55.13,4.51,95.2-5.59c0,0-35.4-6.31-5-11.06S356.89,81.27,287,71c0,0,44.25,14.3,70.81,5.61S442,54.62,386.87,40.32L331.72,26,196.4,13.77l-68.93-1L37.09,28.57,7,42.87l8.68,26.56,32.17,6.63Z" style="fill: #00061c"/>
          <path d="M0,277.51l4.4-5.7s14.3-18.47,71.83,2.85l-2.72,2.85s23.83-.94,26.89,19.15c2.21,14.47,7.87,51,10.86,70.29a12.5,12.5,0,0,0,14.27,10.44l96.41-14.86s-75.83,3.32-88.09-2.81-12.76-53.36-17.11-73l2.05-4.08S117.7,272.15,111,267.3l62,4-10.23-6.89-9.7-1.17-3.32-4.31s-48-2.07-61.28-17.64l71,7.91-7.15-5.36-11.74-2.55-6.64-4.09s-18.13-2.3-32.42-9.19-24.26-13.07-13.54-28,27.58-34.32,27.58-34.32h3.83s-.26-11.49,15.32-17.87S180.4,126.45,202.87,104s14-5.45,41.53-24.51,81.37-16.34,108.26-16,71.15-22.81,71.15-22.81-52.09,24-71.15,20S387,17.51,387,17.51s-35.42,24.3-38.81,35.06-28.59,0-69.1,7.49c0,0,21.78-18.72,37.78-29.95S331.55-4.28,331.55-4.28L327.47-.87s6.47,20.08-12.94,28.25S301.6-1.89,301.6-1.89s-9.59,24.78-.69,31-33.7,33.36-33.7,33.36S253.6,64.15,239.3,74.7c0,0,10.55-9.53,16.34-48.68l-2.3-2.3S252.06,60.23,235.21,75l-9.7,4.34S244.66,56.66,249,22.45l-3.83-5.62s1.53,47.23-27.83,65.36S205.19,84,211.9,73.26A42.71,42.71,0,0,0,218.11,51l2.55-3.57s4.08-18.9,15.83-30.64-8.17-13-8.17-13-11.49,16.85-18.38,43.4-21.71,34-20.94,42.9-53.36,36.51-67.91,41.61S122.36,93.43,127,87.3s22.72-23.75,41.87-33.45S197.17,5.09,197.17,5.09l-4.08-.52s-11.75,34-24,40.34c0,0,4.59-10.21,3.57-27.57L167.3,12s8.93,22.89-2.56,35.15S140,59,127.72,73.77L150.45,14l-5.11-3.83S126.7,59,121.34,73.26s-7.66,23.23-7.66,23.23S109.6,87.3,93.77,79.38,76.4,38.28,77.68,12.23l-3.83-1.78s-5.11,31.91,3.58,53.36c0,0-13.15,1.41-20.55-8s-3.45-33.59-3.45-33.59l-2,.51s-3.32,23.24,2.56,31.66c0,0-18.39-1-19.66-14.81L28.91,39s-1.78,11.75,12.52,16.6S63.13,70.9,73.34,69.17s5.87,11,18.64,17.11,17.62,13.78,15.57,23-10.21,23.23-9.19,31.91c0,0-4.85-.26-7.91,9.7s-38.3,49.28-38.3,49.28l.25,2.55s-18.63,14.81-25.27,28.85S3.38,245.34-2.74,253.26,0,277.51,0,277.51Z" style="fill: url(#Áåçûìÿííûé_ãðàäèåíò_463-4)"/>
          <path d="M106.19,319.81c-4.76-34-12.42-35.7-12.42-35.7a20.19,20.19,0,0,1,6.63,12.55c2.21,14.47,7.87,51,10.86,70.29a12.5,12.5,0,0,0,14.27,10.44l96.41-14.86s-75.83,3.32-88.09-2.81c-4.82-2.41-7.82-11.18-10-22.14C127.23,361,111,353.82,106.19,319.81Z" style="opacity: 0.36;mix-blend-mode: multiply;fill: url(#Áåçûìÿííûé_ãðàäèåíò_174)"/>
          <path d="M26.36,45.43s118-40.34,264-9.71a81.75,81.75,0,0,0-21.19-8.42s29.87-.51,46.72,9.19l-15.83,2s44.85,2.31,58.26,21.8S287,71,287,71s40.51,18.38,79,18.72,19.74-11.23,19.74-11.23S408.49,90,435.89,87.64s28.77-15,17.2-19.75c0,0,32,2.73,17.7-2.38,0,0,44.25-1,31-16.68,0,0,38.8-32.61,10.55-54.95S36.4-23.68-2.74,12.06-55.51,84.57-16.53,87.3s95.6-11.24,95.6-11.24S26.53,71.3,62.62,64.83c0,0-66-9.53-28.94-14.3Z" style="fill: url(#Áåçûìÿííûé_ãðàäèåíò_88)"/>
          <path d="M374.62,71.47s102.48,10.21,61.45-14.3c0,0,94.43,12.72,54.78-10.75,0,0,35.9-41.88-114.19-53.08S47.81-24-6.83,24.49s11,62.28,61.65,56.41c18.79-3.38,24.25-4.84,24.25-4.84S26.53,71.3,62.62,64.83c0,0-66-9.53-28.94-14.3l-7.32-5.1s118-40.34,264-9.71a81.75,81.75,0,0,0-21.19-8.42s29.87-.51,46.72,9.19l-15.83,2s44.85,2.31,58.26,21.8S287,71,287,71a251.08,251.08,0,0,0,53.37,16.2C381.42,88.87,390.92,82.61,374.62,71.47Z" style="fill: #2d4085;opacity: 0.6000000000000001;mix-blend-mode: multiply"/>
          <path d="M80,20.4s97-12.25,173.36,3.32c0,0-10.64-5.19-33.11-11,0,0,60.1-12.9,99.75,18.73,0,0-30.3-36.87-115.41-21.33C204.57,10.14,147.72,6.62,80,20.4Z" style="fill: #2d4085;opacity: 0.6000000000000001;mix-blend-mode: multiply"/>
          <path d="M490.85,46.42S523.71,8.08,395.08-5C500,11.64,479.14,46.42,479.14,46.42c48.1,15.3-43.07,10.75-43.07,10.75S530.5,69.89,490.85,46.42Z" style="fill: #2d4085;opacity: 0.6000000000000001;mix-blend-mode: multiply"/>
          <path d="M387.74,80c-1.39-.64-2.76-1.32-4.1-2.06,0,0,14.84,9.63-13.08,11.72C395.06,89.2,391.08,83,387.74,80Z" style="fill: #54b5ff"/>
          <path d="M501.77,48.83s35.48-29.83,13.87-52C507.75-1.58,500.57,0,500.57,0S539,10.36,501.77,48.83Z" style="fill: #54b5ff"/>
          <path d="M467.55,64.83s11.75,4.43-17,2.21c0,0,7.87,3.58,6,10.9-1.32,5.1-21.64,11.1-44,8.69a93.68,93.68,0,0,0,23.35,1c27.41-2.38,28.77-15,17.2-19.75,0,0,32,2.73,17.7-2.38,0,0,44.22-1,31-16.67C502.18,49.35,513,63.49,467.55,64.83Z" style="fill: #54b5ff"/>
          <path d="M58.87,219.38c-9.71-1.71-6.47-16.68-6.47-16.68s-14.46,19.35,1.2,19.92,30.12-14.26,30.12-14.26A24.27,24.27,0,0,1,87.89,200l2.19-3C82.85,204.76,70.15,221.37,58.87,219.38Z" style="opacity: 0.36;mix-blend-mode: multiply;fill: url(#Áåçûìÿííûé_ãðàäèåíò_174-2)"/>
          <path d="M107.3,110.3c-2.15,8.23-8.39,19.77-9,28.11a16.85,16.85,0,0,1,0,2.76c-3.06,32.94,17.11,24.51,17.11,24.51h3.83C90.08,158.11,102.28,128.15,107.3,110.3Z" style="opacity: 0.36;mix-blend-mode: multiply;fill: url(#Áåçûìÿííûé_ãðàäèåíò_174-3)"/>
          <path d="M102.7,277.51c-5.61-7.66-24.25-4.34-24.25-4.34s5.36-11.74-20.17-12.26S22.57,238,31,225a46.45,46.45,0,0,0-3.88,6.59,21.62,21.62,0,0,1-3,4.69c-1.83,8-.68,13-15.4,15.48C.66,253.07-2.93,259-4.42,265.25A48.88,48.88,0,0,0,0,277.51l4.4-5.7s14.3-18.47,71.83,2.85l-2.72,2.85s24.81-3.27,30.3,3.49c8.57,10.55,12.93,5.7,12.93,5.7l2.05-4.08C113.68,285.94,108.32,285.17,102.7,277.51Z" style="opacity: 0.36;mix-blend-mode: multiply;fill: url(#Áåçûìÿííûé_ãðàäèåíò_174-4)"/>
          <path d="M118.79,243c-15.66-.25-36.77-21.9-36.77-21.9s-1.36,12.2,6.38,20.12l37.52,4.18c12.9,1.44,14.57-4.18,14.57-4.18l-6.64-4.09S134.45,243.3,118.79,243Z" style="opacity: 0.36;mix-blend-mode: multiply;fill: url(#Áåçûìÿííûé_ãðàäèåíò_174-5)"/>
          <path d="M114.7,264.32c-14.81-7.49-24.85-12.26-24.85-12.26s12.62,7.32,21.12,15.24l28.64,1.84c6-1.52,11.08-3.72,13.39-5.93l-3.06-4-.47-.25C147.19,260,128.7,271.4,114.7,264.32Z" style="opacity: 0.36;mix-blend-mode: multiply;fill: url(#Áåçûìÿííûé_ãðàäèåíò_174-6)"/>
          <path d="M172.85,105.11l-.9.58c15.8-3.37,6.84,12.4-.79,23.16q2.31-1.45,4.63-3C187.81,104.57,182.52,102.43,172.85,105.11Z" style="opacity: 0.36;mix-blend-mode: multiply;fill: url(#Áåçûìÿííûé_ãðàäèåíò_174-7)"/>
          <path d="M134.62,147.81c4.92-2,11.32-4.9,18.46-8.61,22.16-24.43,16.36-28.22,6.69-26.27-4.45,2.5-9,4.95-13.46,7.22C171.52,111.9,145.57,142.94,134.62,147.81Z" style="opacity: 0.36;mix-blend-mode: multiply;fill: url(#Áåçûìÿííûé_ãðàäèåíò_174-8)"/>
          <path d="M89.45,153.19a64.33,64.33,0,0,1-4.24,6.74c-5.5,14.94-7,37.67,8.56,32l.17,0c1.35-1.75,2.73-3.51,4.1-5.24C72.3,190.87,86.76,158.77,89.45,153.19Z" style="opacity: 0.36;mix-blend-mode: multiply;fill: url(#Áåçûìÿííûé_ãðàäèåíò_174-9)"/>
          <g style="opacity: 0.25;mix-blend-mode: screen">
            <path d="M89.45,153.19c-2.69,5.58-17.15,37.68,8.59,33.49l2.08-2.59C72.43,189.31,89.44,153.19,89.45,153.19Z" style="fill: url(#linear-gradient-8)"/>
          </g>
          <g style="opacity: 0.25;mix-blend-mode: screen">
            <path d="M58.87,219.38c11.28,2,24-14.62,31.21-22.38l.71-.94s-20.34,20.6-30.22,18.73c-4.79-.91-7.09-6.7-8.2-12.41l0,.32S49.16,217.67,58.87,219.38Z" style="fill: url(#linear-gradient-9)"/>
          </g>
          <g style="opacity: 0.25;mix-blend-mode: screen">
            <path d="M106,114.89c-5.39,18-13.49,43.83,13.35,50.79a16.59,16.59,0,0,1,3.8-9.64C118.34,159.63,96.49,151.89,106,114.89Z" style="fill: url(#linear-gradient-10)"/>
          </g>
          <g style="opacity: 0.25;mix-blend-mode: screen">
            <path d="M133.85,237.17s-18.13-2.3-32.42-9.19c-6-2.91-11.28-5.69-14.54-9,13.48,14.74,41,18.87,41,18.87-18.59,7-38.9-10.26-41.52-12.59,7,6.28,21.14,17.64,32.46,17.82C134.45,243.3,133.85,237.17,133.85,237.17Z" style="fill: url(#linear-gradient-11)"/>
          </g>
          <g style="opacity: 0.25;mix-blend-mode: screen">
            <path d="M137.43,260.6c-10.48,4.09-21.27,2.7-28.91.61l6.18,3.11c14,7.08,32.49-4.35,34.77-5.33l-.17-.11c-4.2-.22-42.39-2.51-57.83-14.71C107.21,257.15,137.43,260.6,137.43,260.6Z" style="fill: url(#linear-gradient-12)"/>
          </g>
          <g style="opacity: 0.25;mix-blend-mode: screen">
            <path d="M110.09,286.73c5.43,3.37,9,19.83,10.93,31.65-1.46-12-2.57-24-4.28-31.68C116.74,286.7,114.51,289.18,110.09,286.73Z" style="fill: url(#linear-gradient-13)"/>
          </g>
          <g style="opacity: 0.25;mix-blend-mode: screen">
            <path d="M102.7,277.51c5.62,7.66,11,8.43,16.09,5.11,0,0-1.09-10.47-7.82-15.32a109.55,109.55,0,0,0-12.51-9.75c14.45,10.09,17,22.43,17,22.43s-5.62,3.4-13.15-4.26-20.39-3-20.39-3C87.6,272.18,98.61,271.93,102.7,277.51Z" style="fill: url(#linear-gradient-14)"/>
          </g>
          <path d="M223.52,100.58c8.58-.8-7.22-13.38,25.31-17.28,0,0-20.1-13.79,9.31-20.95,0,0-6.36-8,20.71-7.23s44.61-10.84,41.35,2.81c0,0,18.14,3.29,9,14.35,0,0,28.51,8.14,13,23.26,0,0,31.34-5.34,27.51,13.54S263.93,121,263.93,121s30.57-3.68,45.37-12-47.08-11.26-66.63-3.54S260,112.59,260,112.59s-38.32,2.2-37.64,8,27.87,1.62,27.87,1.62-37.93,18.94-61.9,9S178.26,104.77,223.52,100.58Z" style="fill: url(#Áåçûìÿííûé_ãðàäèåíò_88-2)"/>
          <path d="M347.21,108.41c9-7-24.89-9.54-24.89-9.54s27.45-18.55-3.53-23.15c0,0,17.87-14.81-1.7-15.83s-26-4-42.15-4.82c-22.5.06-16.8,7.28-16.8,7.28-29.41,7.16-9.31,20.95-9.31,20.95-32.53,3.9-16.73,16.48-25.31,17.28-3.27.3-6.36.68-9.31,1.1a7.16,7.16,0,0,1-1.1.17q-3.5.53-6.68,1.16c-15.64,1.19-38.48,13.28-26.79,23,15,12.45,32.15,6.85,39.27,6.66a135.54,135.54,0,0,0,31.31-10.43s-27.18,4.22-27.87-1.62,37.64-8,37.64-8-36.86.58-17.32-7.15,81.44-4.81,66.63,3.54-45.37,12-45.37,12,2,.14,5.36.32C310.28,123.55,338.19,115.39,347.21,108.41Z" style="fill: #2d4085;opacity: 0.6000000000000001;mix-blend-mode: multiply"/>
          <path d="M369.65,109.08c3.83-18.88-27.51-13.54-27.51-13.54,15.54-15.12-13-23.26-13-23.26,9.17-11.06-9-14.35-9-14.35,19.28,5.52,6.08,14.56,6.08,14.56C360.66,83.38,337.85,98,337.85,98c35.06-.55,34.55,18.93,1,22.76C355.34,119,368.33,115.59,369.65,109.08Z" style="fill: #54b5ff"/>
          <path d="M322.32,98.87s27.45-18.55-3.53-23.15c0,0,15.85-13.14,1.31-15.51,8.06,2.76,5.87,8.1-.29,11.94-9,5.62-23.83,5.79-23.83,5.79,66.21,4.39,18,23.66,18,23.66s38.65,4.81,28.2,9.83a30.4,30.4,0,0,0,5-3C356.23,101.43,322.32,98.87,322.32,98.87Z" style="fill: #2d4085;opacity: 0.6000000000000001;mix-blend-mode: multiply"/>
          <path d="M307,99.38S293.47,83.2,253.6,83.8c0,0,10.21-17.1,36.93-8.59,0,0-16.66-4.93-27.39,5.79C263.14,81,291.45,81,307,99.38Z" style="fill: #2d4085;opacity: 0.6000000000000001;mix-blend-mode: multiply"/>
          <path d="M428.23,52.73s8.86-30.34-96.68-40.61C331.55,12.12,447.64,14.08,428.23,52.73Z" style="fill: #2d4085;opacity: 0.6000000000000001;mix-blend-mode: multiply"/>
        </g>
        <g>
          <g>
            <polygon points="189.25 366.11 243.38 379.72 264.15 368.15 264.15 357.94 259.38 354.19 273.68 343.3 312.83 346.02 330.53 337.51 313.51 304.83 291.04 298.31 281.17 304.83 266.53 304.83 242.36 279.98 226.36 279.98 195.38 311.3 189.25 366.11" style="fill: url(#linear-gradient-15)"/>
            <polygon points="195.38 311.3 223.98 306.87 236.91 323.4 243.38 379.72 189.25 366.11 195.38 311.3" style="fill: #856b3b;opacity: 0.36;mix-blend-mode: multiply"/>
            <polygon points="259.38 354.19 254.96 326.62 231.56 298.31 258.02 323.4 265.17 315.55 265.17 308.57 282.19 308.57 282.19 315.55 305.34 320.83 312.83 346.02 273.68 343.3 259.38 354.19" style="fill: #856b3b;opacity: 0.36;mix-blend-mode: multiply"/>
            <polygon points="330.53 337.51 312.83 316.06 306.36 319.3 312.83 306.53 296.83 303.08 283.21 308.57 280.92 306.53 265.17 306.87 234.02 297.51 237.77 286.62 223.3 287.85 210.53 299.72 225.68 305.34 254.96 326.62 244.91 368.75 238.62 323.38 223.98 306.87 206.73 299.83 226.36 279.98 242.36 279.98 266.53 304.83 281.17 304.83 291.04 298.31 313.51 304.83 330.53 337.51" style="fill: #8abdde;opacity: 0.39;mix-blend-mode: color-dodge"/>
            <polygon points="219.89 311.16 201 330.83 227.55 373.52 209.45 337.51 231.56 326.25 206.73 330.83 219.89 311.16" style="fill: #856b3b;opacity: 0.15;mix-blend-mode: multiply"/>
            <polygon points="268.63 319.55 273.68 343.3 259.38 354.19 254.96 326.62 268.63 319.55" style="fill: #856b3b;opacity: 0.15;mix-blend-mode: multiply"/>
          </g>
          <g>
            <polygon points="120.83 377.34 142.28 401.85 172.57 401.85 196.4 387.55 191.98 371.55 147.38 351.81 123.55 369.85 120.83 377.34" style="fill: url(#linear-gradient-16)"/>
            <polygon points="123.55 369.85 146.7 362.75 170.87 379.04 172.57 401.85 142.28 401.85 120.83 377.34 123.55 369.85" style="fill: #856b3b;opacity: 0.36;mix-blend-mode: multiply"/>
            <polygon points="196.4 387.55 186.19 377.68 172.57 379.3 188.23 372.23 159.98 361.68 147.89 361.68 147.38 351.81 191.98 371.55 196.4 387.55" style="fill: #8abdde;opacity: 0.39;mix-blend-mode: color-dodge"/>
            <polygon points="142.28 401.85 155.04 387.55 168.37 380.42 155.32 382.96 146.7 368.07 147.38 384.96 142.28 401.85" style="fill: #856b3b;opacity: 0.15;mix-blend-mode: multiply"/>
          </g>
        </g>
        <g>
          <path d="M671.81,96.17s73.53-16.08,100.34-15.06-10,7.5-10,7.5H800l-.53-41.46L641.94,67.83l-3.83,11.49L621,101Z" style="fill: #00061c"/>
          <path d="M622.15,149.57s-13.92-2.34,19.79-11.27c0,0-21.61-1.28-11.32-6.39s51.47-8.22,22.29,2.05c0,0,18.13-5.16,34-6.8,0,0-14.55-.1,1.53-5.71s31.32-10,22.05-2.81c0,0,27.32-4.66,7.32-16.2S608,119.94,608,119.94l-10.73,19.12,16.09,12.26Z" style="fill: #00061c"/>
          <path d="M603.89,130.14s23.32,18.77,32.51,20.48,36-9.63,44.73-4-2.17-4.21-2.17-4.21-.09-4.76-29.49,4.08-21.41-49.7-21.41-49.7l-2,6.47s-3.57,38.12,12.09,45.1c0,0-15.15-1.7-20.43-27.32h-1.19s2.08,16.18,7.85,19.45l-1,.86s-11.07-3.88-18.21-13.41S603.89,130.14,603.89,130.14Z" style="fill: #1e0f13"/>
          <path d="M628.06,116.87s-.07,10,13.08,12,20,3.36,27.77,7.44,31.73,30.6,35.77,36.36,5.82,53.17,5.82,53.17l.63,1.7s1.36,16.28,0,22.81-50,12.64-50,12.64,47.59-4.36,52.68-4,0,5.08,0,5.08,11.91-.87,8.85-7.14c0,0,9.19-.39,12.94,6,0,0,3.74,5.88,7.49,0l7.49-9.63s0,8,3.06,9.63,17,1,17,1-12.6-1.08-14.65-6.53.34-14.64.34-16.34,7.17-3.15,5.79-26.19-4.84-35.65-3.74-43.94,9.87-32.34,19.74-48,0-80.27,0-80.27l-5.79,1.64s5.79,46.31,3.07,60.26-17.36,34-19.41,46.63c0,0-9.53-36.09-10.55-44.94s20.08-28,11.58-63.59h-3.75s12.26,29.08-9.53,55.7L735,55.32l-7.49-.68S734.2,88.26,739.68,113s9.23,56,9.23,56h-3.06s5.79,24.53,4.43,43.45-10.6,36-10.6,36a53.73,53.73,0,0,1-14.59-19.2c-5.45-12.23-9.41-50-10.56-58.87s-6.81-25.19-6.13-33,7.83-22.47,8.86-30.64,2.72-48,2.72-48l-2-1.36s-1,34.25-2.05,41.13-10.57,28-10.57,28l-3.55-62.63h-1.88s1.37,56,1.88,65.79,0,27.44,0,27.44S677.43,137.7,674,131.91,669.26,103,669.26,103l-2.72-.52s.33,21.84,3.06,27.19c0,0-18.05-1.65-22.47-4.11,0,0,4.42-8.58,3.06-17.78l-1.53-.17s1.7,11.22-4.26,18A15.45,15.45,0,0,1,632.66,113c-1.87-10.68-2.72,0-2.72,0s-1.2,9,9.7,12.54c0,0-10,2-10.73-10.46Z" style="fill: url(#Áåçûìÿííûé_ãðàäèåíò_463-5)"/>
          <path d="M629.09,92.43c-13.62,0,4.76-12.6,4.76-12.6s-49.7,20.08-53.79,12.6,18.39-23.15,23.49-24.86c0,0-11.23-8.17,14-16S644.4,41.7,644.4,41.7s-27.91-1-11.23-10.21c4.59-2.53,12.37-5.38,21.24-8.17A357.1,357.1,0,0,1,746.46,7.24l68.5-3-.68,63.65-42.22,6.81s38.13-13.27,7.15-13.27-90.89,8.17-127,18.38S629.09,92.43,629.09,92.43Z" style="fill: url(#Áåçûìÿííûé_ãðàäèåíò_88-3)"/>
          <path d="M629.09,92.43S616.15,90,652.23,79.83s96-18.38,127-18.38-7.15,13.27-7.15,13.27l42.22-6.81.57-53.2c-.94-.56-1.92-1.11-3-1.62C775.13-5.3,685.4,23.69,678.79,26.36,657.34,35,659.28,39.3,659.28,39.3c-22.57,8.51-5.68,11.91-5.68,11.91-44.26,12.26-20.77,13.62-20.77,13.62s-27.23,7.83-30,15.27,21.44,3.39,21.44,3.39c5.67-2.1,9.54-3.66,9.54-3.66S615.47,92.43,629.09,92.43Z" style="fill: #2d4085;opacity: 0.6000000000000001;mix-blend-mode: multiply"/>
          <path d="M644.74,63.81s-31.31.08,30.3-14.09c0,0-19.86,2-20.08-3.3s16-6.78,16-6.78-28-4.31,61.56-27.52C705.31,17.4,682,25.05,678.79,26.36,657.34,35,659.28,39.3,659.28,39.3c-22.57,8.51-5.68,11.91-5.68,11.91-44.26,12.26-20.77,13.62-20.77,13.62s-27.23,7.83-30,15.27c-1,2.63,1.43,3.82,4.91,4.26C607.78,84.36,590.62,79.81,644.74,63.81Z" style="fill: #2d4085;opacity: 0.6000000000000001;mix-blend-mode: multiply"/>
          <path d="M699.89,49.18s69.79-17.52,105.54-.94S802,42.79,802,42.79s-14-20.85-57.87-16.77c0,0,32.34-1.74,47.32,13.94C791.47,40,755.38,31.14,699.89,49.18Z" style="fill: #2d4085;opacity: 0.6000000000000001;mix-blend-mode: multiply"/>
          <path d="M609.34,65.85s-16.68-6.47,40.51-24.51c0,0-35.78-12,55.45-30a350.41,350.41,0,0,0-50.89,12c-8.87,2.79-16.65,5.64-21.24,8.17C616.49,40.68,644.4,41.7,644.4,41.7s-1.7,2-26.89,9.87-14,16-14,16c-5.1,1.71-27.57,17.37-23.49,24.86,2.21,4,17.66.06,31.44-4.47C611.51,88,563.72,100.23,609.34,65.85Z" style="fill: #54b5ff"/>
          <path d="M592.66,104.69c-9.19-3.07,42.89-23.84,96-27.24s29.28,5.44,29.28,5.44,22.12-.09,21.44,7.79-8.51,7.53-8.51,7.53,14.3,3.08,6.47,6.48-12.94,2.71-12.94,2.71,13.28,8.86-13.95,11.24c0,0,35.25-11.24-13.19-11.58S592.66,130.55,611,131.91c0,0-10.21,1.37-.34,4.43s21.79,2,21.79,2-24.42,8.07-10.34,11.19c0,0-8.48,11.2-21.88,5.79,0,0-22.25,7.87-12-10.17,0,0-24.25-5.11,7.83-15.56,0,0-30.63-5-11.23-12.76,0,0-6.47-5.39.68-8.78Z" style="fill: url(#Áåçûìÿííûé_ãðàäèåíò_88-4)"/>
          <path d="M622.15,149.57c-14.08-3.12,10.34-11.19,10.34-11.19s-11.92,1-21.79-2,.34-4.43.34-4.43c-18.38-1.36,37.79-25.19,86.22-24.85s13.19,11.58,13.19,11.58c27.23-2.38,13.95-11.24,13.95-11.24s5.11.69,12.94-2.71-6.47-6.48-6.47-6.48,7.83.34,8.51-7.53-21.44-7.79-21.44-7.79,23.83-8.85-29.28-5.44q-7.36.47-14.65,1.36c-60.24,9.43-66,20.77-55.1,19.17,0,0-23,9.74-16.25,16.65,0,0-22.68,10.28,0,14.79,0,0-17.15,9.2-7.62,12,0,0-5.79,13.42,15.66,11.66a53.24,53.24,0,0,0,9.82-1.72A17.91,17.91,0,0,0,622.15,149.57Z" style="fill: #2d4085;opacity: 0.6000000000000001;mix-blend-mode: multiply"/>
          <path d="M590.09,143.81s-19.39-3.75,7.16-14.47c0,0-24.51-3.15-7.82-12.47,0,0-7.5-6.42,7.82-14.08,0,0-10.8-2,41.91-17.7-31,7.42-52.7,17.53-46.5,19.6l-7.15,3.4c-7.15,3.39-.68,8.78-.68,8.78-19.4,7.76,11.23,12.76,11.23,12.76-32.08,10.45-7.83,15.56-7.83,15.56-10.21,18,12,10.17,12,10.17S583.1,158.11,590.09,143.81Z" style="fill: #54b5ff"/>
          <path d="M649.47,94.1s31.33-4.33,51.15-1.67c0,0-17.86-1.05-34.7,7.89,0,0,29.09-10.54,59.17-2.34A97,97,0,0,0,704.36,93s1.92-7,12.26-9.57c0,0-10.09-.26-14.17,6.38C702.45,89.85,685.6,86.86,649.47,94.1Z" style="fill: #2d4085;opacity: 0.6000000000000001;mix-blend-mode: multiply"/>
          <path d="M618.91,98s-23,9.74-16.25,16.65c0,0-8.24-10.16,39.78-20.53,0,0-22.83,4.2-22.33,1.11.36-2.26,14.09-7.86,27.15-11.37C612.26,91.8,609.87,99.3,618.91,98Z" style="fill: #2d4085;opacity: 0.6000000000000001;mix-blend-mode: multiply"/>
          <path d="M595,141.39s-5.7,13.22,15.22,11.69c-3,.16-20.26.5-9.43-13.57,0,0-13.19.51,1.83-10.09C602.66,129.42,585.51,138.62,595,141.39Z" style="fill: #2d4085;opacity: 0.6000000000000001;mix-blend-mode: multiply"/>
          <path d="M700.87,167.93c1.75,2.08,3.1,3.75,3.81,4.77a14.82,14.82,0,0,1,1.59,4.77c6.39,9.2,8.16,2,8.6-4.39-.13-1.06-.24-2-.34-2.7a101,101,0,0,0-2.06-10C714.51,178.81,706.56,173.63,700.87,167.93Z" style="opacity: 0.36;mix-blend-mode: multiply;fill: url(#Áåçûìÿííûé_ãðàäèåíò_174-10)"/>
          <path d="M758.24,174.11a26.41,26.41,0,0,1,.21-3.05,76.65,76.65,0,0,1,3.44-12.75,19.3,19.3,0,0,0-1.71,4.05c-6.85,22.21-11.27,6.6-11.27,6.6h-3.06C751.67,187.87,758.24,174.11,758.24,174.11Z" style="opacity: 0.36;mix-blend-mode: multiply;fill: url(#Áåçûìÿííûé_ãðàäèåíò_174-11)"/>
          <path d="M747.47,228.21c-6,24.49,8.93,13,8.93,13,0-.73,1.33-1.42,2.73-3.8C749.89,247.82,747.47,228.21,747.47,228.21Z" style="opacity: 0.36;mix-blend-mode: multiply;fill: url(#Áåçûìÿííûé_ãðàäèåíò_174-12)"/>
          <path d="M711.73,241.93a46.51,46.51,0,0,1-.6,8.45c-1.37,6.53-50,12.64-50,12.64s47.59-4.36,52.68-4,0,5.08,0,5.08,11.91-.87,8.85-7.14c0,0,9.19-.39,12.94,6,0,0,3.74,5.88,7.49,0l7.23-9.29a13.63,13.63,0,0,1-6.06-1c-4.33-2.07-1.13-11.7-.22-14.18a95.42,95.42,0,0,1-4.4,9.9,50.49,50.49,0,0,1-8-8.36C743.4,259.06,711.35,249.06,711.73,241.93Z" style="opacity: 0.36;mix-blend-mode: multiply;fill: url(#Áåçûìÿííûé_ãðàäèåíò_174-13)"/>
          <path d="M709.25,203.48c.06.8.12,1.6.17,2.39,8,21.63,11.07,16,12.16,11.52-.23-1-.45-2.06-.67-3.14C717.7,224.82,712.18,211.86,709.25,203.48Z" style="opacity: 0.36;mix-blend-mode: multiply;fill: url(#Áåçûìÿííûé_ãðàäèåíò_174-14)"/>
          <path d="M710.5,225.87l.63,1.7c13.3,14.38,15.67,10,15.7,5.17-.61-1.12-1.2-2.27-1.74-3.49a42,42,0,0,1-1.81-5.13C723.64,240.12,710.5,225.87,710.5,225.87Z" style="opacity: 0.36;mix-blend-mode: multiply;fill: url(#Áåçûìÿííûé_ãðàäèåíò_174-15)"/>
          <path d="M761.5,205.83c-.35-3.9-.75-7.45-1.14-10.69.52,20.34-6,11.65-10.08,4.35.07,1.2.12,2.39.15,3.59C756.46,218.27,760,211.28,761.5,205.83Z" style="opacity: 0.36;mix-blend-mode: multiply;fill: url(#Áåçûìÿííûé_ãðàäèåíò_174-16)"/>
          <path d="M710.31,221.57c.13,2.68.19,4.3.19,4.3s13.14,14.25,12.78-1.73l-.29-1S724.65,238.05,710.31,221.57Z" style="opacity: 0.25;mix-blend-mode: screen;fill: url(#Áåçûìÿííûé_ãðàäèåíò_392)"/>
          <path d="M758.26,167.79c-7.45,12.1-10.6-8.49-10.89-10.54,1,7.08,1.54,11.71,1.54,11.71S752.51,181.69,758.26,167.79Z" style="opacity: 0.25;mix-blend-mode: screen;fill: url(#Áåçûìÿííûé_ãðàäèåíò_395)"/>
          <path d="M711.6,235.41c.08,2.06.14,4.32.13,6.52-.24,4.63,13.19,10.47,19.41,8.8C718.14,251.78,711.61,235.44,711.6,235.41Z" style="opacity: 0.25;mix-blend-mode: screen;fill: url(#Áåçûìÿííûé_ãðàäèåíò_393)"/>
          <path d="M709.25,203.48c2.93,8.38,8.45,21.34,11.66,10.77-5.87,13.58-12.32-19.06-12.33-19.11.25,2.77.47,5.59.67,8.34Z" style="opacity: 0.25;mix-blend-mode: screen;fill: url(#Áåçûìÿííûé_ãðàäèåíò_391)"/>
        </g>
        <g>
          <g>
            <path d="M189.26,400s112.68-17.55,260.42-53c0,0,32-28.59,42.21-40.51,0,0-3.4-1-17.36,1.7,0,0,10.9-5.1,20.43-4.76,0,0-5.11-3.41-14.64-4.09,0,0,12.94-1.7,19.4,2.73,0,0,1-6.81,5.79-10.56,0,0-1.7,4.77-1.7,7.83L800,254.79V400Z" style="fill: #00215e"/>
            <path d="M219.89,400S348.6,391.83,466,353.69l43-39s227.59-36.4,302.4-54.52-3.25,5.5-3.25,5.5-234.45,44.11-284.5,55.95L479.14,359S349.6,389.24,300.32,403L327.57,400s93.7-25.14,165.27-35.41l36.76-40.22,241.27-47.8L536,327.39l-38.54,39.07s-99.34,14.45-159.09,37.43S219.89,400,219.89,400Z" style="opacity: 0.14;mix-blend-mode: multiply;fill: url(#Áåçûìÿííûé_ãðàäèåíò_305)"/>
            <g style="opacity: 0.76">
              <path d="M502.15,297l1,3.87,20.59-2.86,98.81-11.6,32.82-9.88L503.81,299.38c0-3.06,1.7-7.83,1.7-7.83-4.77,3.75-5.79,10.56-5.79,10.56-6.46-4.43-19.4-2.73-19.4-2.73,9.53.68,14.64,4.09,14.64,4.09-9.53-.34-20.43,4.76-20.43,4.76,14-2.72,17.36-1.7,17.36-1.7l7.15,3.38-7.74-5.46,8.34.12Z" style="fill: #0ea3d9"/>
            </g>
            <g style="opacity: 0.76">
              <path d="M192.66,399.46l-.85.54,264.7-50.18L449.68,347C316.9,378.86,212.45,396.26,192.66,399.46Z" style="fill: #0ea3d9"/>
            </g>
            <polygon points="538.02 382.96 548.75 333.43 799.81 279.98 800 400 344.49 400 538.02 382.96" style="fill: #2d4085;opacity: 0.31;mix-blend-mode: multiply"/>
            <polygon points="538.02 382.96 344.49 400 800 400 799.81 279.98 609.34 300.06 597.94 293.91 548.23 293.91 523.72 298.05 558.18 331.42 548.75 333.43 538.02 382.96" style="fill: #2d4085;opacity: 0.63;mix-blend-mode: multiply"/>
            <path d="M548.74,333.43l-56.85-26.9s-13.56,14-18.14,18.34c-6,5.73-24.07,22.17-24.07,22.17L538,383Z" style="fill: #2d4085;opacity: 0.29;mix-blend-mode: multiply"/>
            <path d="M523.72,403l104.34-34.88-66.54-14.38L632,364.06l-59.55-14.29L635,361.51l11.75-24,157-39.24,4.41,1.79s-130.79,29.79-145.6,37.45,145.6-16.34,145.6-16.34L828.06,340l-238,68.5Z" style="fill: #2d4085;opacity: 0.63;mix-blend-mode: multiply"/>
            <polygon points="570.39 402.95 635.04 368.75 647.3 349.77 808.22 333.2 803.81 402.95 570.39 402.95" style="fill: #001c4f"/>
            <polygon points="647.3 349.77 778.19 376.83 814.96 368.75 814.19 411.55 570.39 402.95 635.04 368.75 647.3 349.77" style="fill: #2d4085;opacity: 0.29;mix-blend-mode: multiply"/>
            <polygon points="814.96 368.75 778.19 376.83 697.26 387.55 642.44 376.83 692.67 392.4 649.08 405.73 820.48 418.45 814.96 368.75" style="fill: #2d4085;opacity: 0.29;mix-blend-mode: multiply"/>
            <polygon points="679.64 388.36 673.78 386.55 632.49 403.21 613.42 406.62 666.54 384.3 662.2 382.96 591.64 403.21 593.34 418.45 649.08 405.73 679.64 388.36 679.64 388.36" style="opacity: 0.14;mix-blend-mode: multiply;fill: url(#Áåçûìÿííûé_ãðàäèåíò_306)"/>
            <polygon points="692.67 359.15 819.04 347.04 814.96 341.15 685.38 357.64 663.96 381.04 668.92 382.01 692.67 359.15" style="opacity: 0.14;mix-blend-mode: multiply;fill: url(#Áåçûìÿííûé_ãðàäèåíò_305-2)"/>
            <polygon points="830.96 356.23 830.96 353.69 700.87 360.84 678.79 382.96 677.71 383.73 683.16 384.79 705.76 361.86 830.96 356.23" style="opacity: 0.14;mix-blend-mode: multiply;fill: url(#Áåçûìÿííûé_ãðàäèåíò_305-3)"/>
          </g>
          <g>
            <g>
              <polygon points="609.34 300.06 631.81 307.38 688.32 300.06 705.34 305.51 756.67 289.16 768.32 290.14 794.19 284.06 787.26 256.7 781.94 254.2 778.19 248.02 742.77 252.94 738.7 259.21 724.07 252.34 673.34 258.19 650.53 253.43 630.79 274.53 626.02 274.19 609.34 300.06" style="fill: url(#linear-gradient-17)"/>
              <polygon points="631.81 307.38 649.51 279.98 628.06 277.51 651.55 277.25 663.81 261.25 677.42 261.25 685.25 279.98 700.23 281.68 709.42 265.34 740.75 261.25 765.94 271.47 743.13 257.17 770.02 261.25 778.19 248.02 781.94 254.2 787.26 256.7 794.19 284.06 768.32 290.14 756.67 289.16 705.34 305.51 688.32 300.06 631.81 307.38" style="fill: #856b3b;opacity: 0.36;mix-blend-mode: multiply"/>
              <polygon points="609.34 300.06 624.66 280.83 649.51 279.98 628.06 277.51 631.47 275.55 660.75 259.72 675.72 259.72 677.42 261.25 700.23 281.68 709.42 265.34 688.66 259.72 722.02 254.79 740.75 261.25 756.37 265.47 743.13 257.17 745 254.79 772.73 256.86 778.19 248.02 742.77 252.94 738.7 259.21 724.07 252.34 673.34 258.19 650.53 253.43 630.79 274.53 626.02 274.19 609.34 300.06" style="fill: #8abdde;opacity: 0.39;mix-blend-mode: color-dodge"/>
              <polygon points="655.35 301.57 672.11 274.04 672.11 287.26 685.25 279.98 700.23 281.68 705.76 301.57 745.85 269.12 755.04 278.79 765.94 271.47 768.32 290.14 756.67 289.16 744.64 274.04 705.34 305.51 688.32 300.06 671.59 298.05 655.35 301.57" style="fill: #856b3b;opacity: 0.15;mix-blend-mode: multiply"/>
            </g>
            <g>
              <polygon points="523.72 298.05 543.13 311.16 562.53 304.61 562.53 298.05 597.94 293.91 588.75 281.29 587.04 269.12 553 269.12 529.85 279.67 523.72 298.05" style="fill: url(#linear-gradient-18)"/>
              <polygon points="543.13 311.16 548.23 293.91 534.62 281.48 549.94 290.14 556.06 279.67 567.98 279.67 565.94 287.5 582.62 281.48 587.04 269.12 588.75 281.29 597.94 293.91 562.53 298.05 562.53 304.61 543.13 311.16" style="fill: #856b3b;opacity: 0.36;mix-blend-mode: multiply"/>
              <polygon points="523.72 298.05 531.72 282.7 548.23 293.91 534.62 281.48 552.15 272.32 555.55 277.7 568.49 276.57 566.28 270.79 582.62 281.48 587.04 269.12 553 269.12 529.85 279.67 523.72 298.05" style="fill: #8abdde;opacity: 0.39;mix-blend-mode: color-dodge"/>
              <polygon points="562.53 298.05 565.94 287.5 595.14 292.77 562.53 298.05" style="fill: #856b3b;opacity: 0.15;mix-blend-mode: multiply"/>
            </g>
          </g>
        </g>
        <g>
          <g>
            <path d="M329.86,327.16a1,1,0,0,0,.09,1.34,1,1,0,0,0,1.34-.1.93.93,0,0,0-.09-1.33A.94.94,0,0,0,329.86,327.16Z" style="fill: #a4fff9"/>
            <path d="M573.29,95.57a1,1,0,0,0,.09,1.34.95.95,0,0,0,1.25-1.43A1,1,0,0,0,573.29,95.57Z" style="fill: #a4fff9"/>
            <path d="M296.81,165a1,1,0,0,0,.09,1.34.95.95,0,0,0,1.25-1.43A1,1,0,0,0,296.81,165Z" style="fill: #a4fff9"/>
            <path d="M65.72,194.44a1.48,1.48,0,1,0,2.09-.14A1.48,1.48,0,0,0,65.72,194.44Z" style="fill: #a4fff9"/>
            <path d="M94.56,318.84a1.46,1.46,0,1,0,2.06-.14A1.46,1.46,0,0,0,94.56,318.84Z" style="fill: #a4fff9"/>
            <path d="M432.8,327.48a.94.94,0,0,0,.09,1.34.95.95,0,1,0,1.25-1.43A.94.94,0,0,0,432.8,327.48Z" style="fill: #a4fff9"/>
            <path d="M309.71,93.2a.95.95,0,0,0,1.43,1.25.95.95,0,0,0-1.43-1.25Z" style="fill: #a4fff9"/>
            <path d="M269.28,114.33a1,1,0,0,0,.09,1.34.94.94,0,0,0,1.34-.09.95.95,0,0,0-1.43-1.25Z" style="fill: #a4fff9"/>
            <path d="M513.78,72.58a1,1,0,0,0,.09,1.34.95.95,0,1,0,1.25-1.43A1,1,0,0,0,513.78,72.58Z" style="fill: #a4fff9"/>
            <path d="M206.78,138.26a1.46,1.46,0,1,0,2.06-.14A1.46,1.46,0,0,0,206.78,138.26Z" style="fill: #a4fff9"/>
            <path d="M325.11,65.19a.94.94,0,0,0,.09,1.34.95.95,0,1,0,1.25-1.43A.94.94,0,0,0,325.11,65.19Z" style="fill: #a4fff9"/>
            <path d="M505.29,192.57a1.68,1.68,0,1,0,2.37-.16A1.68,1.68,0,0,0,505.29,192.57Z" style="fill: #a4fff9;mix-blend-mode: soft-light"/>
            <path d="M32.6,372.2A1.68,1.68,0,1,0,35,372,1.68,1.68,0,0,0,32.6,372.2Z" style="fill: #a4fff9;mix-blend-mode: soft-light"/>
            <path d="M567.86,161.72a1.68,1.68,0,1,0,2.37-.16A1.68,1.68,0,0,0,567.86,161.72Z" style="fill: #a4fff9;mix-blend-mode: soft-light"/>
            <path d="M482.28,91.25a1.68,1.68,0,1,0,2.38-.16A1.69,1.69,0,0,0,482.28,91.25Z" style="fill: #a4fff9;mix-blend-mode: soft-light"/>
            <path d="M429.72,318.24a2.58,2.58,0,1,0,3.64-.25A2.59,2.59,0,0,0,429.72,318.24Z" style="fill: #a4fff9;mix-blend-mode: soft-light"/>
            <path d="M524.14,243.18a1.68,1.68,0,1,0,2.37-.16A1.68,1.68,0,0,0,524.14,243.18Z" style="fill: #a4fff9;mix-blend-mode: soft-light"/>
            <path d="M65.49,194.43a1.68,1.68,0,1,0,2.37-.16A1.68,1.68,0,0,0,65.49,194.43Z" style="fill: #a4fff9;mix-blend-mode: soft-light"/>
          </g>
          <g>
            <path d="M681.75,60.55a6.72,6.72,0,0,0,5.35,0Z" style="fill-rule: evenodd;mix-blend-mode: screen;fill: url(#radial-gradient)"/>
            <path d="M707.31,187.27a6.79,6.79,0,1,1,2.53-9.26A6.8,6.8,0,0,1,707.31,187.27Z" style="fill-rule: evenodd;mix-blend-mode: screen;fill: url(#radial-gradient-2)"/>
            <path d="M31.28,286.32a6.78,6.78,0,1,1,2.53-9.25A6.78,6.78,0,0,1,31.28,286.32Z" style="fill-rule: evenodd;mix-blend-mode: screen;fill: url(#radial-gradient-3)"/>
            <path d="M624,212.23a2.45,2.45,0,1,1,.92-3.33A2.43,2.43,0,0,1,624,212.23Z" style="fill-rule: evenodd;mix-blend-mode: screen;fill: url(#radial-gradient-4)"/>
            <path d="M85.39,381.15a2.45,2.45,0,1,1,.91-3.34A2.44,2.44,0,0,1,85.39,381.15Z" style="fill-rule: evenodd;mix-blend-mode: screen;fill: url(#radial-gradient-5)"/>
            <path d="M775.6,130.11a3.13,3.13,0,1,1,1.17-4.27A3.13,3.13,0,0,1,775.6,130.11Z" style="fill-rule: evenodd;mix-blend-mode: screen;fill: url(#radial-gradient-6)"/>
            <path d="M689.08,175.88a3.13,3.13,0,1,1,1.17-4.27A3.14,3.14,0,0,1,689.08,175.88Z" style="fill-rule: evenodd;mix-blend-mode: screen;fill: url(#radial-gradient-7)"/>
            <path d="M689.37,377.84a3.13,3.13,0,1,1,1.17-4.27A3.13,3.13,0,0,1,689.37,377.84Z" style="fill-rule: evenodd;mix-blend-mode: screen;fill: url(#radial-gradient-8)"/>
            <path d="M328.35,230.34a61.74,61.74,0,1,1,23-84.23A61.73,61.73,0,0,1,328.35,230.34Z" style="fill-rule: evenodd;opacity: 0.2;mix-blend-mode: screen;fill: url(#radial-gradient-9)"/>
            <path d="M756.67,400a47.26,47.26,0,0,0-76.36,0Z" style="fill-rule: evenodd;opacity: 0.4;mix-blend-mode: screen;fill: url(#radial-gradient-10)"/>
            <path d="M799.52,126.84a22.39,22.39,0,1,1,8.35-30.55A22.39,22.39,0,0,1,799.52,126.84Z" style="fill-rule: evenodd;opacity: 0.2;mix-blend-mode: screen;fill: url(#radial-gradient-11)"/>
            <circle cx="370.64" cy="198.31" r="31.02" transform="translate(-49.26 178.75) rotate(-25.48)" style="opacity: 0.2;mix-blend-mode: screen;fill: url(#radial-gradient-12)"/>
            <circle cx="583.59" cy="170.47" r="14.39" transform="translate(-16.27 71.43) rotate(-6.91)" style="opacity: 0.41000000000000003;mix-blend-mode: screen;fill: url(#radial-gradient-13)"/>
            <path d="M649.68,161.8a7.56,7.56,0,1,1,2.82-10.32A7.57,7.57,0,0,1,649.68,161.8Z" style="fill-rule: evenodd;opacity: 0.5;mix-blend-mode: screen;fill: url(#radial-gradient-14)"/>
            <path d="M85.87,301.08a20.32,20.32,0,1,1,7.58-27.73A20.32,20.32,0,0,1,85.87,301.08Z" style="fill-rule: evenodd;opacity: 0.5;mix-blend-mode: screen;fill: url(#radial-gradient-15)"/>
            <circle cx="800.43" cy="260.72" r="7.56" transform="translate(-36.97 346.85) rotate(-23.91)" style="opacity: 0.5;mix-blend-mode: screen;fill: url(#radial-gradient-16)"/>
            <path d="M492.53,118.29A7.56,7.56,0,1,1,495.35,108,7.57,7.57,0,0,1,492.53,118.29Z" style="fill-rule: evenodd;opacity: 0.5;mix-blend-mode: screen;fill: url(#radial-gradient-17)"/>
          </g>
        </g>
        <path d="M252.71,0c-24.84,36.08-39,77.51-39,121.56,0,139.86,142.38,253.24,318,253.24s318-113.38,318-253.24c0-44-14.14-85.48-39-121.56Z" style="fill-rule: evenodd;opacity: 0.5;mix-blend-mode: screen;fill: url(#radial-gradient-18)"/>
      </g>
    </g>
  </g>
</svg>
